<?xml version="1.0" encoding="UTF-8"?>
<svg id="Layer_1" data-name="Layer 1" xmlns="http://www.w3.org/2000/svg" viewBox="0 0 164.32 224.88">
  <defs>
    <style>
      .cls-1 {
        fill: #face34;
      }

      .cls-2 {
        fill: #d4d866;
      }

      .cls-3 {
        fill: #e7df9d;
      }

      .cls-4 {
        fill: #f1b14e;
      }

      .cls-5 {
        fill: #ce9148;
      }

      .cls-6 {
        fill: #f9f1d2;
      }

      .cls-7 {
        fill: #c22d24;
      }

      .cls-8 {
        fill: #dfcd78;
      }

      .cls-9 {
        fill: #d83c2d;
      }

      .cls-10 {
        fill: #c5bc6b;
      }

      .cls-11 {
        fill: #d64113;
      }

      .cls-12 {
        fill: #fbe3b7;
      }

      .cls-13 {
        fill: #7ba855;
      }

      .cls-14 {
        fill: #f8b60f;
      }

      .cls-15 {
        fill: #f47c41;
      }

      .cls-16 {
        fill: #f1d695;
      }

      .cls-17 {
        fill: #942f15;
      }

      .cls-18 {
        fill: #78983f;
      }

      .cls-19 {
        fill: #bbc561;
      }

      .cls-20 {
        fill: #f8f799;
      }

      .cls-21 {
        fill: #585a2a;
      }

      .cls-22 {
        fill: #d2b858;
      }

      .cls-23 {
        fill: #fbe285;
      }

      .cls-24 {
        fill: #c0b29f;
      }

      .cls-25 {
        fill: #feef21;
      }

      .cls-26 {
        fill: #fde24c;
      }

      .cls-27 {
        fill: #bcbe86;
      }

      .cls-28 {
        fill: #b3a75b;
      }

      .cls-29 {
        fill: #ed8a63;
      }

      .cls-30 {
        fill: #992127;
      }

      .cls-31 {
        fill: #bbb18c;
      }

      .cls-32 {
        fill: #fcfa62;
      }

      .cls-33 {
        fill: #8ca02b;
      }

      .cls-34 {
        fill: #e99b81;
      }

      .cls-35 {
        fill: #faf8ef;
      }

      .cls-36 {
        fill: #e75237;
      }

      .cls-37 {
        fill: #fdf2bd;
      }

      .cls-38 {
        fill: #67812b;
      }

      .cls-39 {
        fill: #6f95bf;
      }

      .cls-40 {
        fill: #c8d4a8;
      }

      .cls-41 {
        fill: #da592a;
      }

      .cls-42 {
        fill: #ef841e;
      }

      .cls-43 {
        fill: #f9934e;
      }

      .cls-44 {
        fill: #f26940;
      }

      .cls-45 {
        fill: #e4b734;
      }

      .cls-46 {
        fill: #c1b1b2;
      }

      .cls-47 {
        fill: #f4786a;
      }

      .cls-48 {
        fill: #98bf69;
      }

      .cls-49 {
        fill: #5c6f1c;
      }

      .cls-50 {
        fill: #e24042;
      }

      .cls-51 {
        fill: #e2c8bc;
      }

      .cls-52 {
        fill: #9eb04b;
      }

      .cls-53 {
        fill: #ba5e23;
      }

      .cls-54 {
        fill: #d83653;
      }

      .cls-55 {
        fill: #d9ac5a;
      }

      .cls-56 {
        fill: #b04417;
      }

      .cls-57 {
        fill: #e3665a;
      }

      .cls-58 {
        fill: #f9a311;
      }

      .cls-59 {
        fill: #f4a550;
      }
    </style>
  </defs>
  <g>
    <path class="cls-58" d="M147.87,191.05c-.51,1.22-.27,2.31-.32,2.42-.4.78-2.69,1.58-2.26,2.58.17.39,6.73,3.32,7.09,4.19-1.11,1.92-.36,3.81-.64,5.8-.01.1-1.34,1.31-1.29,1.61.03.18,2.38,1.51,2.58,2.58.31,1.69-1.05,1.93-.97,2.58.03.28,3.07,3.81,3.22,4.51.44,2.01-1.41,5.3-1.29,7.57h-.97c2.34-5.38-5.63-10.24-9.66-12.56,1.5-2.33,6.85,3.73,7.25,3.54.31-1.72-1.28-2.12-1.77-3.06-.29-.55.79-.33.64-.97s-2.31-.8-2.9-1.61c-.17-.23-.26-1.86-.32-1.93-.68-.8-2.71-1.89-2.9-2.26-.05-.1.95-.48.48-1.13-.27-.37-3.97.49-4.67.64-.25-1.4-1.86.2-.97-1.93.71.13,1.67-.11,2.42,0,.18.03.09.93.97.97s7.59-2.26,5.15-3.22c-1.59-.59-3.75.57-4.83.64-1.38.09-.97-.79-2.09-.64l-.32-.64c.54-.18,5.96-2.79,3.06-2.9-.41.63-1.34.49-1.77.64l-.32-.81c-4.48,1.39-8.24,4.29-12.24,6.6-.51.3-.73.41-1.29.64s-1.4.68-1.93.32c3.58-3.04,6.98-5,10.95-7.41,2.37-1.44,4.95-2.58,7.25-4.19.17-.12,2.27-1.52,1.45-1.93.3-.18,4.8-4.06,4.51-1.77-.02.15-.86.09-1.29,1.13Z"/>
    <path class="cls-58" d="M119.52,211.99c.43.1.98.81,1.45.97,1.68.56,2.5-1.63,2.74,2.58-1.05,2.29.27.86.32,1.77.14,2.56-3.06,4.4-3.54,7.57h-2.58l.81-2.26-1.77,2.26h-5.8c-.27-.77-.7-.77-.97,0h-2.58c2.94-1.55,4.25-2.92,5.8-5.48.33-.54.42-1.06.64-1.61.09-.22,1.9-1.59.81-2.26-.76-.12-9.17,3.17-9.66,3.87-.39.54-.13,1.12.16,1.61-1.95.42-2.16-.37-2.58-.32.5-3.31.35-3.78,3.06-6.12,2.06-1.78,6.15-3.76,8.86-3.54s1.94,1.89,2.09,1.93c.44.13,1.29-1.3,2.74-.97Z"/>
    <path class="cls-58" d="M151.41,224.88h-15.79c.59-1.66,1.86-2.9,1.93-4.83.03-.83-.09-1.48-.32-2.26l3.22.97c.1.98,1.87,4.86,2.74,4.51,1.53-2.72-.47-5.35-1.77-7.73-.21-.38-1.04-1.56-.64-1.93,2.24,2.38,4.09,5.03,6.12,7.57-.61-3.36-3.22-5.89-5.48-8.21,3.9,2.14,9.54,7.36,9.99,11.92Z"/>
    <path class="cls-1" d="M114.04,210.7c.23.07.66-.17.64.32-2.71-.21-6.8,1.76-8.86,3.54-2.71,2.34-2.57,2.82-3.06,6.12-.72.08-2.85,1.76-3.22,2.58-.13-.15-.39-.24-.48-.64l-2.74,2.26h-.97c.5-.64.06-.54,0-.97-.14-.99-.33-.76-.32-.81.18-.6,6.74-9.79,7.25-10.15,2.55-1.79,8.75-3.14,11.76-2.26Z"/>
    <path class="cls-25" d="M143.36,212.31c4.03,2.32,12,7.19,9.66,12.56h-1.61c-.44-4.56-6.09-9.78-9.99-11.92-1.04-1.07-2.61-1.77-3.06-3.22,1.66.86,3.38,1.65,4.99,2.58Z"/>
    <path class="cls-58" d="M114.04,217.79c-.22.55-.32,1.07-.64,1.61-3.29.53-5.84,4.03-9.02,5.48h-4.51c.02-.56.07-1.15-.32-1.61.37-.82,2.5-2.5,3.22-2.58.42-.05.63.74,2.58.32,3.17-.69,5.86-3.59,8.7-3.22Z"/>
    <path class="cls-58" d="M126.28,212.96c-.16.92-.8.85-.97,2.26-.52,4.29.91,5.8,2.26,9.66h-7.09c.49-3.17,3.68-5.01,3.54-7.57-.05-.92-1.37.52-.32-1.77.83-1.81,2.19-2.04.48-4.51l2.09,1.93Z"/>
    <path class="cls-58" d="M135.3,218.11c.34.71.37.78.97,1.29-4.38,2.2-1.1,1.93-1.61,3.7-.32,1.11-2.47.74-2.58,1.77h-3.22l-.97-3.06,1.45,1.13c.53-.36-.27-.77-.16-.97.03-.05.85.03.97-.48.02-.07-.69-.81-.64-1.29.02-.25.64-.44.64-.48l1.93.81c0-.34-.57-2.02-.64-2.09.08-.17.59-.95.64-.97.08-.02.23,0,.32,0,.78.04,1.89,1.62,2.9.64Z"/>
    <path class="cls-1" d="M113.4,219.4c-1.55,2.56-2.86,3.93-5.8,5.48h-3.22c3.18-1.44,5.73-4.94,9.02-5.48Z"/>
    <path class="cls-25" d="M129.18,221.98c-.11.19.69.61.16.97l-1.45-1.13.97,3.06h-1.29c-1.34-3.86-2.77-5.38-2.26-9.66.64,3.43,1.73,4.24,3.87,6.77Z"/>
    <path class="cls-16" d="M137.56,220.04c-.07,1.93-1.35,3.17-1.93,4.83h-3.54c.11-1.03,2.26-.66,2.58-1.77.51-1.78-2.77-1.51,1.61-3.7.33.28.79.7,1.29.64Z"/>
    <path class="cls-12" d="M99.54,223.26c.4.46.35,1.05.32,1.61h-3.54l2.74-2.26c.1.41.35.49.48.64Z"/>
    <polygon class="cls-25" points="117.91 224.88 116.94 224.88 118.71 222.62 117.91 224.88"/>
    <path class="cls-25" d="M111.14,224.88h-.97c.27-.77.7-.77.97,0Z"/>
    <path class="cls-58" d="M101.8,182.67l8.05,5.8c-3.95-.14-7.94-2.99-11.92-1.45l13.05,4.03c.49-.31.39-.55.48-.97,2.3-.44,3.72,3.21,4.51,4.83-1.34-.29-2.34-2.33-3.7-2.58-1.11-.2-.76.62-.81.64-1.41-1.17-2.99-1.98-4.67-2.26.69.69,2.54,1.83,3.38,2.26-.37-.04-.43.45-.32.64-2.81-.51-5.11-1.64-8.05-1.29-.52-.92-2.47.06-2.74,0-.32-.08-5.27-3.29-5.48-3.54-.82-.97-.42-1.27-.16-2.26.57-2.13,1.6-1.69,1.93-2.42.17-.38-.16-1.6,0-2.09,1.34.66,2.79.27,4.03.32.14,0,1.72.25,2.42.32Z"/>
    <path class="cls-25" d="M104.7,176.23c1.64.49,4.6,1.75,5.8,2.9.27.26,2.78,3.86,3.22,4.51,1.32,1.93,1.02,3.17,1.61,4.35.27.55.84-.68,1.61.32.14.18,1.37,4.26,1.13,4.35l-2.09-4.03c.66,1.66.07,4.37.32,5.8.27,1.53,1.77,1.2,1.29,4.67-.19-1.55-.94-2.82-1.61-4.19-.79-1.62-2.21-5.27-4.51-4.83.11-.51-1.38-1.2-1.61-1.61l-8.05-5.8c.09,0,.87-.46,1.77-.32,1.37.21,4.44,3.06,6.28,2.74-2.16-2.26-4.61-4.17-6.77-6.44-.25-.27.64-.62.16-1.13-.13-.14-3.03-1.95-3.22-1.93-.11,0-1.29.97-1.77,1.29,1.07-2.5,4.38-1.26,6.44-.64Z"/>
    <path class="cls-58" d="M122.42,185.57c.55,1.2.13,1.71.32,2.09.13.26.9-.72,1.29.64.25.88-.44,2.59.32,3.38-.54.81-.65.94-1.61,1.29-.02-.29-1.02-4.83-1.61-3.06-.1,2.08-.63,4.53.97,6.28-.12.31-.26.93-.32,1.29-.05,0-.14,1.11-.48.97-.2-.08-.01-1.78-1.77-.64.19-2.24-.57-10.8-1.29-13.37-.39-1.39-1.8-3.45-3.54-2.74l-1.93-4.83c3.7,2.4,6.08,6.5,9.18,9.66l.48-.97Z"/>
    <path class="cls-1" d="M132.08,180.1c.45,1.29.66,2.97.64,4.35l.64-.48s.63-.1.64.16c.05,1.43-.63,8.23-1.77,8.86-1.99,1.1.62-3.75-.64-3.87l-1.45,4.03c.98-2.61-.9-3.34-.97-3.54-.19-.6.18-1.94,0-2.58-.08-.28-.63-.13-.64-.16-.4-1.37-.31-2.26-.64-3.22,4.3.75-.35-4.48,0-6.77,2.46-.54,1.87,2.82,4.19,3.22Z"/>
    <path class="cls-58" d="M101.8,182.67c-.7-.07-2.28-.32-2.42-.32-1.24-.06-2.69.34-4.03-.32.83-2.58.17-3.35,2.9-5.15.48-.32,1.66-1.28,1.77-1.29.19-.01,3.09,1.8,3.22,1.93.48.51-.41.86-.16,1.13,2.15,2.27,4.61,4.18,6.77,6.44-1.84.33-4.91-2.53-6.28-2.74-.9-.14-1.68.33-1.77.32Z"/>
    <path class="cls-58" d="M138.84,191.37c-1.74-.6-.19-.29-.97-2.26.29-.74.5-1.62.64-2.42-1.86,1.27-2.3,4.07-3.54,5.96-.29.04-.35-.36-.64-.32,1.06-1,4.81-8.72,1.93-9.02.12-.52-.36-2.63.64-3.22,6.79,3.94,2.07,4.94,1.93,11.28Z"/>
    <path class="cls-58" d="M132.08,180.1c-2.32-.4-1.73-3.76-4.19-3.22-2.69.59.78,1.68-1.61,2.9-.75-1.27-1.84-2.27-2.58-3.54.08-.02.75-1.16,1.13-1.29,3.38-1.15,6.26,2.3,7.25,5.15Z"/>
    <path class="cls-58" d="M112.11,176.55l-1.61,2.58c-1.19-1.15-4.16-2.41-5.8-2.9,1.39-3.39,5.26-.83,7.41.32Z"/>
    <path class="cls-1" d="M124.35,191.69c-.76-.79-.07-2.5-.32-3.38-.39-1.36-1.16-.39-1.29-.64-.2-.39.23-.89-.32-2.09-.69-1.5-1.24-2.54-1.93-4.19,3.33,2.09,6.35,6.55,3.87,10.31Z"/>
    <path class="cls-1" d="M112.75,176.88l1.93,4.83c-.1.04-.87,1.64-.97,1.93-.45-.65-2.96-4.25-3.22-4.51l1.61-2.58c.19.1.27.08.64.32Z"/>
    <path class="cls-43" d="M162.36,182.67c-.25-.05-.52-.22-.97-.32-.06-.01-.35-.96-1.13-.64-.65,1.14.44.91.48.97l-.64.64c-.2-.28-1.31-.04-1.61,0,2.34-1.09-1.55-3.21.16-4.83,1.48,4.48,1.73,1.37,1.93,1.29,1.95-.82,2.87,1.28,1.77,2.9Z"/>
    <path class="cls-42" d="M152.7,187.83l.32.97c-.27.28-1.76-.01-.16,1.29.11-.23.99-.95,1.13-.97l.32,1.29c-2.53,1.35,0,.04,0,1.13-1.84,1.68-1.91-1.8-3.54-2.09.55-1.49,1.45-1.4,1.93-1.61Z"/>
    <path class="cls-41" d="M162.04,185.57c.33.2.78.3.97.64-.49.27-1.55.44-2.58.97l-.32-3.87.64-.64c1.72,2.32-.43,1.87,1.29,2.9Z"/>
    <path class="cls-1" d="M155.27,188.15l.32.97c-.4.22-.3.31-.32.32-.46-.27-.72-.4-1.29-.32-.14.02-1.02.73-1.13.97-1.6-1.3-.11-1.01.16-1.29.15-.15.62-.36.97-.64.49-.37,1.14.02,1.29,0Z"/>
    <path class="cls-15" d="M163.97,183.64c-.32.26-1.41.1-1.61,0-.64-.32-.68-.72-.97-1.29.44.1.72.28.97.32.91.17,1.69-.69,1.77-.64.49.26-.16,1.12-.16,1.61Z"/>
    <path class="cls-56" d="M155.27,189.44c-.08.05.45.21-.97.97l-.32-1.29c.57-.07.83.05,1.29.32Z"/>
    <path class="cls-58" d="M105.99,206.84c2.18.33,5.12.64,7.09,1.61.27.13,1.58.72,1.61.81.02.08-.82.99-.64,1.45-3.01-.88-9.21.46-11.76,2.26-.51.36-7.07,9.55-7.25,10.15-.01.04.19-.19.32.81-1.82,1.13-9.83-.34-10.31-2.09-.23-.85.02-2.49.32-3.38.76-2.28,7.25-7.48,9.34-9.02,1.28-.24,2.48-1.07,3.87-.48-3.58,2.83-7.49,5.25-8.7,9.99,2.72,2.52,2.39-.71,3.22-1.61,1.69-1.83,3.53-2.6,5.32-4.03.6-.48,1.71-2.53,1.93-2.58.19-.04,1.18,1.13,1.93.97.31-.07,3.04-3.68,2.42-4.51.19.02.53-.44,1.29-.32Z"/>
    <path class="cls-58" d="M93.1,197.82c.81,1.42,4.61,3.18,6.12,1.93.64.14,1.81-.02,2.58,0s2.35.1,2.9-.32c.51.95.45,2.87.64,4.03.04.22-.68.1-.64.32.05.31.9.01.97.32.17.84.04,1.88.32,2.74-.76-.11-1.1.35-1.29.32-1.78-.22-2.14-1.08-3.87-.81l.81-2.74c-1.42,1.4-4.16.8-5.8.97-.67.07,1.15.78,0,1.29-1.27.56-3.83.72-5.48,1.61-2.33,1.26-9.26,7.11-2.09,4.83-.64.5-3.41,2.99-3.54,3.54-4.44-2.04-1.78-5.19-1.29-8.05,2.64-2.14,9.54-1.54,11.76-2.58.35-.16.05-1.04.16-1.13.44-.33,1.97.07,1.45-1.13-2.15.6-4.44.19-6.6.64-1.89-1.06-2.8-.42-4.51,0-.51-5.16,3.67-5.3,7.41-5.8Z"/>
    <path class="cls-25" d="M83.44,207.8c.02-.1,0-1.63,0-1.93,2.15.22,4.79-1.84,6.77-2.26,2.17-.46,4.46-.04,6.6-.64.52,1.2-1.01.79-1.45,1.13-.11.09.19.96-.16,1.13-2.22,1.04-9.12.44-11.76,2.58Z"/>
    <path class="cls-32" d="M94.71,209.41c-2.09,1.54-8.58,6.74-9.34,9.02-.54-.54-.81-1.89-.64-2.58.14-.56,2.9-3.05,3.54-3.54,2.26-1.75,3.74-2.39,6.44-2.9Z"/>
    <path class="cls-25" d="M90.2,203.61c-1.97.42-4.62,2.48-6.77,2.26,0-.51-.14-.57-.32-.97.55-.12.6-.63.64-.64.65-.14,1.26-.48,1.93-.64,1.71-.42,2.62-1.06,4.51,0Z"/>
    <path class="cls-1" d="M143.36,212.31c-1.62-.93-3.33-1.72-4.99-2.58.45,1.45,2.02,2.15,3.06,3.22-1.14-.63-1.44-.62-2.58-.97-1.19-1.12-2.5-2.14-3.54-3.22-.35-.37-.96-.74-.97-1.29,1.52-.59,3.01-1.54,4.83-1.93.7-.15,4.4-1.02,4.67-.64.46.64-.54,1.02-.48,1.13.19.36,2.22,1.46,2.9,2.26.06.07.16,1.7.32,1.93.59.81,2.75.97,2.9,1.61s-.93.42-.64.97c.49.94,2.08,1.34,1.77,3.06-.4.18-5.75-5.87-7.25-3.54Z"/>
    <path class="cls-42" d="M140.78,198.46c-.88.32-2.75,2.06-3.87,2.42.43.71,2,.03,2.58-.16l.32.64c-.9.11-4.35,1.76-1.61,2.26-.9,2.13.71.53.97,1.93-1.82.4-3.32,1.34-4.83,1.93-.24.09-.84.88-1.45.97-.69.1-2.3-.66-3.38-.32.51-1.91-1.33-1.9-1.29-3.87,4-2.31,7.76-5.21,12.24-6.6l.32.81Z"/>
    <path class="cls-53" d="M129.5,208.12c-.84.26-.98.64-.97,1.45.16.22.66.08,1.29.48-1.5,1.79-.78,2.69-.48,4.83-2.06,0-.55-4.45-3.06-3.22.14-3.2-1.35-.85-1.61-1.77,2.03-.28,1.34-1.8-.32-1.77.92-1.01,1.68-2.19,2.58-3.22.56-.24.77-.35,1.29-.64-.04,1.96,1.8,1.96,1.29,3.87Z"/>
    <path class="cls-1" d="M138.2,203.61c-2.74-.49.71-2.14,1.61-2.26,1.13-.14.72.73,2.09.64,1.08-.07,3.25-1.23,4.83-.64,2.43.97-4.31,3.26-5.15,3.22s-.79-.94-.97-.97c-.74-.11-1.7.13-2.42,0Z"/>
    <path class="cls-41" d="M126.93,204.9c-.89,1.03-1.66,2.21-2.58,3.22s-3.38,4.49-4.19,1.93c.08-.1.42-.39.64-.64,1.33-1.5,2.65-2.89,4.19-4.19.53.36,1.4-.1,1.93-.32Z"/>
    <path class="cls-1" d="M139.49,200.71c-.58.2-2.15.87-2.58.16,1.12-.36,2.99-2.09,3.87-2.42.43-.16,1.36-.02,1.77-.64,2.9.11-2.52,2.72-3.06,2.9Z"/>
    <path class="cls-53" d="M117.26,206.84c.68,1.32.77,1.93.97,3.38.3.39,1.28-1.04,1.29-1.13l1.29.32c-.22.25-.57.55-.64.64-.26.32-1.4.22-.64,1.93-1.45-.33-2.3,1.09-2.74.97-.15-.04.63-1.72-2.09-1.93.02-.49-.41-.25-.64-.32-.18-.46.67-1.37.64-1.45-.03-.09-1.34-.67-1.61-.81,2.37-2.75-2.1-3.6.32-6.44,2.03,1.97,2.51,2.21,3.87,4.83Z"/>
    <path class="cls-17" d="M126.28,211.67c-.02.42.07.91,0,1.29l-2.09-1.93c1.71,2.47.35,2.7-.48,4.51-.23-4.2-1.06-2.02-2.74-2.58-.47-.16-1.02-.87-1.45-.97-.75-1.71.39-1.61.64-1.93.81,2.56,3.28-.93,4.19-1.93,1.67-.03,2.35,1.5.32,1.77.26.92,1.75-1.43,1.61,1.77Z"/>
    <path class="cls-45" d="M114.04,217.79c-2.83-.37-5.53,2.54-8.7,3.22-.3-.49-.55-1.07-.16-1.61.5-.7,8.9-3.99,9.66-3.87,1.09.67-.72,2.04-.81,2.26Z"/>
    <path class="cls-1" d="M135.95,211.67c1.03.2,1.95.03,2.9.32.6.57,1.37,1.01,1.93,1.61-.4.38.44,1.55.64,1.93-1.37-.47-1.07,2.16-.97,3.22l-3.22-.97c-.07-.24-2.18-3.68-2.58-4.19-.06-.75.23-2.19-.97-2.26.06,0,.08-.78,1.13-.64.2.03.65.88,1.13.97Z"/>
    <path class="cls-1" d="M141.42,215.53c1.3,2.38,3.3,5.01,1.77,7.73-.86.35-2.64-3.53-2.74-4.51-.1-1.06-.4-3.69.97-3.22Z"/>
    <path class="cls-25" d="M141.42,212.96c2.26,2.33,4.87,4.85,5.48,8.21-2.03-2.54-3.88-5.19-6.12-7.57-.56-.6-1.33-1.04-1.93-1.61,1.14.34,1.43.34,2.58.97Z"/>
    <path class="cls-26" d="M137.23,217.79c.23.78.35,1.42.32,2.26-.49.05-.96-.36-1.29-.64-.6-.51-.63-.58-.97-1.29-.8-1.67-.53-3.1-.64-4.51.4.51,2.51,3.95,2.58,4.19Z"/>
    <path class="cls-58" d="M131.44,211.02c-.96,2.18,1.94,3.61.97,6.44-.09,0-.24-.02-.32,0,.04-1.01-.97-2.44-2.09-1.93-1.29.58.18,2.2.16,2.58-.03.67.02,1.22,0,1.61,0,.04-.62.23-.64.48-.05.47.66,1.22.64,1.29-.12.52-.94.44-.97.48-2.14-2.53-3.22-3.34-3.87-6.77.17-1.4.81-1.34.97-2.26.07-.38-.02-.87,0-1.29,2.51-1.23,1,3.22,3.06,3.22-.3-2.15-1.01-3.04.48-4.83.18.12,1.51.93,1.61.97Z"/>
    <path class="cls-1" d="M133.69,211.35c1.19.06.91,1.5.97,2.26.11,1.41-.15,2.84.64,4.51-1.01.97-2.12-.6-2.9-.64.97-2.83-1.92-4.26-.97-6.44,1.45.57,1.01.3,2.26.32Z"/>
    <path class="cls-32" d="M132.08,217.47c-.06.02-.56.8-.64.97-.05-.05-.93.07-1.29-.32.02-.38-1.46-2-.16-2.58,1.12-.51,2.14.93,2.09,1.93Z"/>
    <path class="cls-25" d="M131.44,218.43c.08.08.65,1.76.64,2.09l-1.93-.81c.02-.39-.03-.94,0-1.61.36.39,1.24.27,1.29.32Z"/>
    <path class="cls-58" d="M109.85,193.63c.36.67,1.06.4,0,1.93-.72-.18-3.34.38-3.87.32-2.02-.21-2.97-.75-4.51-.97l-2.26-1.77c.06-.37,2.17-.76,2.58-.81,2.95-.36,5.24.78,8.05,1.29Z"/>
    <path class="cls-23" d="M101.48,194.92c1.54.21,2.49.76,4.51.97,2.38,1.19,4.83,1.12,7.09,2.9.32.25,2,2.19,2.26,2.58.59.89,2.01,4.26,1.93,5.48-1.35-2.62-1.83-2.86-3.87-4.83-3.47-3.37-4.17-3.6-8.7-5.15-1.67-.57-2.97-1.34-4.83-1.61.12-.5,1.23-.38,1.61-.32Z"/>
    <path class="cls-58" d="M99.87,195.24c1.86.27,3.16,1.04,4.83,1.61.08,1.64-1.96-.13-.97,1.61-1.22-.76-7.14-1.35-8.7-1.29l.16-2.26c.22-.09,4.11.24,4.67.32Z"/>
    <path class="cls-25" d="M95.03,197.17c1.56-.06,7.47.53,8.7,1.29.06.04.93.91.97.97-.55.42-2.16.34-2.9.32-.32-1.56-2.6-.8-3.7-.97-.61.53.99.94,1.13.97-1.51,1.24-5.31-.51-6.12-1.93.27-.04.36-.59,1.93-.64Z"/>
    <path class="cls-56" d="M119.52,208.77c-.01.11.01.22,0,.32,0,.09-.99,1.52-1.29,1.13-.19-1.45-.28-2.06-.97-3.38.08-1.22-1.34-4.59-1.93-5.48.96-1.54.89-.01.97,0l1.13,2.9v-2.26l.48,1.77c1.34-.04.14-1.36.32-1.93.1-.32.88,0,.97-.32.25-.98.23-2.63.32-3.7,1.76-1.14,1.57.56,1.77.64.35.14.43-.96.48-.97.9-.15,1.68.34,1.77.32.23-.04,1.57-2,1.77.16-1.4.96-1.32,4.25-1.61,4.83-.45.9-3.97,2.98-4.51,4.19-.94,2.11.34,1.66.32,1.77Z"/>
    <path class="cls-1" d="M134.33,192.34c-.37.35-.33.71-.81.64-.82-.67,2.4-8.2,2.74-9.66,2.88.3-.87,8.02-1.93,9.02Z"/>
    <path class="cls-16" d="M122.74,192.98c.1,1.56-.11,1.87-.64,3.22-1.6-1.75-1.07-4.2-.97-6.28.6-1.77,1.59,2.77,1.61,3.06Z"/>
    <path class="cls-25" d="M137.88,189.12c-.39,1-1.78,3.41-2.9,3.54,1.25-1.88,1.68-4.69,3.54-5.96-.15.79-.36,1.67-.64,2.42Z"/>
    <g>
      <path class="cls-58" d="M123.38,176.55c-.57,1.94,1.83,3.79,2.26,5.64l-3.06-2.09c1.12,2.95,3.73,5.74,3.7,9.5,1.65.16.64-1.71.81-1.77l.97,1.61.48-2.58s.56-.12.64.16c.18.64-.19,1.98,0,2.58.07.21,1.95.93.97,3.54l1.45-4.03c1.26.11-1.34,4.96.64,3.87,1.14-.63,1.82-7.43,1.77-8.86,0-.26-.64-.13-.64-.16-.08-1.75-.88-5.52,2.09-5.15.61.07,1.29,1.19,1.45,1.29-1,.59-.52,2.7-.64,3.22-.34,1.46-3.56,9-2.74,9.66.48.07.43-.29.81-.64.29-.04.35.36.64.32,1.12-.13,2.51-2.55,2.9-3.54.78,1.97-.77,1.66.97,2.26,1.39.48,1.24-.1,2.09,0,.25.03.62.97,1.29.97.81,0,4.26-3.13,4.99-3.54,1.99-1.13,2.03-.66,3.22.97l.81,2.26c-.96-.54-2.14.64-2.26.64-1.32.05.04-1.84-1.13-1.61.43-1.04,1.27-.98,1.29-1.13.29-2.29-4.21,1.59-4.51,1.77-3.01,1.81-6.03,3.63-9.02,5.48-5.62,3.46-11.85,6.26-16.11,11.6.01-.11-1.26.34-.32-1.77.54-1.21,4.06-3.29,4.51-4.19.29-.58.21-3.87,1.61-4.83-.2-2.17-1.54-.2-1.77-.16-.09.02-.87-.47-1.77-.32.06-.36.2-.98.32-1.29.54-1.35.75-1.66.64-3.22.96-.35,1.07-.48,1.61-1.29,2.48-3.76-.53-8.22-3.87-10.31-.62-1.49-2.13-2.68-1.93-4.35.38-.73,4.1-.26,4.83-.48Z"/>
      <path class="cls-1" d="M126.28,179.78c.93,1.56,1.05,2.24,1.61,3.87.33.96.24,1.85.64,3.22l-.48,2.58-.97-1.61c-.17.07.84,1.93-.81,1.77.03-3.76-2.59-6.55-3.7-9.5l3.06,2.09c-.42-1.85-2.83-3.7-2.26-5.64.02,0-.12-.2.32-.32.74,1.27,1.83,2.28,2.58,3.54Z"/>
      <path class="cls-23" d="M135.95,197.82c-3.97,2.41-7.37,4.37-10.95,7.41-1.54,1.3-2.85,2.69-4.19,4.19l-1.29-.32c.01-.11-.01-.22,0-.32,4.25-5.34,10.49-8.13,16.11-11.6l.32.64Z"/>
      <path class="cls-35" d="M144.64,191.69c.82.41-1.28,1.81-1.45,1.93-2.29,1.61-4.88,2.75-7.25,4.19l-.32-.64c2.99-1.84,6.01-3.66,9.02-5.48Z"/>
      <path class="cls-42" d="M128.38,198.46c.5.5,1.06,1.2.32,1.61l-.32-1.61Z"/>
    </g>
    <path class="cls-42" d="M115.97,194.92c.67,1.36,1.42,2.63,1.61,4.19-.25,1.77.09,2.49-1.29,2.26-.08-.01,0-1.54-.97,0-.26-.39-1.93-2.32-2.26-2.58.74-1-2.82-3.12-3.22-3.22,1.06-1.54.36-1.26,0-1.93-.11-.2-.05-.69.32-.64,1.89.94.87.18,1.29,0,.05-.02-.3-.85.81-.64,1.36.25,2.36,2.29,3.7,2.58Z"/>
    <path class="cls-1" d="M109.85,188.47c.23.41,1.72,1.1,1.61,1.61-.09.42.01.66-.48.97l-13.05-4.03c3.98-1.54,7.96,1.31,11.92,1.45Z"/>
    <path class="cls-1" d="M111.46,192.98c-.42.18.6.94-1.29,0-.85-.42-2.69-1.56-3.38-2.26,1.68.28,3.26,1.09,4.67,2.26Z"/>
    <path class="cls-1" d="M119.52,197.82c-.09,1.07-.07,2.73-.32,3.7-.08.32-.86,0-.97.32-.18.58,1.02,1.89-.32,1.93l-.48-1.77v2.26l-1.13-2.9c1.37.24,1.04-.48,1.29-2.26.48-3.47-1.02-3.14-1.29-4.67-.25-1.42.34-4.13-.32-5.8l2.09,4.03c.24-.09-.99-4.17-1.13-4.35-.77-1-1.34.22-1.61-.32-.59-1.17-.29-2.42-1.61-4.35.1-.3.87-1.89.97-1.93,1.74-.71,3.16,1.34,3.54,2.74.71,2.57,1.47,11.12,1.29,13.37Z"/>
    <path class="cls-58" d="M127.89,176.88c-.35,2.29,4.3,7.51,0,6.77-.56-1.62-.68-2.3-1.61-3.87,2.39-1.22-1.08-2.31,1.61-2.9Z"/>
    <g>
      <path class="cls-58" d="M158.5,183.32c.31-.04,1.41-.28,1.61,0l.32,3.87c-.21.11-.43.22-.64.32.05-1.27-.68-.29-.97-.32-.05,0-.14-.6-.97-.32-1.02.34-.19.73-.32,1.61-.62.32-.62.46-.97.64-.97-2.44-.68-1.06-1.29-.97-.15.02-.8-.37-1.29,0,.28-.23,1.33-.83,1.13-1.29-.96-.05-1.62.62-2.42.97-.48.21-1.39.12-1.93,1.61-.06.16.02.37-.32.32-1.19-1.63-1.23-2.1-3.22-.97-1.14-.84-.32-1.88.48-2.58,2.21.31-.17,1.01,1.77,1.61,2.08.64,2.1-1.04,3.87-1.45l-1.13-.16c-1.31.54-1.01,1.99-2.42.64,0-.02,0-.3,0-.32l.64-.48-.64.16c.01-.08-.78-.77-.16-1.61,1.58-.2,4.23-3.32,5.64-3.87-.1.97.79.87.64,0,2.41-.43-.44.92,1.93,1.45-1.21.12-1.17.75-.81,1.77.27-.22,1.19-.61,1.45-.64Z"/>
      <g>
        <path class="cls-41" d="M149.48,187.83c-.14-.46.24-.61.32-.97,1.41,1.34,1.11-.11,2.42-.64l1.13.16c-1.76.41-1.79,2.09-3.87,1.45Z"/>
        <path class="cls-53" d="M156.56,189.12c-.88.47-.75-.12-.97,0l-.32-.97c.6-.09.32-1.47,1.29.97Z"/>
        <path class="cls-56" d="M158.17,187.51c.04.07-.05.38.32.32-.05.03-.19.25-.97.64.13-.88-.7-1.27.32-1.61-.19.63.3.61.32.64Z"/>
        <path class="cls-56" d="M159.78,187.51c-.13.06-.52-.06-.64,0-.38.06-.3-.32-.32-.32.28.03,1.01-.95.97.32Z"/>
        <path class="cls-58" d="M159.14,187.51c-.22.11-.44.21-.64.32-.37.05-.28-.25-.32-.32.29.02.33-.3.64-.32.02,0-.05.38.32.32Z"/>
        <path class="cls-41" d="M149.8,186.54c0-.1-.02-.23,0-.32l.64-.16-.64.48Z"/>
        <path class="cls-41" d="M155.92,180.74c.14.87-.74.97-.64,0,.14-.05.44.04.64,0Z"/>
        <path class="cls-16" d="M159.14,184.93l-.32.32c-.12.06-.61.31-.64.32h-.64c-.42-.18-1.66.41-1.61-.48,1.68-.56,2.02-2,3.22-.16Z"/>
        <path class="cls-41" d="M152.54,184.29c2.06-.29-.63,2.58-2.09.81.9.42,1.95-.78,2.09-.81Z"/>
        <path class="cls-41" d="M153.99,188.15c-.34.28-.82.49-.97.64l-.32-.97c.79-.35,1.46-1.01,2.42-.97.2.46-.85,1.06-1.13,1.29Z"/>
        <path class="cls-41" d="M156.08,185.9c1.15-.55.48.92.64,1.61-.58.08-.88-1.5-.64-1.61Z"/>
        <path class="cls-56" d="M154.15,183.96c.24-.17,1.04.02.81.48-.25.5-1.5.02-.81-.48Z"/>
        <path class="cls-41" d="M158.17,185.57s.39.68-.48.64c-.26-.01-.13-.63-.16-.64h.64Z"/>
        <path class="cls-41" d="M158.82,185.25l.32-.32s1.08-.12.48.64c-.66.25-.77-.34-.81-.32Z"/>
        <path class="cls-11" d="M153.82,185.25c.65-.13.63.82.32.97-.13.06-.81-.87-.32-.97Z"/>
        <path class="cls-20" d="M158.82,187.18c-.32.02-.36.35-.64.32-.02-.03-.51-.02-.32-.64.83-.28.92.32.97.32Z"/>
      </g>
    </g>
    <path class="cls-4" d="M161.4,182.35c.29.57.33.97.97,1.29l-.32,1.93c-1.72-1.03.43-.58-1.29-2.9-.04-.06-1.13.17-.48-.97.78-.31,1.06.63,1.13.64Z"/>
    <path class="cls-1" d="M104.7,207.16c.62.83-2.11,4.44-2.42,4.51-.76.17-1.74-1-1.93-.97-.22.04-1.33,2.09-1.93,2.58-1.78,1.43-3.63,2.2-5.32,4.03-.83.9-.5,4.13-3.22,1.61,1.21-4.74,5.12-7.15,8.7-9.99-1.39-.59-2.59.24-3.87.48-2.7.51-4.19,1.15-6.44,2.9-7.17,2.28-.24-3.57,2.09-4.83,1.65-.89,4.21-1.05,5.48-1.61,1.15-.51-.67-1.22,0-1.29,1.64-.16,4.37.44,5.8-.97l-.81,2.74c1.72-.27,2.09.58,3.87.81Z"/>
    <path class="cls-58" d="M113.4,202c-2.42,2.85,2.05,3.7-.32,6.44-1.97-.97-4.91-1.28-7.09-1.61-.29-.86-.15-1.9-.32-2.74-.06-.31-.92-.01-.97-.32-.03-.22.68-.11.64-.32-.19-1.16-.13-3.08-.64-4.03-.03-.06-.91-.93-.97-.97-.99-1.74,1.05.03.97-1.61,4.53,1.55,5.23,1.79,8.7,5.15Z"/>
    <path class="cls-32" d="M101.8,199.75c-.76-.02-1.93.14-2.58,0-.14-.03-1.74-.43-1.13-.97,1.11.17,3.38-.59,3.7.97Z"/>
    <path class="cls-58" d="M135.3,208.77c-4.76-.45,2.83,1.56.64,2.9-.48-.09-.92-.94-1.13-.97-1.04-.13-1.06.65-1.13.64-1.25-.02-.81.25-2.26-.32-.1-.04-1.43-.85-1.61-.97-.63-.4-1.13-.27-1.29-.48-.01-.81.13-1.19.97-1.45,1.08-.34,2.69.42,3.38.32.61-.09,1.21-.87,1.45-.97,0,.55.61.92.97,1.29Z"/>
    <path class="cls-25" d="M135.3,208.77c1.04,1.08,2.36,2.1,3.54,3.22-.95-.29-1.87-.13-2.9-.32,2.19-1.33-5.4-3.35-.64-2.9Z"/>
    <path class="cls-14" d="M109.85,195.56c.4.1,3.96,2.22,3.22,3.22-2.25-1.78-4.7-1.71-7.09-2.9.52.05,3.15-.5,3.87-.32Z"/>
  </g>
  <g>
    <g>
      <path class="cls-16" d="M37.05,200.07c7.46,2.96,15.05,6.28,22.87,8.38,7.07,1.89,14.52,3.66,21.91,3.06-1.22-1.93-1.76-.38-2.09-.48-7.64-2.44-15.09-5.9-22.71-8.38-.96-.31-1.93-.67-2.9-.97l17.4,3.22c.2.04.44-.03.64,0,1.67.29,2.86.26,4.51.32,2.12.07,4.36.13,6.44-.32.18.39.32.45.32.97,0,.3.02,1.84,0,1.93-.49,2.86-3.15,6.01,1.29,8.05-.17.69.1,2.04.64,2.58-.3.89-.55,2.53-.32,3.38.48,1.76,8.49,3.22,10.31,2.09.06.42.5.32,0,.97h-17.72l-32.38-11.28.48-2.74c-5.79-2.84-10.93-3.93-17.4-4.35-1.06-1.48-.48-1.14.64-2.58.01-.02.13-.07.32-.32.43.12,1.68-.66,1.77-.64.36.08,5.24,3.05,6.44,3.54,5.91,2.42,13.4,5.35,19.49,7.09,1.38.4,3.48.55,5.15.97,5.82,1.45,11.62,3.25,17.72,3.38-6.2-1.8-12.03-4.68-18.04-6.93-1.12-.42-2.44-1.41-3.87-1.93-8.24-3.09-16.5-7.09-25.61-6.12l-.32-.64c.7-.44,3.43-3.23,3.87-3.22.09,0,.66.78,1.13.97Z"/>
      <path class="cls-16" d="M6.77,175.27c-.82,3.36-.72,6.88-.64,10.31.24,11.27,2.02,20.23,7.09,30.28-1.19,1.19-2.79,2.66-3.87,3.87-.65.17-.88-.66-.97-1.13-1.02-5.51-1.16-11.44-2.26-17.23-1.47-7.81-3.55-15.55-5.15-23.36-.1-.46-.28-1.96-.97-1.77v-3.54l2.42-2.9c.98,2.52,2.57,3.76,4.35,5.48Z"/>
      <path class="cls-18" d="M29.96,202c-.28,1.07-1.65.97-.97,1.93-1.12,1.44-1.71,1.1-.64,2.58.43.6,1.96,1.83,2.58,2.26-.76-.15-4.02-2.3-4.35-2.26-.35.04-3.7,4.06-4.67,4.35.04.74,7.22.53,8.05.48,1.32.01,2.57.42,3.87.64l-1.77,2.26,4.67.32c-.41-.04-1.73-.1-1.93.16,1,1.8,2.27.75,2.42.81.27.11.05.54.32.64,2.16.84,5.67,1.58,8.21,2.58,4.39,1.72,9.1,4.31,13.53,6.12h-1.93c-5.45-3.61-12.11-5-18.36-5.96.68,3.05-3.56.06-4.99.81,0,.39-.48,1.07-.48,1.13,0,.63,10.81,2.99,11.92,4.03h-2.58c-3.77-1.4-7.73-2.44-11.6-3.54l1.77-.97-4.35-1.45,1.77.16.64-.97c-.12-.23-4.34-1.82-4.83-1.93-.67-.16-3.14.98-2.74-.97,3.09,0,6.17.36,9.18.97.55-.31-10.97-4.5-11.6-4.51-.48,0-1.67.69-2.09.97,2.35-2.95,6.78-5.24,8.05-8.7.86-.66,1.86-1.6,2.9-1.93Z"/>
      <path class="cls-52" d="M77.64,224.88h-7.09c-5.35-1.79-11.18-3.2-16.75-4.83.04-.38.99-.5,1.29-.48,2.42.13,8.41,2.96,10.15,3.06.12,0,1.91-.54,2.42-.48-8.62-3.91-18.58-7.39-28.03-8.54.09-1.34-4.19-1.34-5.8-1.61-1.3-.22-2.54-.63-3.87-.64,1.55-.09,3.25-.47,4.83-.48-1.05-.98-2.74-1.31-3.87-2.09-.61-.43-2.15-1.65-2.58-2.26,6.47.42,11.6,1.51,17.4,4.35l-.48,2.74,32.38,11.28Z"/>
      <path class="cls-38" d="M6.12,201.36c-1.83-.36-.2-4.94-2.58-3.06-.16.42,1.64,4.44,1.61,4.83-.08,1.09-1.1.75-.97,2.9.12,1.88,1.86,6.17,2.26,8.05.21.99.48,1.04-.64,1.45-2.55-5.86-3.46-9.81-4.83-15.95-.06-.26-.37-1.47-.97-.81v-22.55c.68-.19.87,1.31.97,1.77,1.61,7.81,3.69,15.55,5.15,23.36Z"/>
      <path class="cls-16" d="M5.8,215.53c.81,1.86,1.61,3.7,2.58,5.48-1.02,1.15-2.27,2.45-2.9,3.87h-2.9l-2.58-6.12v-19.97c.6-.66.91.54.97.81,1.38,6.13,2.28,10.09,4.83,15.95Z"/>
      <path class="cls-52" d="M57.34,224.88h-11.92c-1.11-1.03-11.91-3.4-11.92-4.03,0-.06.47-.74.48-1.13,1.43-.74,5.67,2.25,4.99-.81,6.25.96,12.91,2.35,18.36,5.96Z"/>
      <path class="cls-16" d="M31.25,221.33c3.87,1.11,7.82,2.14,11.6,3.54h-6.12c-2.98-1.37-7.27-3.02-10.47-3.54-2.59-.43-5.17-.04-7.57-.32-1.8-.22-3.51-.78-5.32-.97-1.25-.93.52-1.17.48-2.26.29-.21.3-.31.32-.32.47-.28.88-.95,1.45-.97.82-.03,13.43,4.2,15.62,4.83Z"/>
      <path class="cls-8" d="M53.8,220.04c5.57,1.63,11.4,3.04,16.75,4.83h-11.28c-4.43-1.81-9.14-4.4-13.53-6.12v-.97c2.66.82,5.38,1.47,8.05,2.26Z"/>
      <path class="cls-21" d="M19.01,212.63c-.75.5-1.9,2.02-2.26,2.9-1.06.2-2.42.61-2.58,1.93-.02.01-.03.11-.32.32-1.38,1.01-1.63,1.99-2.58,3.22s-2.31,2.3-2.9,3.87h-2.9c.63-1.41,1.88-2.72,2.9-3.87.51-.57.86-1.17.97-1.29,1.07-1.2,2.68-2.68,3.87-3.87.43-.43.85-.86,1.29-1.29,1.46-1.42,2.98-2.84,4.51-4.19.25-.22.71-.42.97-.64,1.59-1.37,3.2-2.88,4.83-4.19.52-.42,1.09-.88,1.61-1.29.1-.08.54-.24.64-.32-1.27,3.45-5.71,5.75-8.05,8.7Z"/>
      <path class="cls-52" d="M36.72,224.88h-16.11l-1.13-2.26,3.06.48-3.87-2.09c2.4.29,4.98-.1,7.57.32,3.2.53,7.49,2.17,10.47,3.54Z"/>
      <path class="cls-38" d="M18.68,221.01l3.87,2.09-3.06-.48,1.13,2.26h-4.19l-5.15-3.87c.94-1.24,1.2-2.21,2.58-3.22.04,1.09-1.74,1.33-.48,2.26,1.81.19,3.51.75,5.32.97Z"/>
      <path class="cls-16" d="M16.43,224.88h-8.05c.59-1.57,1.93-2.6,2.9-3.87l5.15,3.87Z"/>
      <polygon class="cls-38" points="2.58 224.88 0 224.88 0 218.75 2.58 224.88"/>
      <path class="cls-38" d="M26.42,204.26c-.52.41-1.09.87-1.61,1.29-2.4-6.16-3.98-11.37-3.87-18.04.02-1.11.48-9.36.64-9.83.12-.34,1.72-1.39,2.26-1.29l.48,6.28c1.3-3.74-.92-7.79.48-11.6,1.05,11.01.65,22.16,1.61,33.18Z"/>
      <path class="cls-52" d="M39.3,167.53c-1.1-.18-2.04,1.94-2.26,2.74-1.04,3.84-.9,8.93-1.93,12.89-1.79.74-.31-1.06-1.13-1.45l-.81,2.9c-.33-2.76-.46-5.85-.64-9.02.84-.21.53-.81.64-1.29.96-4.03,4.86-18.96,6.77-21.74.1-.15,1.27-1.3,1.61-.97.21,5.41-1.51,10.66-2.26,15.95Z"/>
      <path class="cls-13" d="M33.18,174.3c-.11.48.2,1.08-.64,1.29-.1-1.62-.51-4.38-.97-5.96-.02,1.82.03,3.65,0,5.48,0,.42,0,.84,0,.97-.02.72.56,10.78-1.61,7.73-.37-.52.24-6.85.32-8.05-.82-.48-.56.18-.64.64-.27,1.49-.16,3.4-.32,4.99-.71-9.41-.65-20.62,4.51-28.51v1.93l-.64,19.49Z"/>
      <path class="cls-38" d="M32.54,175.59c.19,3.17.32,6.26.64,9.02.07.63-.08,1.31,0,1.93l-1.61,13.85c.14,1.82-1.35,2.05-2.26,3.22-.19.25-.31.3-.32.32-.68-.96.69-.87.97-1.93.63-2.4-1.1-5.66-1.29-8.21-.3-3.97.24-8.44.64-12.4.16-1.59.05-3.5.32-4.99.08-.46-.17-1.13.64-.64-.08,1.21-.69,7.53-.32,8.05,2.17,3.05,1.6-7.01,1.61-7.73,0-.13,0-.55,0-.97.03-1.82-.02-3.65,0-5.48.46,1.58.87,4.34.97,5.96Z"/>
      <path class="cls-52" d="M24.81,171.08c-1.4,3.81.82,7.86-.48,11.6l-.48-6.28c-.53-.1-2.13.95-2.26,1.29-.17.46-.63,8.72-.64,9.83.04-6.29-1.1-13.81-.64-19.97.06-.76.24-1.11.32-1.61.46-2.82-.36-4.23,3.54-3.38.02,2.86.37,5.7.64,8.54Z"/>
      <path class="cls-19" d="M57.34,169.14c-1.95,1.59-1.5,4.02-2.74,5.8l.81-7.57-1.61,1.13c2.34-7.55,5.9-14.7,10.79-20.94-2.31,7.27-5.21,14.2-7.25,21.58Z"/>
      <path class="cls-52" d="M70.55,173.98c.89-3.35,3.02-7.12,2.74-10.31-1.52.93-.8,2.55-3.06,2.58,1.97-5.74,6.82-11.66,11.76-15.14.42-.3,2.83-1.98,3.38-1.45-3.75,4.41-9.03,9.14-11.28,14.5-1.21,2.88-1.19,7.15-3.54,9.83Z"/>
      <path class="cls-18" d="M80.86,173.33c-1.8.13-2.85.05-3.87-.32,6.02-1,10.58-5.24,16.91-4.83.37.02,5.68.74,4.83,1.61-5.32,1.68-12.27,3.14-17.88,3.54Z"/>
      <path class="cls-19" d="M48.64,155.61c-1.14,5.86-1.91,11.83-2.9,17.72-.32-.13-1.24.88-1.29.97-1.23-3.26,3.36-7.94-.97-8.7.81-3.24,1.38-8,2.58-10.95l2.58.97Z"/>
      <path class="cls-52" d="M54.44,160.77c-.43-.74-.51-2.92-1.61-1.13s-3.28,10.48-3.87,13.05l-.64-1.61c1.64-8.22,4.11-17.15,9.99-23.36-1.89,4.15-2.77,8.61-3.87,13.05Z"/>
      <path class="cls-12" d="M58.63,171.08c-.62,3.16-.71,5.32-.64,8.54.01.63.92,1.86.64,2.9-.13.48-4.76,3.57-4.99,3.38-.25-.47-.22-1.25-.16-1.77.25-2.42,2.75-11.05,3.54-14.01l1.61.97Z"/>
      <path class="cls-16" d="M76.99,173.01c1.02.37,2.06.45,3.87.32l-.97,1.29c-1.02.18-2.68.46-3.38,1.29,3.67-.55,7.25.25,10.79.97.29,2.19-2.64-.26-2.58,1.61-5.13-1.46-8.89-2.28-14.34-1.61-.66-.33,4.78-4.14,5.32-4.51.22.36.9.5,1.29.64Z"/>
      <path class="cls-18" d="M48.97,172.69c-.35,1.52-.68,2.08-.32,3.7.46-1.17.66-1.23,1.93-1.45-.85,4.18-1,9.86-3.54,13.21.54-6.57-.14-9.91,1.29-17.07l.64,1.61Z"/>
      <path class="cls-52" d="M54.44,160.77c-.24.95-.42,1.95-.64,2.9-2.17,3.01-2.48,7.62-3.22,11.28-1.27.22-1.48.28-1.93,1.45-.36-1.62-.03-2.18.32-3.7.59-2.57,2.72-11.19,3.87-13.05s1.18.39,1.61,1.13Z"/>
      <path class="cls-52" d="M44.46,174.3c-.9,1.6-.77,3.71-.97,5.48h-.97s-.67.09-.64-.16c.21-1.95,2.81-6.88-.32-6.28.5-2.59,1.29-5.18,1.93-7.73,4.33.76-.26,5.43.97,8.7Z"/>
      <path class="cls-52" d="M92.13,178.16c-1.86-.21-3.31-.98-4.83-1.29-3.54-.71-7.12-1.51-10.79-.97.7-.83,2.36-1.11,3.38-1.29,4.68-.83,10.19.16,13.53,3.7-.39.32-.73-.1-1.29-.16Z"/>
      <path class="cls-38" d="M70.55,173.98c-.03.1.02.22,0,.32-1.17-.42-.6-.04-1.45.32.03-.51-.47-1.74-.48-1.93-.14-1.71,1.03-4.76,1.61-6.44,2.26-.03,1.54-1.65,3.06-2.58.28,3.19-1.85,6.96-2.74,10.31Z"/>
      <path class="cls-12" d="M65.72,178.16c-.34.2-.82.67-1.13.97-1.65-.23,3.84-11.07,4.35-12.24.18,1.88-.64,4.08-.97,5.96-.49,2.86,1.79,2.94-2.26,5.32Z"/>
      <path class="cls-12" d="M92.13,178.16c.01,1.75.62,1.68-.97,2.58-2.11-1.29-4.16-1.61-6.44-2.26-.06-1.87,2.87.58,2.58-1.61,1.52.31,2.97,1.08,4.83,1.29Z"/>
      <path class="cls-38" d="M54.76,197.49c-.93,1.64,1.87,2.15,2.9,2.58,3.01,1.25,11.75,4.44,13.85,4.83l-17.4-3.22c-.64-.2-1.3-.47-1.93-.64-2.47-1.48-5.78-2.79-8.7-3.87l-1.93-1.45.32-.48c4.4.33,8.6,1.3,12.89,2.26Z"/>
      <path class="cls-52" d="M59.92,208.45c.11-.56-.43-.71-.32-1.29.05-.26.57-1.21.81-1.29.9.33,8.18,3.04,8.21,1.77l-11.6-4.99c7.62,2.48,15.07,5.93,22.71,8.38.34.11.88-1.44,2.09.48-7.38.6-14.83-1.17-21.91-3.06Z"/>
      <path class="cls-38" d="M44.78,199.1c-.33,1.17.99,1.78,1.77,2.26,3.75,2.27,9.04,3.86,13.05,5.8-.11.57.44.73.32,1.29-7.82-2.09-15.41-5.41-22.87-8.38.04-.31-.07-.71,0-.97,2.48.19,5.31-.26,7.73,0Z"/>
      <path class="cls-18" d="M52.19,201.04c.63.18,1.29.45,1.93.64.97.29,1.94.65,2.9.97l11.6,4.99c-.03,1.27-7.32-1.44-8.21-1.77-.24.08-.76,1.02-.81,1.29-4.01-1.94-9.3-3.53-13.05-5.8-.78-.47-2.1-1.08-1.77-2.26,2.44.26,5.03,1.27,7.41,1.93Z"/>
      <path class="cls-19" d="M44.13,206.51c.29.05,3.05,1.78,3.7,1.93.54.12.91-.66.97-.64,2.96.73,7.25,2.07,10.15,3.54.05.02-.14.48.16.64,1.49.82,6.1,1.61,3.06,2.58-1.67-.42-3.77-.57-5.15-.97.07-.29-1.05-1.26-1.13-1.29-1.62-.66-12.79-4.27-13.21-4.83-.23-.31-.8-.51-.32-.97.57.06,1.24-.09,1.77,0Z"/>
      <path class="cls-52" d="M61.85,211.02c6.01,2.25,11.84,5.13,18.04,6.93-6.09-.13-11.9-1.93-17.72-3.38,3.04-.97-1.57-1.76-3.06-2.58-.3-.17-.11-.62-.16-.64l2.9-.32Z"/>
      <path class="cls-52" d="M78.28,202.97l-1.61,2.26c-1.65-.06-2.84-.04-4.51-.32,2.31-1.2-4.67-3.22-5.64-3.54-.92-.3-7.24-2.2-7.73-2.26-.93-.11-1.28-.11-1.13.97-1.03-.43-3.83-.94-2.9-2.58,7.85,1.75,15.61,3.86,23.52,5.48Z"/>
      <path class="cls-52" d="M57.99,209.09c1.42.52,2.74,1.51,3.87,1.93l-2.9.32c-2.9-1.47-7.19-2.81-10.15-3.54-.06-.01-.43.77-.97.64-.66-.15-3.41-1.88-3.7-1.93.42-.71.83-1.27,1.77-1.29,1.13-.02,9.45,3.52,11.28,4.19.76.28.76-.34.81-.32Z"/>
      <path class="cls-52" d="M72.16,204.9c-.2-.03-.44.04-.64,0-2.1-.39-10.84-3.58-13.85-4.83-.15-1.08.19-1.07,1.13-.97.49.06,6.81,1.95,7.73,2.26.97.32,7.95,2.34,5.64,3.54Z"/>
      <path class="cls-52" d="M83.76,204.26s-.09.52-.64.64c-2.08.45-4.33.4-6.44.32l1.61-2.26c1.84.38,3.76.44,5.48,1.29Z"/>
      <path class="cls-16" d="M20.3,167.53c-.46,6.16.68,13.68.64,19.97-.11,6.67,1.47,11.88,3.87,18.04-1.64,1.31-3.24,2.81-4.83,4.19-.94-6.54-2.18-13.07-2.9-19.65-.14-1.27-.21-2.59-.32-3.87-.18-2.11-.05-4.38-.64-6.44,4.23-1.45,2.6-11.04.97-14.17,2.1-1.61,1.77.89,3.22,1.93Z"/>
      <path class="cls-52" d="M7.41,175.27c2.19,2.01,1.95,2,2.58,4.51.17.69.21,1.27.32,1.93l-.81,2.26-1.93-2.58c.08.97-.16,1.96-.16,2.9l-1.29,1.29c-.07-3.43-.17-6.95.64-10.31.06.06.58-.06.64,0Z"/>
      <path class="cls-38" d="M11.6,193.63c.84,6.48,1.47,11.62,1.93,18.2.03.36.25,2.88.97,2.74-.44.43-.86.86-1.29,1.29-5.06-10.05-6.85-19.01-7.09-30.28l1.29-1.29c0,1.96.06,6.13.32,7.89.49,3.35,2.8,9.21,1.77,1.45,1.58,3.81,1.92,5.52,2.09,0Z"/>
      <path class="cls-38" d="M6.12,201.36c1.09,5.8,1.23,11.72,2.26,17.23.09.47.31,1.29.97,1.13-.11.12-.46.71-.97,1.29-.97-1.78-1.77-3.62-2.58-5.48,1.13-.41.85-.46.64-1.45-.39-1.88-2.13-6.18-2.26-8.05-.14-2.15.89-1.81.97-2.9.03-.39-1.77-4.41-1.61-4.83,2.38-1.88.75,2.7,2.58,3.06Z"/>
      <path class="cls-38" d="M23.52,215.21c-.4,1.95,2.07.81,2.74.97.49.11,4.72,1.7,4.83,1.93l-.64.97-1.77-.16,4.35,1.45-1.77.97c-2.2-.63-14.81-4.86-15.62-4.83-.57.02-.98.69-1.45.97.16-1.32,1.52-1.73,2.58-1.93,1.33-.25,5.22-.32,6.77-.32Z"/>
      <path class="cls-16" d="M30.93,208.77c1.13.78,2.81,1.12,3.87,2.09-1.59.02-3.28.39-4.83.48-.83.05-8.01.26-8.05-.48.97-.29,4.32-4.31,4.67-4.35.33-.04,3.59,2.1,4.35,2.26Z"/>
      <path class="cls-16" d="M23.52,215.21c-1.55,0-5.43.07-6.77.32.36-.88,1.51-2.4,2.26-2.9.42-.28,1.61-.97,2.09-.97.63,0,12.15,4.2,11.6,4.51-3.01-.61-6.09-.96-9.18-.97Z"/>
      <path class="cls-18" d="M39.62,213.6l-.32,1.61c-.38-.1-2.44-.63-2.58-.64l-4.67-.32,1.77-2.26c1.6.27,5.89.27,5.8,1.61Z"/>
      <path class="cls-19" d="M36.72,214.57c.13.01,2.2.55,2.58.64,2.15.56,4.26,1.91,6.44,2.58v.97c-2.55-1-6.05-1.74-8.21-2.58-.27-.11-.05-.54-.32-.64-.15-.06-1.42.99-2.42-.81.2-.26,1.52-.2,1.93-.16Z"/>
      <path class="cls-19" d="M53.8,220.04c-2.67-.78-5.39-1.44-8.05-2.26-2.18-.67-4.29-2.02-6.44-2.58l.32-1.61c9.45,1.14,19.4,4.63,28.03,8.54-.51-.06-2.29.49-2.42.48-1.73-.1-7.73-2.94-10.15-3.06-.3-.02-1.25.1-1.29.48Z"/>
      <path class="cls-16" d="M12.89,179.45c-1.43,4.17-.55,9.24,0,13.53.86,6.73,2.25,11.76,6.12,17.4-1.53,1.35-3.05,2.77-4.51,4.19-.72.15-.94-2.38-.97-2.74-.47-6.58-1.09-11.72-1.93-18.2-.51-3.95-.62-8-1.29-11.92-.11-.66-.15-1.24-.32-1.93,1.34-.73,1.69-.39,2.9-.32Z"/>
      <path class="cls-18" d="M19.97,209.73c-.25.22-.72.42-.97.64-3.87-5.64-5.26-10.67-6.12-17.4,1.49-1.74,1.65,5.29,2.42,5.15.29-.93-.02-1.98-.16-2.9,1.11-1.57,1.42-3.41,1.93-5.15.72,6.58,1.96,13.11,2.9,19.65Z"/>
      <path class="cls-16" d="M33.18,186.54c.16,1.26.13,2.79.32,4.03.74,4.7,4.36,7.18-1.93,9.83l1.61-13.85Z"/>
      <path class="cls-16" d="M43.49,197.17c2.92,1.08,6.22,2.39,8.7,3.87-2.38-.66-4.97-1.67-7.41-1.93s-5.26.19-7.73,0c.13-.46,3.15-3.18,3.38-3.22.78-.12,2.24.99,3.06,1.29Z"/>
      <g>
        <path class="cls-18" d="M64.75,164.96c-2.15,5.56-5.7,10.76-5.32,17.07,5.76-1.71,3.34-5.46,4.03-9.83.38-2.4,1.65-5.01,2.58-7.25,2.04-4.92,6.35-12.05,11.6-13.85-4.22,4.48-6.27,10.23-8.7,15.79-.51,1.17-5.99,12.01-4.35,12.24.31-.3.79-.77,1.13-.97,3.01.17,3.28-3.17,2.9-5.48.02.19.52,1.42.48,1.93.85-.36.28-.74,1.45-.32-.11.53-1.1.83-.48,1.61,4.64-2.21,2.85-4.86,4.03-8.54,2.4-7.5,11.24-14.6,19.01-15.79-7.74,6.05-14.48,11.84-18.68,20.94,3.28-1.83,5.1-5.24,7.89-7.57,5.17-4.31,13.75-8.87,20.3-5.8-3.86-.14-7.29,1.9-10.79,3.22,1.17-.83,2.21-1.79,3.54-2.42-.43-1.23-9.27,4.33-9.34,5.96-3.31,2.13-7.13,4.25-10.31,6.44-.53.37-5.98,4.18-5.32,4.51,5.45-.67,9.21.15,14.34,1.61,2.28.65,4.33.97,6.44,2.26.64.39,1.21.87,1.93,1.13l-2.9.32,2.09,1.77c-1.66-.23-3.33-.42-4.99-.64l2.58-.81c-.02-1.32-12.17-2.12-12.56-1.61-1.21,1.56,3.99.8,4.67,1.13.27.13-.56.99,0,1.29.13.07.77-.77,2.42-.64-.87.52,0,1.09.48,1.29,1.96.79,5.86.62,6.93,2.9-2.27-.23-4.95-1.42-7.57-1.61-3.54-.26-7.25.06-10.79.16,5.17,1.1,10.84,1.67,14.98,5.32-9.45-3.7-18.91-2.75-28.67-3.22-3.36-.16-4.49-2.74-8.21,1.13-.23,1.97,12.9.46,14.01.48,7.8.14,15.9.8,22.23,5.8-5.3-.91-10.76-2.04-16.11-2.58-5.88-.59-11.93.07-17.72-1.29-.68-.16-3.03-1.92-3.22-1.93-.28-.01-4.67,2.78-4.67,3.06-.01,1.43,7.96.39,9.5.48,9.24.58,20.72,2.07,28.67,6.77-7.44.39-14.65-1.7-21.91-2.9-4.39-.73-8.31-.4-12.89-1.61-3.25-.86-4.37-4.07-7.57.32l-.32.48,1.93,1.45c-.82-.3-2.28-1.41-3.06-1.29-.24.04-3.25,2.76-3.38,3.22-.07.25.04.66,0,.97-.47-.19-1.04-.97-1.13-.97-.44,0-3.16,2.78-3.87,3.22l.32.64c9.11-.97,17.37,3.03,25.61,6.12-.04-.01-.04.6-.81.32-1.83-.66-10.14-4.21-11.28-4.19-.94.02-1.35.58-1.77,1.29-.54-.09-1.21.06-1.77,0-.47.45.09.66.32.97.42.57,11.59,4.18,13.21,4.83.08.03,1.2,1,1.13,1.29-6.09-1.74-13.58-4.66-19.49-7.09-1.21-.5-6.08-3.47-6.44-3.54-.09-.02-1.34.76-1.77.64.9-1.17,2.39-1.4,2.26-3.22,6.29-2.65,2.68-5.12,1.93-9.83-.19-1.23-.16-2.77-.32-4.03-.08-.62.07-1.31,0-1.93l.81-2.9c.82.39-.66,2.19,1.13,1.45,1.03-3.95.9-9.04,1.93-12.89.21-.79,1.15-2.91,2.26-2.74-.42,3.02-1.32,6.11-1.61,9.18-.62,6.47.52,13.25-1.29,19.65l.64.32c.5-.56,3.39-2.14,3.54-2.58.19-.54-1.12-9.07-.97-11.28.18-2.55,1.41-6.76,1.93-9.5,3.13-.6.53,4.33.32,6.28-.03.25.65.13.64.16-.37,3.62-1.85,7.52-.48,11.28.43-2.38,1.5-5.22,1.77-7.57.13-1.14-.47-2.32-.32-3.7.19-1.77.07-3.88.97-5.48.05-.09.97-1.1,1.29-.97-1.09,6.53-1.67,13.22-3.87,19.49.37.7,5.34-2.9,5.48-3.22.07-.17-.38-.79-.32-1.45,2.54-3.35,2.69-9.03,3.54-13.21.75-3.66,1.06-8.27,3.22-11.28-1.46,6.23-2.62,12.41-3.87,18.68-.46,2.34-1.23,4.57-1.61,6.93.91-.7,3.89-1.81,3.87-3.06-1.01-5.05-.7-11.95.64-16.91.24-.87.95-.75.97-.81l1.61-1.13-.81,7.57c1.24-1.78.79-4.21,2.74-5.8-.11.39-.24.67-.32.97-.79,2.97-3.29,11.6-3.54,14.01-.05.52-.09,1.31.16,1.77.24.19,4.87-2.9,4.99-3.38.27-1.03-.63-2.27-.64-2.9-.06-3.21.02-5.38.64-8.54,1.39-7.06,5.91-14.77,10.95-19.81.15-.15.96-1.27.97-.32-2.26,4.52-3.98,9.31-5.8,14.01Z"/>
        <g>
          <path class="cls-12" d="M66.04,164.96c-.93,2.24-2.2,4.85-2.58,7.25-.69,4.36,1.73,8.11-4.03,9.83-.39-6.32,3.16-11.52,5.32-17.07h1.29Z"/>
          <path class="cls-19" d="M87.3,183.32c-.8-.11-2.22-.59-2.9-.64-1.65-.13-2.29.71-2.42.64-.56-.3.27-1.16,0-1.29-.68-.32-5.88.43-4.67-1.13.39-.51,12.54.29,12.56,1.61l-2.58.81Z"/>
          <path class="cls-12" d="M52.19,186.22c.03,1.25-2.95,2.36-3.87,3.06.38-2.35,1.15-4.59,1.61-6.93,1.69-.37,1.47,2.59,1.61,3.7.03.27.64.13.64.16Z"/>
          <path class="cls-2" d="M91.81,162.38c-1.9,1.35-3.87,2.31-5.8,3.54.07-1.63,8.91-7.19,9.34-5.96-1.33.62-2.38,1.58-3.54,2.42Z"/>
          <path class="cls-19" d="M64.27,189.76c5.42-.24,11.68-.06,16.59,2.42l-23.36-1.13c-.35-.65-.34-.74.32-.97.31-.1,5.48-.28,6.44-.32Z"/>
          <path class="cls-16" d="M67.65,184.93c-2.35.18-4.69.82-7.09.97-1.4.09-2.78.85-4.19-.16,3.66-4.52,5.61-1.94,10.15-1.77s8.83-.35,13.21.32c-3.99.52-8.06.33-12.08.64Z"/>
          <path class="cls-19" d="M59.11,193.95c1.1-.69,18,2.48,17.88,3.38-1.42.98-2.27-.14-2.42-.16-3.93-.45-11.04-1.01-14.17-2.26-.12-.05-3.38.35-1.29-.97Z"/>
          <path class="cls-48" d="M64.59,160.12c.28.06.83-.09.97,0,.71.51-3.66,8.96-4.19,10.31-3.27-2.56,1.72-7.58,3.22-10.31Z"/>
          <path class="cls-16" d="M66.52,178.81c.27-.03,4.55,1.29,5.15,1.61-.77.13-10.21,3.05-10.15,1.77,1.09-.2,4.39-3.32,4.99-3.38Z"/>
          <path class="cls-18" d="M43.49,179.78c-.15,1.39.45,2.56.32,3.7-.27,2.35-1.35,5.19-1.77,7.57-1.36-3.75.11-7.66.48-11.28h.97Z"/>
          <path class="cls-38" d="M60.56,185.9c2.4-.15,4.74-.78,7.09-.97,2.99,3.41-4.81,1.95-6.93,2.26l-.16-1.29Z"/>
          <path class="cls-12" d="M68.78,177.52c.81-.26,3.34.07,4.35.16l-4.67.48c-.32-.16.23-.61.32-.64Z"/>
        </g>
      </g>
      <g>
        <path class="cls-16" d="M91.81,186.86c.73.07.98-.29,1.61-.32-.26.99-.66,1.29.16,2.26.21.25,5.16,3.47,5.48,3.54.26.06,2.22-.92,2.74,0-.41.05-2.51.44-2.58.81l2.26,1.77c-.38-.05-1.49-.18-1.61.32-.56-.08-4.46-.41-4.67-.32l-.16,2.26c-1.57.06-1.67.61-1.93.64-3.74.5-7.92.63-7.41,5.8-.67.16-1.29.51-1.93.64-1.72-.85-3.64-.91-5.48-1.29-7.91-1.62-15.66-3.73-23.52-5.48-4.28-.95-8.49-1.92-12.89-2.26,3.2-4.39,4.32-1.18,7.57-.32,4.57,1.21,8.5.89,12.89,1.61,7.25,1.2,14.47,3.29,21.91,2.9-7.95-4.7-19.44-6.18-28.67-6.77-1.54-.1-9.51.95-9.5-.48,0-.28,4.39-3.07,4.67-3.06.19,0,2.54,1.77,3.22,1.93,5.79,1.36,11.83.7,17.72,1.29,5.35.54,10.81,1.67,16.11,2.58-6.33-5-14.43-5.66-22.23-5.8-1.11-.02-14.25,1.49-14.01-.48,3.72-3.87,4.85-1.29,8.21-1.13,9.76.47,19.23-.48,28.67,3.22-4.14-3.65-9.81-4.22-14.98-5.32,3.55-.1,7.25-.42,10.79-.16,2.62.19,5.3,1.38,7.57,1.61Z"/>
        <path class="cls-55" d="M83.92,201.04c.76.09.2,1.44-.32.64-.21-.32.29-.65.32-.64Z"/>
      </g>
      <path class="cls-52" d="M16.11,179.78c.6,2.06.47,4.33.64,6.44l-.81,1.29-1.29-.97c-1,2.85.03,5.83.48,8.7.14.92.45,1.97.16,2.9-.76.13-.93-6.89-2.42-5.15-.55-4.29-1.43-9.36,0-13.53.77.04,2.27.65,3.22.32Z"/>
      <path class="cls-52" d="M17.07,190.08c-.52,1.74-.83,3.58-1.93,5.15-.45-2.87-1.48-5.85-.48-8.7l1.29.97.81-1.29c.11,1.28.18,2.59.32,3.87Z"/>
      <path class="cls-18" d="M10.31,181.71c.67,3.92.77,7.97,1.29,11.92-.18,5.52-.52,3.81-2.09,0,1.03,7.76-1.28,1.9-1.77-1.45-.26-1.76-.32-5.94-.32-7.89,0-.94.24-1.93.16-2.9l1.93,2.58.81-2.26Z"/>
    </g>
    <g>
      <g>
        <path class="cls-35" d="M17.07,143.69c.01.18-1.8,2.15-.48,3.22.31.26,6.01-1.11,8.05-.97,2.44.17,5.77,1.33,7.57,3.06-5.17-2.07-9.52-2.47-14.82-.81-4.39,1.38-4.87,2.97-8.05,5.64-.5.42-.91,1.03-.97-.16,2.5-2.03,4.76-4.68,7.41-6.6-3.07,2.44-3.06,1.02-5.64.81-1.12-.09-2.55.8-2.9.64s-.45-1.51-.64-1.61c-1.53-.8-3.22,1.73-3.87-1.29-.87,3.18,1.98,6.7,3.38,9.34-2.19-.56-3.82-6.35-4.83-8.21-.39-.72-.42-1.09-1.29-.48v-5.48c1.45-1.64,1.65-4.24,2.9-6.12.81-1.22,1.97-2.12,3.22-2.9,1.68-1.05,4.65-2.43,6.6-1.93,2.45.62,1.61,4.45,2.09,6.28.6,2.26,2.1,5.33,2.26,7.57Z"/>
        <path class="cls-1" d="M8.38,153.68c-.63.51-1.24,1-1.77,1.61-.54.13-.46-.31-.48-.32-1.41-2.65-4.25-6.16-3.38-9.34.65,3.02,2.34.49,3.87,1.29.19.1.31,1.46.64,1.61s1.78-.74,2.9-.64c2.58.22,2.57,1.64,5.64-.81-2.65,1.93-4.91,4.58-7.41,6.6Z"/>
        <path class="cls-6" d="M17.07,165.6c1.64,3.13,3.26,12.73-.97,14.17-.95.33-2.45-.28-3.22-.32-1.21-.06-1.56-.41-2.9.32-.63-2.51-.39-2.5-2.58-4.51.64-1.74-3.52-9.54-1.45-10.31,3.32,2.59,2.6.77,4.83.32,3.83-.77,4.77-1.24,4.67,2.74,4.27,1.7-2.98-6.51-.48-5.64.65,1.08,1.51,2.1,2.09,3.22Z"/>
        <g>
          <path class="cls-1" d="M6.12,154.97s-.06.45.48.32c.53-.62,1.14-1.1,1.77-1.61.06,1.19.47.58.97.16,3.18-2.66,3.67-4.26,8.05-5.64,3.62,1.23-3.81,2.54-4.19,3.7-.38,2.14,1.59,1.07,2.26,1.61.14.11,1.6,3.04,1.61,3.22.25,2.95-3.17,2.11-2.58,3.54,1.79,1.13,3.83,1.46,5.96,1.45.55,1.16-1.66.26-1.77,1.13-.02.18,2,2.09,1.93,3.06-.08.51-.27.85-.32,1.61-1.45-1.04-1.12-3.54-3.22-1.93-.58-1.12-1.44-2.14-2.09-3.22-2.49-.88,4.75,7.33.48,5.64.1-3.98-.85-3.5-4.67-2.74-2.23.45-1.52,2.27-4.83-.32-2.07.77,2.09,8.56,1.45,10.31-.07-.06-.58.06-.64,0-1.77-1.71-3.37-2.96-4.35-5.48l-2.42,2.9v-5.8l6.12-9.18-6.12,7.57v-8.7l4.83.16c.17-.65-4.05-1.43-4.83-1.13v-9.34c.86-.61.9-.24,1.29.48,1.01,1.87,2.65,7.66,4.83,8.21Z"/>
          <polygon class="cls-35" points="0 166.89 0 165.28 6.12 157.71 0 166.89"/>
          <path class="cls-16" d="M0,156.58v-.97c.79-.3,5.01.48,4.83,1.13l-4.83-.16Z"/>
          <path class="cls-37" d="M7.25,156.26c2.45,1.67,5.33,3.02,6.93,5.64l-6.28-4.35-.64-1.29Z"/>
        </g>
      </g>
      <g>
        <g>
          <path class="cls-18" d="M3.54,87.96c-1.43,3.81-2.91,12.33-2.26,16.27.07.4.58,1.41.64,1.93.96.77,1.16-6.4,1.29-7.09.1-.52.88-1.62.97-2.09,1.28-.37,5.24-3.58,6.12-.97.03.09-.02.22,0,.32-1.15,1.3-2.94,10.27-3.54,10.79-.82.72-5.71,1.62-6.77,1.77v-21.91c1.48.1,2.76-.52,3.54.97Z"/>
          <path class="cls-33" d="M9.99,77.65c-.44,1.09-3.33,3.8-4.19,5.32-.77,1.37-1.7,3.51-2.26,4.99-.78-1.48-2.07-.86-3.54-.97v-11.28c3.12-1.47,7.35-1.38,10.31.48.15.65-.12.95-.32,1.45Z"/>
          <path class="cls-49" d="M6.12,131.78c-1.25.77-2.41,1.68-3.22,2.9.03-2.06-1.27-1.3-2.9-.97v-6.12c1.5.81,6.73,1.94,6.12,4.19Z"/>
          <path class="cls-52" d="M2.9,134.67c-1.25,1.88-1.45,4.48-2.9,6.12v-7.09c1.62-.33,2.93-1.09,2.9.97Z"/>
          <path class="cls-3" d="M0,118.89v-2.9c2.23.78,2.6,2.4,0,2.9Z"/>
          <path class="cls-18" d="M30.93,83.45c-3.33,1.51-5.16,11.99-7.09,15.14-2.93,1.41-5.67,3.1-8.7,4.51-1.57-5.55,3.22-10.27,5.15-14.82.8-1.88,1.34-1.81.64-4.19,2.16-1.09,1.15-3.87,1.93-5.8,2.47.96,6.71,2.98,8.05,5.15Z"/>
          <path class="cls-52" d="M22.87,78.3c-.78,1.93.23,4.71-1.93,5.8-.11-.38-1.6-2.12-1.77-2.9-1.72.57-1.33,2.67-3.38,2.09l-5.48,12.72c-.88-2.62-4.84.6-6.12.97,1.55-8.42,1.32-11.39,6.77-18.68,3.02-4.04,7.72-1.64,11.92,0Z"/>
          <path class="cls-38" d="M41.88,89.9c.35.45-1.65,1.56-1.77,1.61-5.24,2.34-11.01,4.55-16.27,7.09,1.92-3.15,3.75-13.63,7.09-15.14.53-.24.92-.19,1.45,0,.69.25,8.42,5.61,9.5,6.44Z"/>
          <path class="cls-16" d="M41.23,111.48c-.86-.22-.58.59-.64.64-5.44,4.71-10.87,6.05-18.04,5.15-3.9-.49-9.19-2.12-11.44-5.15,4.38-.18,8.82-.72,13.21-.64s12.26,2.83,15.95-.97c-.01,1.31.7-.47.97.97Z"/>
          <path class="cls-6" d="M10.95,78.3c-5.45,7.29-5.21,10.27-6.77,18.68-.09.48-.87,1.57-.97,2.09-.13.69-.33,7.85-1.29,7.09-.06-.53-.58-1.53-.64-1.93-.65-3.94.82-12.46,2.26-16.27.56-1.49,1.48-3.62,2.26-4.99.86-1.52,3.75-4.22,4.19-5.32l.97.64Z"/>
          <path class="cls-52" d="M41.23,111.48c1.11,6.04-2.13,11.95-7.73,14.17l-1.61-.16c.59-.32.49-.74.64-1.13.25-.62,2.31-4.26,2.74-4.51.46-.26,1.59.15,2.26-.32,2.55-1.81,3.88-4.35,3.06-7.41.07-.06-.22-.86.64-.64Z"/>
          <path class="cls-18" d="M32.54,124.37c-2.95-1.7-6.04-3.58-8.86-5.48-.64-.43-1.35-.56-1.13-1.61,7.17.89,12.6-.45,18.04-5.15.81,3.06-.52,5.6-3.06,7.41-.67.47-1.8.06-2.26.32-.43.25-2.49,3.89-2.74,4.51Z"/>
          <g>
            <path class="cls-18" d="M40.27,110.51c-3.69,3.8-11.49,1.04-15.95.97s-8.83.47-13.21.64c2.24,3.03,7.53,4.67,11.44,5.15-.22,1.05.48,1.18,1.13,1.61,2.82,1.89,5.91,3.78,8.86,5.48-.15.38-.05.81-.64,1.13l1.61.16c-12.14,4.83-17.17-2.8-25.93-3.87-7.36-.9,4.02,6.17,6.44,6.77,2.84.7,16.54.19,16.91,1.13,1.38,3.43-10.09,13.77-13.85,14.01-.15-2.24-1.66-5.31-2.26-7.57-.48-1.83.36-5.66-2.09-6.28-1.96-.49-4.92.89-6.6,1.93.61-2.25-4.62-3.38-6.12-4.19v-6.12c4.22.12,2.77-4.14,3.7-6.77l3.7.48c-2.42-1.21-5.12-2-7.41-1.77v-2.58l43.49-19.97c.27.51-.52,3.27-.64,3.38-.37.34-1.65,0-2.42.48-8.45,5.43-3.71,9.06,2.09,2.74.69,3.54.34,10.38-2.26,13.05Z"/>
            <path class="cls-19" d="M43.49,90.86L0,110.84v-1.93c1.06-.15,5.94-1.06,6.77-1.77.6-.53,2.39-9.49,3.54-10.79.61-.28.92.3.97.32-2.29,2.35-1.74,6.71-3.54,9.5.48.66.52.31,1.13.16.5-.12,5.34-2.78,6.28-3.22,3.03-1.41,5.76-3.1,8.7-4.51,5.26-2.53,11.03-4.74,16.27-7.09.12-.05,2.12-1.16,1.77-1.61.33.25,1.11,0,1.61.97Z"/>
            <path class="cls-38" d="M0,121.47v-2.58c2.6-.5,2.23-2.12,0-2.9v-2.58c2.29-.22,4.99.56,7.41,1.77l-3.7-.48c-.93,2.62.52,6.88-3.7,6.77Z"/>
            <path class="cls-38" d="M15.3,106c.87.02,2.87,3.45,3.87,3.87,1.93.8,4.25-.41,5.64,1.13-4.37.49-9.37-.06-13.69.48-.4.05-.89,1.27-.97,1.29-.33.07-2.59-1.35-1.93-2.58.19-.36,6.68-4.2,7.09-4.19Z"/>
            <path class="cls-40" d="M27.54,101.49c10.26-1.77,4.85,8.65-2.74,3.06-.47-1.55,1.33-2.82,2.74-3.06Z"/>
          </g>
          <path class="cls-52" d="M20.94,84.1c.7,2.38.16,2.31-.64,4.19-1.57-.79-5.85,2.17-6.44,3.38-.67,1.37-.19,6.02-2.58,4.99-.05-.02-.36-.6-.97-.32-.02-.1.03-.23,0-.32l5.48-12.72c2.06.57,1.67-1.53,3.38-2.09.17.78,1.66,2.52,1.77,2.9Z"/>
          <path class="cls-18" d="M20.3,88.29c-1.94,4.55-6.72,9.27-5.15,14.82-.94.44-5.78,3.1-6.28,3.22-.6.15-.65.5-1.13-.16,1.81-2.8,1.26-7.15,3.54-9.5,2.39,1.03,1.91-3.62,2.58-4.99.59-1.21,4.87-4.17,6.44-3.38Z"/>
        </g>
        <g>
          <path class="cls-50" d="M5.48,52.53c.58.98,3.47,3.61,1.29,3.87-.17-.64-.73-1.72-1.61-1.13.41,1.94-.48,3.04-.97,4.67-.13.43-.81.99-.97,1.45-.68,2.01.62,5.41-3.22,6.6v-4.19l.97-7.09c-.73-1.58.3-3.04.32-3.22l.97,4.99c2.21-.51.3-6.04.64-7.09.16-.49.99.65.97-1.45.91-.1.72,1.1,1.61,2.58Z"/>
          <path class="cls-30" d="M3.22,28.69v.32c-2.91,1.94-1.04,2.67-.97,3.7,0,.1-.66.55-.64.64.05.27.64.13.64.16.14.49-.42,1.58.16,2.26,2.59-.28,4.65.28,6.93,1.45l-1.93,4.35c-.43-.57-2.23-2.04-2.9-2.58-.59-.48-2.32-2.36-2.26-.97-.17-.06-.99-.26-1.29-.32s-.66.04-.97,0v-8.05c.84-.66,2.6-.65,3.22-.97Z"/>
          <path class="cls-50" d="M3.87,28.04c-.08.06-.6.62-.64.64-.62.32-2.38.31-3.22.97v-5.15c1.91-1.27,3.75-5.45,5.48-6.44.06-.03.63.57,1.29-.32-1.37,3.41-3.28,6.43-2.9,10.31Z"/>
          <path class="cls-50" d="M4.51,6.78c.27,1.02.83,2.17.97,3.22.34,2.57.57,5.5,0,8.05-1.73.99-3.56,5.17-5.48,6.44v-1.93c5.18-4.94,2.96-9.48,3.54-15.46.23-.2.63-.38.97-.32Z"/>
          <path class="cls-9" d="M.97,37.71c-.93,4.15,1.37,7.35,2.58,10.95-3.54.09-1.94,2.19-2.26,4.83-.02.19-1.05,1.64-.32,3.22l-.97.32v-19.33c.31.04.67-.07.97,0Z"/>
          <path class="cls-15" d="M0,22.57v-1.61c2.45-2.11,2.81-5.49,2.09-8.38l-1.45,4.03c.26-1.82.54-3.81.32-5.64,1.54-.54.82-2.36,2.58-3.87-.58,5.99,1.63,10.52-3.54,15.46Z"/>
          <path class="cls-50" d="M.97,10.97c.21,1.83-.06,3.82-.32,5.64l1.45-4.03c.71,2.88.35,6.26-2.09,8.38v-9.34c.89.12.6-.38.64-.97.28-.03.29.08.32.32Z"/>
          <polygon class="cls-59" points=".97 56.72 0 63.8 0 57.04 .97 56.72"/>
          <path class="cls-34" d="M.64,6.14c-.08,1.49.11,3.03,0,4.51-.04.58.24,1.08-.64.97v-5.48h.64Z"/>
          <path class="cls-50" d="M12.24,43.51c.26.59,1.93,2.51,1.93,3.06,0,.14-.98,1.63-.97,2.58,0,.17,1.22,2.61,1.29,3.06,1.13,7.31.35,11.88-1.61,19.01-1.38-.62-3.05-.72-4.19-2.09-1.93-2.34-.75-5-1.29-6.12-.19-.39-3.51-.85-2.58-3.06.14-.06,1.88-2.07,1.93-2.26,3.46-.14,2.85.96,3.22,3.7.8-1.38.55-3.91.97-5.15.11-.34,1.14.4,1.61-1.29.11-.39.55-6.67-.97-6.28.02-1.98-1.7-4.71.64-5.15Z"/>
          <path class="cls-50" d="M19.33,54.14c2.07,2.73.54,14.72,1.77,14.82l1.29-4.51,2.09,3.22c-3.52,3.49-2.96,2.76-7.57,3.87-.84.2-1.82,1.28-1.93,1.29-1.04.05-.74-1.25-.81-1.29,2.55-4.37,3.14-9.2,2.58-14.17,1.34-.89,1.62-2.1,1.61-3.7,1.16-.63.8.27.97.48Z"/>
          <path class="cls-50" d="M26.42,47.7c3.62,6.68,4.01,12.41-.64,18.68-.52-3.28-1.53-6.34-2.9-9.34,3.24-1.48.92-2.28.97-2.74.06-.64.49-2.45.64-3.38.03-.2,1.63-.67.64-3.22,0-1.3.42.09,1.29,0Z"/>
          <path class="cls-54" d="M25.77,27.72c-.94,2.65-1.76,1.27-2.74,1.61-2.15.74-4.31,1.48-6.44,2.26l.32.64c.74.21,1.09-.27,1.45-.32v1.29c-1.21-.04-5.04-.58-4.83-2.09.1-.74,2.35-.43,1.93-1.77.67-.09,7.72-2.13,6.28-2.9-1.09-.18-2.07.44-3.06.64v-.97c1.34-.31,2.79-.48,3.87-1.45h-3.87c.43-.29,2.43-2.03,2.58-2.09,4.43-1.94,5.88,1.3,4.51,5.15Z"/>
          <path class="cls-43" d="M22.87,57.04c1.37,3,2.38,6.06,2.9,9.34-.8,1.07-.76.76-1.29,1.29l-2.09-3.22-1.29,4.51c-1.23-.1.3-12.09-1.77-14.82l.64-1.93c.84,1.53,2.22,3.34,2.9,4.83Z"/>
          <path class="cls-15" d="M34.15,40.61l-1.29,1.45.81.16c.13-.75.68-.52.81-.97,1.24-.42,1.47.4,1.93.64-.43,1.55-1.98.32-2.26.81-.63,1.12,2.79,1.52,2.9-.16.03.01.08-.58.48-.32,1.85,1.21,2.14,1.81,2.74,3.54-2.03-.39.64,1.82-.81,1.93-.24.02-2.97-3.05-3.54-3.22-.89.62-.23,1.11.16,1.61-.46.29-.72.37-1.29.32.11-1.07-.18-1.29-.64-.32-.11-.07-.51.14-.64-.16-.15-.57.47,0,.32-1.13-.1-.81.92-.06-.64-1.29-.21-.36-.26-.82-.64-.97-.35-.13-.41-.42-.64-.16-.08.09.04.56,0,.81-2.82-2.81-6.24-4.43-9.34-6.77,3.6,1,5.16,2.67,7.89,3.54.96.31,2.49-1.27,3.7.64Z"/>
          <path class="cls-25" d="M16.75,57.36c.57,4.98-.03,9.8-2.58,14.17-.75-.44-1.03-.2-1.29-.32,1.96-7.13,2.74-11.7,1.61-19.01,1.76-.06,2.12,3.97,2.26,5.15Z"/>
          <path class="cls-47" d="M20.94,13.87l-3.54,9.34c-.69.88-.58,1.7-.64,1.77-.11.13-2.08.29-1.61,1.45-2.76-.63-1.69-.69-1.61-2.58,1.32,1.55,1.3-1.27,1.61-2.26.43.82.81,0,.97-.48.9-2.82,1.74-5.7,2.58-8.54h.32c1.13,1.34.99.76,1.93,1.29Z"/>
          <path class="cls-47" d="M22.55,17.41c-.25,1.83-1.34,3.39-1.29,5.15-.15.07-2.15,1.8-2.58,2.09h3.87c-1.08.97-2.53,1.14-3.87,1.45-1.5.34-1.91.7-3.54.32-.47-1.16,1.5-1.32,1.61-1.45.06-.07-.04-.89.64-1.77,1.46-1.88,3.13-4.6,5.15-5.8Z"/>
          <path class="cls-15" d="M40.27,49.63s.16.23-.32.64c-.11.09-.85-.23-.64.64-.07-.05-.24.05-.32,0-.06-.11-.01-1.99-.97-.97-.93.72.99,2.28.97,2.42-.13.73-2.19,1.22,0,1.45-.05.11-.32.92-.32.97-3.17.14-2.4-.68-1.13-2.58-3.42.56-4.68-1.68-.16-1.13-.85-2.38-1.95-.77-2.09-.81-.28-.06-.44-.64-.48-.64.82-1.82,2.33.91,2.58-.81-.16-.33-.86-.07-.97-.16l1.61-.97c.68.59,1.64.93,2.26,1.93Z"/>
          <path class="cls-54" d="M22.55,17.41c-2.02,1.2-3.69,3.92-5.15,5.8l3.54-9.34c.3.17,1.05-.34,1.61.48.61.89.12,2.16,0,3.06Z"/>
          <path class="cls-47" d="M44.78,51.88c2.23,3.3-.43,4.19-1.93,2.9-1.08-.93-.5-1.65-.64-1.77-.5-.44-1.19-.8-1.93-1.45,1.46-.13.13-.86-.32-1.29.48-.41.29-.63.32-.64.27-.12,1.48-.51,1.61-.16-2.6,1.52,2.25.76,1.45,3.38l1.45-.97Z"/>
          <path class="cls-27" d="M40.27,45.76c.15.44.58.63.64,1.61.01.17-.45.92-.64,1.13.79,1.15,1.11-.16,1.61-.16.03,0-.11.61.16.64s.08-.8,1.13-.32c-.89.98-.88,1.66.64,1.61.74,2.72.2.48.97,1.61l-1.45.97c.8-2.62-4.05-1.86-1.45-3.38-.13-.35-1.34.04-1.61.16-.62-1-1.57-1.34-2.26-1.93-.34-.3-1.86-1.51-1.93-1.61-.39-.5-1.05-1-.16-1.61.57.18,3.3,3.24,3.54,3.22,1.45-.11-1.22-2.33.81-1.93Z"/>
          <path class="cls-15" d="M28.03,41.25c-1.2.52.09,2.32.64.32.71.5,1.03,1.05,1.61,1.61-1.19,1.25.09.83,0,1.29,0,.05-.42.03-.32.97,0,.04-.73.33-.64.48.19.37,1.88-.16.97,1.77-.11.02-.15,1.54-1.77,0-.7-.67-.34-1.16-.81-1.93l1.29-2.09-2.26-1.13c.03-.64-.57-1.38,0-1.61.14.09.57-.17,1.29.32Z"/>
          <path class="cls-29" d="M42.52,55.1c-.38,1.54-.08,2.61-2.42,2.58-.44-.13-1.45-2.74-1.45-2.9,0-.05.28-.86.32-.97.14-.33.83-.65.97-.97.34.6,2.36.82.97,2.42l1.61-.16Z"/>
          <path class="cls-51" d="M6.77,56.39c.05.2.06,1.09,0,1.29-.05.18-1.8,2.19-1.93,2.26-.12.05-.44-.03-.64,0,.49-1.63,1.37-2.73.97-4.67.88-.6,1.44.48,1.61,1.13Z"/>
          <path class="cls-54" d="M40.27,51.56c.75.65,1.43,1.01,1.93,1.45.14.13-.44.84.64,1.77.06.37-.32.3-.32.32l-1.61.16c1.39-1.59-.63-1.82-.97-2.42s-.7-1.46-.97-1.93c.08.05.25-.05.32,0,.29.2.71.42.97.64Z"/>
          <path class="cls-45" d="M27.7,45.76c-.27-.44-1.05-.4-1.29-1.61-.06-.31.29-.96.32-1.61l2.26,1.13-1.29,2.09Z"/>
          <path class="cls-28" d="M37.05,42.54c-.11,1.68-3.53,1.28-2.9.16.28-.49,1.82.75,2.26-.81.04.02-.22.15.64.64Z"/>
          <path class="cls-15" d="M41.88,48.34c-.5,0-.82,1.31-1.61.16.19-.21.66-.96.64-1.13.85-.6,1.06.23.97.97Z"/>
          <path class="cls-31" d="M34.47,41.25c-.12.45-.68.22-.81.97l-.81-.16,1.29-1.45c.1.15.35.53.32.64Z"/>
          <path class="cls-9" d="M2.26,38.03c.73.27,1.55,1.32,2.26.97.67.54,2.47,2.01,2.9,2.58.12.16.84,1.36.97,1.61-2.53.47.11,4.49-.32,6.6-.12.56-2.01,2.3-2.58,2.74-.89-1.48-.7-2.68-1.61-2.58,0-.73-.15-.77-.32-1.29-1.21-3.61-3.51-6.8-2.58-10.95.3.07,1.12.26,1.29.32Z"/>
          <path class="cls-47" d="M8.38,43.19c1.4,2.7,1.37,5.36,2.26,8.21,1.03-.19.96-2.03.97-2.74,1.52-.39,1.08,5.89.97,6.28-.47,1.69-1.5.95-1.61,1.29-.42,1.25-.16,3.77-.97,5.15-.37-2.74.24-3.84-3.22-3.7.06-.2.05-1.08,0-1.29,2.18-.26-.7-2.89-1.29-3.87.57-.44,2.46-2.17,2.58-2.74.44-2.12-2.21-6.13.32-6.6Z"/>
          <path class="cls-36" d="M3.54,48.66c.17.52.31.55.32,1.29.02,2.1-.8.96-.97,1.45-.35,1.05,1.57,6.57-.64,7.09l-.97-4.99c.32-2.64-1.29-4.74,2.26-4.83Z"/>
          <path class="cls-55" d="M4.51,39c-.7.36-1.53-.7-2.26-.97-.06-1.39,1.66.49,2.26.97Z"/>
          <path class="cls-47" d="M2.58.02c.57,3.86,1.57,3.15,1.93,4.67.14.58-.15,1.54,0,2.09-.34-.06-.73.12-.97.32-1.76,1.51-1.04,3.33-2.58,3.87-.03-.24-.04-.36-.32-.32.11-1.49-.08-3.02,0-4.51C.72,4.74.56.61,1.93.02c.13-.06.45.04.64,0Z"/>
          <path class="cls-44" d="M30.93,44.8l-.32.97c-.19-.12-.42-.27-.64-.32-.09-.93.31-.92.32-.97.6-.17.5.17.64.32Z"/>
          <g>
            <path class="cls-9" d="M22.55,36.42c3.1,2.34,6.52,3.96,9.34,6.77.6.6.91,1.37,1.93,1.61.14,1.12-.47.55-.32,1.13.13.3.53.09.64.16.18.11.45.31.64.32.57.05.82-.03,1.29-.32.08.1,1.59,1.32,1.93,1.61l-1.61.97c-2.38-2.08-3.42-1.42-5.8-2.9l.32-.97c.35.37.42.64.97.81,2,.07-1.33-2.15-1.61-2.42-.58-.56-.9-1.11-1.61-1.61-.41-.29-.59-.29-.64-.32-.72-.5-1.15-.23-1.29-.32-2.58-1.62-7.46-6.24-9.66-2.74-.04,1.32,6.9,5.53,8.05,6.93.44.53.9,1.86,1.29,2.58-.87.09-1.29-1.3-1.29,0-.89-2.3-5.37-3.85-7.09-5.15-1.2-.92-6.82-6.22-7.73-5.64l-.32.64c2.42.44,5.99,6.51,7.09,7.09.74.39.75-.38,1.29-.48,1.66,2.43,3.95,4.78,6.12,6.77-.15.94-.59,2.74-.64,3.38-.04.46,2.27,1.26-.97,2.74-.68-1.49-2.06-3.31-2.9-4.83-.94-1.72-5.47-10.4-6.93-10.63-2.1-.33-1.18,1.09-.81,1.93-2.34.45-.63,3.18-.64,5.15,0,.7.07,2.55-.97,2.74-.88-2.85-.85-5.52-2.26-8.21-.13-.25-.85-1.45-.97-1.61l1.93-4.35c-2.28-1.17-4.34-1.72-6.93-1.45-.59-.68-.02-1.76-.16-2.26.03-.3.35-.6.64-.64l10.15,1.29c2.93,1.27,6.52,1.42,9.5,2.26Z"/>
            <g>
              <path class="cls-43" d="M25.13,47.7c.99,2.56-.61,3.02-.64,3.22-2.17-1.99-4.46-4.34-6.12-6.77-.16-.23-.98-1.45-.32-1.61,1.72,1.31,6.2,2.85,7.09,5.15Z"/>
              <path class="cls-9" d="M18.04,42.54c-.66.17.16,1.38.32,1.61-.54.11-.55.87-1.29.48-1.1-.57-4.67-6.64-7.09-7.09l.32-.64c.91-.59,6.53,4.72,7.73,5.64Z"/>
              <path class="cls-52" d="M30.93,44.8c-.15-.15-.04-.5-.64-.32.09-.46-1.19-.04,0-1.29.28.27,3.61,2.49,1.61,2.42-.55-.16-.61-.44-.97-.81Z"/>
              <path class="cls-31" d="M32.54,42.54c-.24,1.26.43.8.64.97,1.56,1.23.54.48.64,1.29-1.03-.24-1.33-1.01-1.93-1.61.04-.24-.08-.72,0-.81.23-.26.3.03.64.16Z"/>
              <path class="cls-57" d="M12.72,35.13l3.7.81c0,.21-4.19.61-3.7-.81Z"/>
              <path class="cls-27" d="M28.67,41.57c-.55,1.99-1.85.19-.64-.32.05.03.24.03.64.32Z"/>
              <path class="cls-39" d="M34.79,46.41c-.2-.02-.46-.21-.64-.32.46-.97.75-.75.64.32Z"/>
            </g>
          </g>
          <path class="cls-47" d="M15.79,13.55c1.9,1.36-.04,6.12-.64,8.05-.31.99-.29,3.8-1.61,2.26.01-.32-.02-.65,0-.97.18-2.8.87-5.91,1.29-8.7.6-.56.49-.37.97-.64Z"/>
          <path class="cls-57" d="M13.53,22.89c-1.27.15-1.97,3.39-3.38,1.93-.99-1.02.28-2.42.48-3.87.99.21,1.76-.38,2.26-1.13.24-.35.57-3.53.64-3.7.42-1.06.45-1.15,1.29-1.93-.42,2.79-1.11,5.9-1.29,8.7Z"/>
          <path class="cls-47" d="M15.46,29.33c-6.65.87.8-1.76,3.22-2.26.99-.2,1.97-.83,3.06-.64,1.44.77-5.61,2.81-6.28,2.9Z"/>
          <path class="cls-15" d="M12.24,11.61c-.07,1.05-.64,1.52-.64,1.61l-2.26-3.22c0-.21,0-.43,0-.64.06-1.52-.52-2.73,1.29-3.22.75,1.75.52,3.92,1.61,5.48Z"/>
          <path class="cls-47" d="M13.53,16.12c-.07.17-.41,3.35-.64,3.7-.5.74-1.27,1.34-2.26,1.13.26-1.87.75-4.02.97-5.8l1.93.97Z"/>
          <g>
            <path class="cls-9" d="M11.6,13.23c-.05.55.04,1.58,0,1.93-.21,1.77-.71,3.93-.97,5.8-.2,1.44-1.48,2.84-.48,3.87,1.42,1.46,2.11-1.78,3.38-1.93-.02.32.01.65,0,.97-.08,1.89-1.15,1.94,1.61,2.58,1.63.37,2.05.02,3.54-.32v.97c-2.42.49-9.87,3.13-3.22,2.26.42,1.35-1.83,1.03-1.93,1.77-.21,1.51,3.62,2.05,4.83,2.09,2.69.1,5.32-.53,7.41-2.42.5-2.53-3.01.2-4.03.48s-2.32.5-3.38.64c-.36.05-.71.53-1.45.32l-.32-.64c2.14-.77,4.3-1.51,6.44-2.26.98-.34,1.8,1.04,2.74-1.61,3.67,1.57-2.89,7.79-4.03,8.05s-4.7-1.7-6.12-1.93c-2.69-.44-10.3-1.31-12.72-.97-.29.04-.62.34-.64.64,0-.03-.59.11-.64-.16-.02-.09.65-.54.64-.64-.07-1.03-1.95-1.77.97-3.7,1.52-.4,3.64-1.78,4.51-3.06.27-.4,3.18-7.34,1.13-6.28-.44.23-2.34,6.5-4.99,8.38-.38-3.88,1.53-6.9,2.9-10.31.5-1.25.79-2.96,1.29-4.03.31-.66,1.32-.31,1.61-.97.34-.77-.35-2.12-.32-2.74l2.26,3.22Z"/>
            <path class="cls-36" d="M3.22,29.01v-.32s.56-.59.64-.64c2.66-1.87,4.55-8.15,4.99-8.38,2.05-1.06-.86,5.88-1.13,6.28-.87,1.28-2.99,2.66-4.51,3.06Z"/>
            <path class="cls-1" d="M18.36,33.2v-1.29c1.07-.14,2.36-.36,3.38-.64s4.53-3.02,4.03-.48c-2.09,1.89-4.72,2.52-7.41,2.42Z"/>
            <path class="cls-7" d="M8.21,29.66c3.83,3.98-2.24,2.9-4.99,2.74l4.99-2.74Z"/>
          </g>
          <path class="cls-5" d="M33.18,43.51c-.21-.17-.88.29-.64-.97.39.15.43.61.64.97Z"/>
          <path class="cls-50" d="M18.68,12.58c-.83,2.84-1.68,5.71-2.58,8.54-.15.48-.53,1.3-.97.48.6-1.94,2.54-6.69.64-8.05.95-.55,1.86-.74,2.9-.97Z"/>
          <path class="cls-22" d="M38.98,50.92c.26.48.62,1.32.97,1.93-.14.32-.83.63-.97.97-2.19-.23-.13-.72,0-1.45.02-.14-1.89-1.69-.97-2.42.14.48.57.73.97.97Z"/>
          <path class="cls-24" d="M39.95,50.27c.46.43,1.78,1.16.32,1.29-.26-.23-.67-.44-.97-.64-.2-.88.54-.55.64-.64Z"/>
          <path class="cls-54" d="M38.98,50.92c-.4-.24-.83-.48-.97-.97.95-1.02.9.85.97.97Z"/>
          <g>
            <path class="cls-10" d="M30.6,45.76c2.37,1.48,3.42.82,5.8,2.9.11.09.8-.17.97.16-.25,1.71-1.76-1.02-2.58.81-.98-.23-1.73.31-2.9-.32,2.55.25,1.64-2.49-.97-1.93-.31.07-.35.28-.64.32.91-1.93-.77-1.41-.97-1.77-.08-.16.65-.44.64-.48.22.05.46.21.64.32Z"/>
            <path class="cls-46" d="M34.63,48.02c.27-.15.81.42.81.48-.06.75-1.82.1-.81-.48Z"/>
          </g>
          <g>
            <path class="cls-9" d="M31.89,49.31c-.73-.39-1.02-1.14-.97-1.93,2.61-.56,3.52,2.18.97,1.93Z"/>
            <polygon class="cls-28" points="32.05 48.02 32.21 48.5 31.73 48.66 31.57 48.5 32.05 48.02"/>
          </g>
          <g>
            <path class="cls-44" d="M19.97,52.21l-.64,1.93c-.16-.21.2-1.11-.97-.48,0,1.61-.27,2.82-1.61,3.7-.13-1.18-.5-5.22-2.26-5.15-.07-.45-1.29-2.89-1.29-3.06-.01-.95.97-2.44.97-2.58,0-.55-1.67-2.47-1.93-3.06-.37-.84-1.3-2.26.81-1.93,1.46.23,5.98,8.91,6.93,10.63Z"/>
            <path class="cls-36" d="M14.34,47.37c.53.53,1.19,1.41.32,1.93l-.32-1.93Z"/>
          </g>
        </g>
      </g>
    </g>
  </g>
</svg>