<?xml version="1.0" encoding="UTF-8"?>
<svg id="Layer_1" data-name="Layer 1" xmlns="http://www.w3.org/2000/svg" xmlns:xlink="http://www.w3.org/1999/xlink" viewBox="0 0 103.73 240.34">
  <defs>
    <style>
      .cls-1 {
        fill: #face34;
      }

      .cls-2 {
        fill: #d4d866;
      }

      .cls-3 {
        fill: #e7df9d;
      }

      .cls-4 {
        fill: #f1b14e;
      }

      .cls-5 {
        fill: #f9f1d2;
      }

      .cls-6 {
        fill: #c22d24;
      }

      .cls-7 {
        fill: #dfcd78;
      }

      .cls-8 {
        fill: #d83c2d;
      }

      .cls-9 {
        fill: url(#linear-gradient-2);
      }

      .cls-10 {
        fill: #aa1b19;
      }

      .cls-11 {
        fill: #c5bc6b;
      }

      .cls-12 {
        fill: #fbe3b7;
      }

      .cls-13 {
        fill: #7ba855;
      }

      .cls-14 {
        fill: url(#linear-gradient);
      }

      .cls-15 {
        fill: #f47c41;
      }

      .cls-16 {
        fill: #f1d695;
      }

      .cls-17 {
        fill: #78983f;
      }

      .cls-18 {
        fill: #bbc561;
      }

      .cls-19 {
        fill: #585a2a;
      }

      .cls-20 {
        fill: #fbe285;
      }

      .cls-21 {
        fill: #feef21;
      }

      .cls-22 {
        fill: #b3d7cd;
      }

      .cls-23 {
        fill: #405b1f;
      }

      .cls-24 {
        fill: #780f15;
      }

      .cls-25 {
        fill: #b8831d;
      }

      .cls-26 {
        fill: #ec721d;
      }

      .cls-27 {
        fill: #992127;
      }

      .cls-28 {
        fill: #95cfca;
      }

      .cls-29 {
        fill: #72c0c1;
      }

      .cls-30 {
        fill: #faf8ef;
      }

      .cls-31 {
        fill: #e75237;
      }

      .cls-32 {
        fill: #67812b;
      }

      .cls-33 {
        fill: #edc38c;
      }

      .cls-34 {
        fill: #da592a;
      }

      .cls-35 {
        fill: #f9934e;
      }

      .cls-36 {
        fill: #f26940;
      }

      .cls-37 {
        fill: #e4b734;
      }

      .cls-38 {
        fill: #98bf69;
      }

      .cls-39 {
        fill: #5c6f1c;
      }

      .cls-40 {
        fill: #9eb04b;
      }

      .cls-41 {
        fill: #ba5e23;
      }

      .cls-42 {
        fill: #b04417;
      }

      .cls-43 {
        fill: #f9a311;
      }

      .cls-44 {
        fill: #a1c4c2;
      }
    </style>
    <linearGradient id="linear-gradient" x1="69.83" y1="20.39" x2="90.16" y2="38.74" gradientUnits="userSpaceOnUse">
      <stop offset="0" stop-color="#75953b"/>
      <stop offset="1" stop-color="#627f33"/>
    </linearGradient>
    <linearGradient id="linear-gradient-2" x1="101.32" y1="46.7" x2="91.72" y2="76.77" gradientUnits="userSpaceOnUse">
      <stop offset="0" stop-color="#5d792e"/>
      <stop offset="1" stop-color="#889d34"/>
    </linearGradient>
  </defs>
  <g>
    <path class="cls-16" d="M88.59,185.25c.24.18.57.95.97,1.29.26.22.33,1.09.81,1.29.22.09,4.03.63,4.51.64.26,0,1.21-.96,1.29-.97.93-.04,1.4.85,3.7.32.88,1.5,2.25,1.33,3.87.97v22.55l-5.64-20.3c-1.02,4.85-.42,9.93-.16,14.82.21,3.93.38,8.03.97,11.92.8,5.26,2.1,10.52,4.83,15.14v4.51c-.72-.04-4.32-.79-4.51-1.13-.22-.38.34-2.55.32-3.38-.14-6.56-.7-9.81-2.26-16.11-1.2-4.85-5.65-20.12-7.73-24-.08-.14-.48-.63-.64-.32-.15,1.54.53,2.96.32,4.51s-1.61,1.98-1.13,4.03c-1-2.09-1.11-4.33-2.09-6.44-.86-1.86-3.79-4.52-3.87-4.83-.39-1.56,1.11-5.16,1.77-6.77,1.54,1.14,3.09,1.11,4.67,2.26Z"/>
    <path class="cls-16" d="M73.45,229.06l-27.38,11.28h-11.6c6.33-3.11,14.01-4.16,20.46-6.77,2.44-.98,4.43-2.48,6.6-3.54,1.39-.68,4.71-2.94,5.8-3.22,2.14-.56,4.21,1.18,6.12,2.26Z"/>
    <path class="cls-17" d="M75.7,212.96c.69-2.83.97-1.99,2.26-.16v-3.06c.81,3.89,1.74,8.34,1.29,12.4-.24,2.14-1.57,3.96-1.61,6.12.42,1.23,8.99,3.96,10.63,4.35.34.08.86,1.47,1.93.16l.97-10.15c.47,3.78.51,7.53-.97,11.11l6.93,2.42c.68-.4.08-1.03-.16-1.61l1.77,2.26.81-3.87c.02.83-.54,3-.32,3.38.19.34,3.79,1.09,4.51,1.13v1.29c-4.31-1.39-8.77-2.35-13.05-3.87-.48-.17-.89-1.26-.97-1.29-.6-.22-.95.45-1.29.32-4.09-1.5-9.32-3.34-12.72-5.48.82-.26.51-.57.32-1.13-1.01-2.96-1.99-5.41-2.58-8.54-.95-5.03-.95-10.15-1.93-15.14l.64-.32c.14,1.28,1.72,13.1,3.38,12.56.18-.86-.04-2.09.16-2.9Z"/>
    <path class="cls-17" d="M75.7,230.67c-1.59,1.23-3.47,2.84-5.15,3.87-3.3,2-6.72,3.76-9.99,5.8h-1.93c.69-.19,1.86-1.79,2.09-1.93,2.44-1.5,7.42-2.63,9.99-4.83.37-.31,1.54-1.08.64-1.61l-21.42,8.38h-3.87l27.38-11.28c.9.51,1.84.25,2.26,1.61Z"/>
    <path class="cls-19" d="M75.7,228.1s-.05.29,0,.32c3.4,2.14,8.63,3.97,12.72,5.48.34.12.69-.54,1.29-.32.08.03.49,1.12.97,1.29,4.28,1.52,8.74,2.48,13.05,3.87v1.61h-3.54c-.58-1.18-2-.28-2.09-.32-.4-.19.48-.62-1.13-1.29-1.84-.76-4.5-1.26-6.12-1.93-.05-.02-.21-.33-.97-.64-3.38-1.39-6.48-3.03-9.99-4.19-1.18-.39-2.34-.93-3.38-1.61l-.81.32c-.42-1.36-1.36-1.1-2.26-1.61-1.91-1.08-3.98-2.81-6.12-2.26.18-.64-.3-.61-.32-.64-.59-.99-.98-.94-1.61-1.61-.38-.41-.59-.71-1.13-.97l.32-.64,11.11,5.15Z"/>
    <path class="cls-32" d="M102.76,215.53c.1.61-.42.72-.32,1.13l1.29,2.74v13.53c-2.74-4.62-4.03-9.89-4.83-15.14l2.26,2.09c-.28-5.18-.48-10.25-1.61-15.3l.81-1.29c.61,2.28,1.38,4.84,1.77,7.25.28,1.72.39,3.37.64,4.99Z"/>
    <path class="cls-16" d="M89.23,236.15l-3.22,4.19h-10.95c.86-.75,1.72-1.5,2.58-2.26,1.36-1.2,3-2.12,2.9-3.87.97-.31,1.16-1.08,2.42-.97.63.06,5.04,2.53,6.28,2.9Z"/>
    <path class="cls-32" d="M103.73,211.35v4.83l-.81-1.29-.16.64c-.26-1.62-.36-3.27-.64-4.99-.4-2.4-1.16-4.96-1.77-7.25l-.81,1.29c-.09-.39-.02-2.35-.81-2.26.05,1.11.84,3.13-.81,3.54-.26-4.89-.86-9.97.16-14.82l5.64,20.3Z"/>
    <path class="cls-40" d="M89.88,236.15c-.21-.02-.48.05-.64,0-1.24-.37-5.65-2.84-6.28-2.9-1.25-.11-1.45.66-2.42.97-.65.21-10.39,3.52-8.21,4.83,1.52-1.21,3.4-1.12,5.32-.97-.85.75-1.72,1.51-2.58,2.26h-7.09c1.77-2.39,2.05-1.52,2.58-4.51l9.34-3.87c3.51,1.16,6.61,2.8,9.99,4.19Z"/>
    <path class="cls-40" d="M58.63,240.34h-8.7l21.42-8.38c.9.53-.28,1.3-.64,1.61-2.57,2.2-7.55,3.34-9.99,4.83-.23.14-1.4,1.74-2.09,1.93Z"/>
    <path class="cls-18" d="M70.55,235.83c-.53,2.99-.81,2.12-2.58,4.51h-7.41c3.27-2.04,6.69-3.8,9.99-5.8.63.76.08.81,0,1.29Z"/>
    <path class="cls-16" d="M96.97,238.73c0,1.02-2.45.63-3.22,1.61h-3.87l.97-3.54c1.62.67,4.28,1.17,6.12,1.93Z"/>
    <path class="cls-32" d="M89.88,236.15c.76.31.91.62.97.64l-.97,3.54h-3.87l3.22-4.19c.16.05.44-.02.64,0Z"/>
    <path class="cls-17" d="M103.73,216.18v3.22l-1.29-2.74c-.1-.41.42-.52.32-1.13l.16-.64.81,1.29Z"/>
    <path class="cls-18" d="M53.8,184.61c.59,3.65,1.25,7.32,1.93,10.95-.57.31-.51,1.44-.64,1.93-.22.84-.46.2-.32,2.26-1.23,1.91-.02,1.95,0,2.09.2,1.18.61,3.31.64,3.54.3,1.82.81,4.46.97,6.77.13,1.92-.09,3.88,0,5.8l-.64-.48c-3.43-8.78-5.32-18.06-5.8-27.54-.06-1.2.65-.75.64-.81-.05.29.42,7.32,1.61,5.32.42-.71-1-14.15.32-16.43.49-.63.95.89.97.97.21,1.41.01,3.72.32,5.64Z"/>
    <path class="cls-17" d="M40.27,227.45c.7.23,2.81.43,3.38.64.2.08.46,1.25.64,1.29.66.14.41-.65.64-.64,1.29.01,4.86-.05,5.96-.32-11.24,4.08-21.94,3.74-33.66,4.83-.2.02-5.21,1.51-3.54.32,4.88-1.09,9.46-3.06,14.34-4.19,1.43-.33,2.72-.71,4.19-.97,2.38-.41,5.56-.4,8.05-.97Z"/>
    <path class="cls-5" d="M50.58,189.12c0,.05-.7-.39-.64.81.48,9.48,2.37,18.76,5.8,27.54-.86-1.45-4.57-2.47-5.15-3.7-1.24-2.64,0-12.22-1.61-15.62,0-.11,0-.22,0-.32-.25-3.59-1.6-7.7-2.26-11.28,3.38-1.94,3.79-.67,3.87,2.58Z"/>
    <path class="cls-40" d="M23.52,193.95c.74.93-.77.7-1.13.64-5.31-.76-19.77-8.12-21.74-13.37-.22-.59-.1-3.21-.64-4.19,1.08.58,1.43,2.33,2.26,3.22,2.34,2.52,14.32,11,17.56,12.72,1.1.58,2.45.92,3.7.97Z"/>
    <path class="cls-32" d="M61.53,222.94c-2.77,2.44-6.68,3.84-10.15,4.83-.28.08-.13.64-.16.64-.1.03-.22-.02-.32,0-1.1.27-4.67.34-5.96.32-.23,0,.01.78-.64.64-.18-.04-.44-1.21-.64-1.29-.57-.21-2.69-.42-3.38-.64-.36-.12-1.45-.32-1.45-.64,3.55-.41,6.74-1.27,10.15-1.93,4.16-.81,8.31-1.79,12.56-1.93Z"/>
    <path class="cls-18" d="M41.88,222.62c.18,1.35.03,1.44-1.13,1.93-2.49,1.05-8.26.74-11.28,1.93-.91.36-2.14.56-1.77,1.93-2.37.32-4.85.76-7.25.64-.54-.03-8.97-.98-7.73-1.93,9.88-.45,19.49-2.52,29.15-4.51Z"/>
    <path class="cls-17" d="M55.41,219.4c1.45.07.89.62.97.64-.83,1.13-2.34,1.92-3.54,2.58l-.97-.81-6.6,2.74c-2.85-.05-6.75,1.81-9.34,2.26-.55.1-2.92-.45-3.38.64-1.47.05-3.05.76-4.51.97-.11.01-.22-.01-.32,0-.37-1.37.86-1.57,1.77-1.93,3.01-1.19,8.78-.88,11.28-1.93,1.16-.49,1.31-.58,1.13-1.93,3.39-.7,10.61-3.36,13.53-3.22Z"/>
    <path class="cls-18" d="M34.47,189.12c-.11.74-.94,2.31.32,2.26.13,1.72.49,3.44.64,5.15-.91,1.63.26,3.85-.64,5.48-.39-1.12-.46-2.37-.64-3.54-.62-4.01-1.36-8.01-1.61-12.08-.4.72-.84,1.96-.97,2.74l1.13-17.72,1.77,17.72Z"/>
    <path class="cls-5" d="M45.42,199.43c.94,4.55,2.6,8.69,3.87,13.05-7.19-1.43-4.79-7.97-5.48-13.69l1.61.64Z"/>
    <path class="cls-16" d="M65.4,224.55c.63.67,1.02.62,1.61,1.61-2.61.26-5.19.67-7.73,1.29-3.16.77-6.25,1.91-9.34,2.9.24-1.45,3.5-.48,2.9-2.58,1.84-.63,9.59-4.53,10.15-4.51.4.02,1.65,1.46,2.42,1.29Z"/>
    <path class="cls-16" d="M48.32,214.57l-14.82,1.29c1.75-.16,3.62-.47,5.32-.97,4.71-1.37,5.2-4.83,9.5-.32Z"/>
    <path class="cls-32" d="M48,215.53c-2.9,2.07-8.47,3.15-12.08,3.22-2.15.04-3.58-.46-5.32-1.61,5.78-.59,11.65-.63,17.4-1.61Z"/>
    <path class="cls-40" d="M41.88,188.15c-.61.29-2.8-1.17-2.9-1.45-.3-.86.7-3.34-.64-3.7.25-1.9.7-4.74,1.93-6.28-.52,3.98.88,7.63,1.61,11.44Z"/>
    <path class="cls-7" d="M32.21,228.42c-1.47.26-2.76.63-4.19.97v-.97c1.46-.2,3.04-.92,4.51-.97.33-.01.42-.45.81-.32.68,1.4-.59.6-1.13,1.29Z"/>
    <path class="cls-16" d="M7.89,179.45c.51.07,2.08,1.96.97,2.26-1.75.47-1.53-2.33-.97-2.26Z"/>
    <path class="cls-17" d="M97.29,216.82c-1.45-.6-1.97-6.67-2.58-7.25-1.78-.24-.04,2.01,0,2.58.05.76-.72,1.86-.64,2.26.02.13,1.24,2.03,1.29,2.26.5,2.6,1.1,5.18,1.61,7.73l-1.13.48c-1.88-1.73-1.57-5.16-2.09-6.6-.04-.11-1.51-1.4-1.61-1.61-.05-.12.81-3-.97-1.45-1.39-5.9-1.84-8.35-3.87-14.01-.72-2.01-.69-4.32-1.61-6.28.02-.02-.04-.38.32-.32.98,2.11,1.09,4.36,2.09,6.44-.49-2.05.93-2.49,1.13-4.03s-.47-2.97-.32-4.51c.17-.31.57.18.64.32,2.09,3.88,6.53,19.15,7.73,24Z"/>
    <path class="cls-32" d="M97.29,216.82c1.56,6.3,2.11,9.54,2.26,16.11l-.81,3.87-1.77-2.26c-3.16-7.68-3.91-11.34-5.8-19.33,1.77-1.55.91,1.33.97,1.45.1.21,1.57,1.5,1.61,1.61.53,1.44.21,4.88,2.09,6.6l1.13-.48c-.51-2.56-1.11-5.13-1.61-7.73-.04-.23-1.27-2.13-1.29-2.26-.07-.4.7-1.49.64-2.26-.04-.56-1.78-2.82,0-2.58.61.58,1.13,6.65,2.58,7.25Z"/>
    <path class="cls-13" d="M99.54,204.58c1.13,5.05,1.33,10.12,1.61,15.3l-2.26-2.09c-.59-3.88-.76-7.99-.97-11.92,1.65-.41.85-2.43.81-3.54.78-.1.72,1.87.81,2.26Z"/>
    <path class="cls-32" d="M67.01,226.16s.51,0,.32.64c-1.09.29-4.41,2.54-5.8,3.22-.92-.68-2.31-.99-2.26-2.58,2.54-.62,5.12-1.03,7.73-1.29Z"/>
    <path class="cls-16" d="M81.18,202.65c-.07,3.38,1.48,10.33,2.26,13.85,1.22,5.54,2.91,10.79,4.83,16.11-1.64-.39-10.21-3.12-10.63-4.35.05-2.17,1.37-3.98,1.61-6.12.46-4.06-.48-8.51-1.29-12.4-.5-2.4-.98-4.82-1.93-7.09,1.78.08,3.89.91,5.15-.97-.03.32,0,.65,0,.97Z"/>
    <path class="cls-32" d="M91.17,222.62l-.97,10.15c-1.07,1.31-1.6-.08-1.93-.16-1.92-5.32-3.61-10.56-4.83-16.11l1.61-.81-2.26-15.14c-1.85-.57.54,2.32-1.61,2.09,0-.32-.03-.65,0-.97.02-.27.87-3.69.97-3.87,1,.04,1.65,1.99,1.93,2.74,2.2,5.73,6.38,16.34,7.09,22.07Z"/>
    <path class="cls-16" d="M91.17,215.21c1.89,7.98,2.64,11.64,5.8,19.33.24.58.84,1.21.16,1.61l-6.93-2.42c1.48-3.59,1.43-7.33.97-11.11-.71-5.73-4.89-16.34-7.09-22.07-.29-.75-.93-2.7-1.93-2.74.22-.43.65-.93.97-1.29.1-.11,2-1.09,2.58-1.61.92,1.96.89,4.27,1.61,6.28,2.02,5.66,2.47,8.12,3.87,14.01Z"/>
    <path class="cls-18" d="M69.58,202c.46.31.99,1.74,1.93,1.61.98,4.99.99,10.11,1.93,15.14l-1.29.32c-.06-1.93-.76-3.84-.64-5.8-.04-.52-1.1-8.62-2.26-6.44-1.55-1.28-.19-3.46-.97-5.15.25.04,1.2.26,1.29.32Z"/>
    <path class="cls-18" d="M75.06,202.65l.64,10.31c-.2.81.02,2.04-.16,2.9-1.66.54-3.25-11.28-3.38-12.56-.01-.11,0-.22,0-.32-.41-1.63,1.8-.43,2.9-.32Z"/>
    <path class="cls-16" d="M73.45,218.75c.59,3.13,1.57,5.58,2.58,8.54.19.56.49.86-.32,1.13-.05-.03.05-.29,0-.32-5.81-3.94-3.33-2.54-3.54-9.02l1.29-.32Z"/>
    <path class="cls-40" d="M76.03,202.65c.95,2.27,1.43,4.69,1.93,7.09v3.06c-1.28-1.83-1.56-2.67-2.26.16l-.64-10.31c.32.03.65-.01.97,0Z"/>
    <g>
      <path class="cls-17" d="M59.27,227.45c-.06,1.59,1.34,1.9,2.26,2.58-2.18,1.07-4.17,2.56-6.6,3.54-6.44,2.6-14.12,3.66-20.46,6.77h-12.56c9.47-2.92,18.61-6.96,28.03-9.99,3.09-.99,6.18-2.13,9.34-2.9Z"/>
      <path class="cls-40" d="M59.76,229.71c.08.94-2.57,2.27-3.22,2.58-1.56.73-7.03,2.29-8.38,2.58-1.59.33-4.41-.18-5.48,0-2.94.5-2.45,4.25-5.64.81l22.71-5.96Z"/>
    </g>
    <path class="cls-16" d="M79.89,231.96l-9.34,3.87c.08-.47.63-.53,0-1.29,1.68-1.02,3.56-2.64,5.15-3.87l.81-.32c1.04.68,2.2,1.22,3.38,1.61Z"/>
    <path class="cls-2" d="M77.64,238.08c-1.92-.15-3.8-.25-5.32.97-2.18-1.31,7.57-4.63,8.21-4.83.1,1.75-1.54,2.67-2.9,3.87Z"/>
    <path class="cls-40" d="M62.17,189.44c.05.58.24.62.32.97-.43,2.86.74,6.98,2.9,9.02.04.31-.04.65,0,.97.43,3.37.33,7.78,1.93,10.47-.34-3.38-1.18-6.74-1.61-10.15,1.19-.53,2.01-.27,2.58.97.77,1.7-.58,3.87.97,5.15-.45,1.36.76,8.43.64,8.86-.74,2.62-.91-4.85-2.9-3.06-.04-.15-1.09-1.45-.81-2.58l-2.09.32c-.3-1.14-.87-.44-.97-.81-.91-3.69-1.06-6.17-1.61-9.99-.12-.84-.99-.66-.97-3.38.01-1.31-.08-7.98,1.61-6.77Z"/>
    <path class="cls-17" d="M71.52,213.28c.29,3.49-.41,8.42,0,12.08l-.64-.16c-1.27-2.48-2.43-5.04-3.22-7.73-.36-1.22-.33-3.66-.64-4.83,1.99-1.79,2.16,5.68,2.9,3.06.12-.43-1.09-7.5-.64-8.86,1.16-2.18,2.21,5.92,2.26,6.44Z"/>
    <path class="cls-3" d="M59.6,196.2c0,5.66.58,11.27.64,16.91-2.33-4.08-2.94-8.84-3.87-13.37l3.22-3.54Z"/>
    <path class="cls-16" d="M61.53,222.94c-4.26.14-8.4,1.13-12.56,1.93.71-1.28,2.55-1.54,3.87-2.26,1.21-.66,2.71-1.45,3.54-2.58.61.18,5.42,1.99,5.15,2.9Z"/>
    <path class="cls-11" d="M62.5,183.64c.37,1.83-.46,4.24-.32,5.8-1.69-1.21-1.6,5.46-1.61,6.77l-.97-7.41c.15-2.4.48-4.81,1.29-7.09.1-.02.22.01.32,0,.18,1,1.02.63,1.29,1.93Z"/>
    <path class="cls-38" d="M67.01,212.63c.31,1.17.29,3.61.64,4.83-.63-.19-.61.3-.64.32-.92.56-.63.9-.81.97-1.57.58-1.77-7.17-2.09-8.38l2.09-.32c-.29,1.13.77,2.43.81,2.58Z"/>
    <path class="cls-16" d="M67.65,217.47c.79,2.69,1.95,5.25,3.22,7.73-5.11-1.4-4.21-2.78-3.87-7.41.03-.02.01-.51.64-.32Z"/>
    <g>
      <path class="cls-40" d="M31.57,189.12c.13-.78.57-2.02.97-2.74.25,4.07.99,8.07,1.61,12.08-1.99.81-.45,5.51.64,3.54.91-1.62-.26-3.84.64-5.48.28,3.07-.56,6.62,1.93,8.21l.64-.32-3.06-14.34c-.89,0-.2.73-.16,1.29-1.26.05-.44-1.51-.32-2.26,0-.03.62.11.64-.16.18-1.9-.94-5.16,0-7.41.94,1.52.14.17,1.29,0l1.77,5.96c.43-1.45-.03-3.06.16-4.51,1.35.36.35,2.84.64,3.7.1.28,2.29,1.74,2.9,1.45.72,3.73,1.47,6.75,1.93,10.63.68,5.72-1.71,12.26,5.48,13.69-1.26-4.36-2.92-8.5-3.87-13.05-1.43-6.9-2.47-15.08.32-21.74-.19,3.02.43,5.93.97,8.86.66,3.58,2.01,7.69,2.26,11.28-2.55-2.3-.51-8.08-4.19-9.83.09,4.17.21,9.54,1.77,13.37.12.3.63-.51.81-.16.2.4.53,3.41.81,3.38-.24-.87.78-1.95.81-2.09.04-.23.01-4.12,0-4.35,1.61,3.41.38,12.99,1.61,15.62.58,1.24,4.3,2.26,5.15,3.7l.64.48c-.09-1.92.13-3.88,0-5.8-.15-2.3-.67-4.94-.97-6.77-.04-.23-.44-2.36-.64-3.54-.02-.14-1.23-.18,0-2.09.22,3.37,1.52,7.07,1.93,10.47.51,4.15-1.93,8.45,3.87,9.34l-5.48-22.07c.13-.49.08-1.62.64-1.93.26,1.37.39,2.94.64,4.19.92,4.53,1.53,9.29,3.87,13.37-.06-5.64-.63-11.25-.64-16.91,0-2.43-.15-5,0-7.41l.97,7.41c-.02,2.73.85,2.54.97,3.38.55,3.82.7,6.3,1.61,9.99.09.37.66-.34.97.81.32,1.21.53,8.95,2.09,8.38.18-.07-.12-.4.81-.97-.34,4.63-1.24,6.01,3.87,7.41l.64.16c-.41-3.66.29-8.59,0-12.08-.12,1.96.58,3.87.64,5.8.21,6.48-2.26,5.08,3.54,9.02l-11.11-5.15-.32.64c.54.26.75.56,1.13.97-.76.18-2.02-1.27-2.42-1.29-.55-.02-8.31,3.88-10.15,4.51-.53.18-1.09.42-1.61.64.03,0-.12-.56.16-.64,3.46-.99,7.38-2.39,10.15-4.83.26-.91-4.54-2.72-5.15-2.9-.08-.02.49-.57-.97-.64-4.68-5.07-4.98-2.44-9.18-.97-7.55,2.64-28.84,4.14-36.72,2.9-.18-.03-1.91-.44-1.61-.97,7.45-1.51,15.12-2.45,22.71-3.22,1.73,1.15,3.17,1.65,5.32,1.61,3.61-.07,9.18-1.15,12.08-3.22.13-.1,1,.18,1.29-.48-.18-.5-.93-.44-.97-.48-4.3-4.51-4.8-1.05-9.5.32-1.69.49-3.56.81-5.32.97-8.41.76-19.38-.11-27.38-2.42,12.53-.7,25.48,1.47,37.69-2.26-.7-.36-4.08-3.35-4.35-3.38-.45-.06-4.18,2.02-5.15,2.26-10.35,2.48-20.18-.25-29.48-4.67l.81-.48c10.57,2.87,21.61,4.22,32.54,2.26-3.18-4.2-4.73-1.29-8.7-.97-7.38.6-21.89-1.44-26.74-7.73-.4-.52-.73-.36,0-.97,9.18,5.63,20.18,5.53,30.6,6.44l.32-.64c-3.37-3.89-7.57-1.79-12.24-2.26-6.11-.61-13.6-4.34-18.52-7.89l12.56,3.54c-5.49-2.25-10.49-5.35-14.98-9.18l.32-.64c7.11,4.08,14.7,8.74,23.19,8.38,1.33-1.12-.38-1.17-.48-1.29-4.48-5.16-17.12-14.9-18.36-21.1-.28-1.39-.33-2.07.48-3.38,1.76.8-.39,1.02.64,2.26l.81-2.42c3.44,7.41,9.49,14.57,14.66,21.42-.41-5.47-5.29-9.45-5.96-14.98-.24-1.96-.53-7.88,2.26-8.05l4.51,24.16,1.77,1.77c-1.92-8.08-3.44-16.37-4.03-24.64,3.87,6.08,4.56,13.37,5.48,20.62.4,3.2-1.37,4.95,2.09,7.25-1.43-9.63-3.68-18.3-.64-28.03.39,7.35,2.63,14.86,3.38,22.07.31,2.96-1.35,7.99,1.29,9.34.24-3.69-.92-7.44-.32-11.11Z"/>
      <g>
        <path class="cls-5" d="M38.17,188.47l5.15,20.3c-6.68-1.95-3.84-7.85-4.03-13.05-.08-2.33-1.03-4.88-1.13-7.25Z"/>
        <path class="cls-38" d="M48.97,197.82c0,.11,0,.22,0,.32.01.23.04,4.12,0,4.35-.03.15-1.04,1.23-.81,2.09-.28.03-.61-2.98-.81-3.38-.17-.35-.68.46-.81.16-1.56-3.83-1.69-9.2-1.77-13.37,3.67,1.75,1.64,7.53,4.19,9.83Z"/>
        <path class="cls-5" d="M55.09,197.49l5.48,22.07c-5.79-.89-3.36-5.19-3.87-9.34-.42-3.4-1.71-7.1-1.93-10.47-.13-2.05.1-1.41.32-2.26Z"/>
        <path class="cls-38" d="M26.9,176.88c1.03-.44.73,3.98.81,4.35.18.86,1.99,5.85,1.93,7.09-.07,1.47-1.83,1.67-2.26,1.29-.77-.7-1.93-11.19-.48-12.72Z"/>
        <path class="cls-16" d="M62.66,210.06l2.26,12.24c-6.05-1.36-1.41-7.73-2.26-12.24Z"/>
        <path class="cls-5" d="M35.44,196.53c-.16-1.72-.51-3.44-.64-5.15-.04-.56-.73-1.28.16-1.29l3.06,14.34-.64.32c-2.49-1.59-1.65-5.15-1.93-8.21Z"/>
        <path class="cls-5" d="M20.13,195.56c2.71,1.11,5.07-1.19,6.93,1.77-.25.33-7.08-.4-6.93-1.77Z"/>
        <path class="cls-5" d="M34.15,198.46c.18,1.17.25,2.42.64,3.54-1.1,1.96-2.63-2.73-.64-3.54Z"/>
        <path class="cls-12" d="M24,198.14c1.33.36,4.64-.7,4.99,1.13-.16.21-4.99-.29-4.99-1.13Z"/>
      </g>
    </g>
    <path class="cls-40" d="M52.83,222.62c-1.31.72-3.16.98-3.87,2.26-3.41.66-6.6,1.52-10.15,1.93,0,.33,1.09.53,1.45.64-2.5.57-5.68.55-8.05.97.53-.69,1.81.11,1.13-1.29-.39-.13-.48.31-.81.32.46-1.09,2.83-.55,3.38-.64,2.59-.44,6.49-2.3,9.34-2.26l6.6-2.74.97.81Z"/>
    <path class="cls-17" d="M83.44,216.5c-.77-3.52-2.32-10.47-2.26-13.85,2.15.23-.24-2.67,1.61-2.09l2.26,15.14-1.61.81Z"/>
    <path class="cls-16" d="M65.72,200.71c.43,3.4,1.27,6.77,1.61,10.15-1.6-2.69-1.5-7.1-1.93-10.47.28-.03.29.08.32.32Z"/>
  </g>
  <g>
    <path class="cls-32" d="M96.64,98.92c2.57,2.52,2.81,5.88,4.51,8.7-3.01.1.63,6.91,2.58,6.44v4.19c-2.34-.33-2.02,1.12,0,.97v3.87h-.32c-2.21-3.72-8.25-.62-11.76-.97-2.54-.25-5.6-3.13-8.54-1.61-1.23-.82-.79-.34-1.61-1.61,1.45,1.52,2.35-1.15,4.03-1.61,2.62-.72,6.24.66,8.86-2.09l-9.83-3.7c.23-2.16-.04-.66-.97-.97-2.66-.88-5.51-2.71-7.89-2.58-.27-.3-1.33-.49-1.61-1.13,3.6-2.01,15.88-10.79,19.49-10.15.39.07,2.64,1.84,3.06,2.26Z"/>
    <path class="cls-17" d="M103.73,127.91v4.51c-2.97.83-4.56,2.5-7.73,2.58-.94.02-7.74-1.31-8.21-1.61-.86-.54-1.92-4.08-2.42-5.15l18.36-.32Z"/>
    <path class="cls-32" d="M84.4,121.79c6.11,1.5,12.5,5.42,19.01,1.29h.32v4.83l-18.36.32c-.38-.82-2.68-5.96-2.58-6.28.33-1.05,1.09-.29,1.61-.16Z"/>
    <path class="cls-40" d="M96.64,136.29c.71,3.01,4.1,6.7,7.09,7.09v4.83l-4.83-.64c-2.18-2.5-6.41-6.67-7.41-9.66-.1-.3-.7-1.49-.48-1.61,1.95.34,3.69.18,5.64,0Z"/>
    <path class="cls-40" d="M103.73,34.16v1.61c-7.25,2.05-2.24,7.38-2.74,12.56l-1.13-2.42c.04-2.56-.99-4.57-1.13-7.25-.56-.23-8.92,6.51-9.5,7.57-2.13,3.86-.02,6.91,1.29,10.47l-1.61.64c.12-.48.68-.76.97-1.13-1.91-2.57-2.28-5.71-2.74-8.86-4.95,4.47-7.21,6.08-3.06,12.4-1.94-.46-1.52-3.31-3.22-4.35-.87-1.55,1-2.3.32-3.54l9.34-8.54c.01-.57-5.04-1.22-5.64-1.45-4.49-1.75-8.34-4.81-13.37-6.77.03-.79,2.57-.38,2.74-.32,2.71,1.02,6.85,5,9.99,5.8,1.29.02,5.46,1.92,7.41,1.61s9.46-7.14,12.08-8.05Z"/>
    <path class="cls-32" d="M103.73,103.1c-1.37-1.8-5.77-4.13-6.77-5.8-1.95-3.27,4.93-3.77,6.77-5.48v11.28Z"/>
    <path class="cls-12" d="M102.44,19.67c.38.21.84.82,1.29.97v5.8l-10.31-6.6c.04-.82,3.66-.38,4.35-.48.14-.02.26-.89.64-.97,1.33-.26,2.81.6,4.03,1.29Z"/>
    <path class="cls-40" d="M103.73,135.64v7.73c-2.98-.39-6.38-4.07-7.09-7.09,2.37-.22,4.68-.82,7.09-.64Z"/>
    <path class="cls-3" d="M100.19,15.16c.29,1.43.98,3.28,2.26,4.19v.32c-1.22-.69-2.7-1.54-4.03-1.29-.38.07-.51.95-.64.97-.69.1-4.31-.33-4.35.48l10.31,6.6v.97c-.38-.26-.56-.25-.97-.32-.36-.95-2.06-2-2.9-2.58-1.18-.8-3.74-2.52-4.99-2.9-1.59-.49-3.2.31-4.35-.64.58-.45,1.61-1.74,2.26-2.26.98-.78,2.18-1.54,3.22-2.26.52-.36.63-1.22.81-1.29.34-.13,1.22.66,1.29.64.55-.14.05-1.17,2.09-.64Z"/>
    <path class="cls-34" d="M100.83.02c.97.31,2.03,1.08,2.9,1.61v1.93c-.72.72-.73,1.85,0,2.58v3.22c-.46-.15-.61.25-.97.32-.02,0-.31,0-.32,0-.29-.09-.8-.3-.97-.32-.03,0,.11-.6-.16-.64-1.18-.17-1.99.49-2.74.32.24-.94-.25-1.78-.32-2.58l4.83,1.77-4.83-3.7c.02-.21-.04-.45,0-.64.32-1.6,1.47-2.19,1.93-3.54.03-.1-.03-.23,0-.32.21.03.49-.05.64,0Z"/>
    <path class="cls-5" d="M103.73,103.1v7.09c-.88-.7-2-1.62-2.58-2.58-1.7-2.82-1.94-6.18-4.51-8.7l.32-1.61c.99,1.66,5.4,4,6.77,5.8Z"/>
    <path class="cls-32" d="M103.73,33.84c-2.62.52-7.37-1.53-7.57-4.83.33.58.6.5,1.13.64,2.99.81,3.73.4,6.44-1.29v5.48Z"/>
    <path class="cls-12" d="M103.73,135.64c-2.41-.17-4.72.43-7.09.64-1.95.18-3.69.34-5.64,0-.22.12.38,1.31.48,1.61-.93,0-1.27-1.9-.48-2.26.48-.18,5.18,1.44,4.99-.64,3.17-.08,4.76-1.74,7.73-2.58v3.22Z"/>
    <path class="cls-3" d="M102.76,27.08c.41.07.59.07.97.32v.97c-2.71,1.69-3.45,2.1-6.44,1.29-.73-.69-.91-1.38-1.29-2.26,1.35-.23,1,.88,3.06.64,1.33-.15,1.94-1.29,3.7-.97Z"/>
    <path class="cls-32" d="M101.15,107.61c.58.96,1.7,1.88,2.58,2.58v3.87c-1.95.47-5.59-6.34-2.58-6.44Z"/>
    <path class="cls-37" d="M102.76,9.68c.07,3-.93,6.3.97,9.02v1.93c-.45-.15-.91-.75-1.29-.97v-.32c-.47-3.22-1.29-6.54,0-9.66.02,0,.31,0,.32,0Z"/>
    <path class="cls-41" d="M103.73,9.36v9.34c-1.89-2.72-.89-6.02-.97-9.02.35-.07.5-.47.97-.32Z"/>
    <path class="cls-7" d="M103.73,118.25v.97c-2.02.16-2.34-1.3,0-.97Z"/>
    <path class="cls-43" d="M103.73,6.14c-.73-.73-.72-1.85,0-2.58v2.58Z"/>
    <path class="cls-40" d="M66.36,33.2c.92.23,3.38,1.21,4.51,1.61-.93.87-.46,2.82-.64,3.38-.33,1.01-2.85,3.75-.97,4.35-2.79,2.48,6.4,6.72,9.34,6.44-.01,1.2,2.23,2.27,2.58,2.9.68,1.24-1.19,2-.32,3.54-.72,1.44-1.75,2.63-2.26,4.19-.11.32-.66.1-.64,1.77,0,.22.83,3.9.97,4.35.23.76,1-.31,1.29.97-2.76-.71-1.31,4.14-1.61,5.96-.57,3.4-3.54,10.42-7.89,9.83-1.79-.24-3.72-3.53-6.12-2.26l-.48-.48c.34-.12.42-.26.64-.48.11-.11.22-.21.32-.32,1.92-1.92,6.08-4.36,5.8-7.73-.89-3.01,2.31-2.52,1.93-4.99-.03-.18-.93-.78-.97-.97-.25-1.38,1.75-1.43-1.45-3.38-.12-.07-2.09,1.02-1.45-1.29,1.25.16,3.05.8,3.87-.81,1.77-3.5-7.37-1.52-9.02-1.45-1.82.08-3.45-.49-5.32-.32-1.32.12-5.06,1.99-5.64,1.13-.3-2.98-1.96-8.58-.32-11.28,1.73-2.85,9.09-.49,9.66-2.58.02-.07-.66-.57-.64-.64.06-.22,1.92-.4,1.29-1.93-.76-1.66-8.69.91-10.15,1.45-1.3-.93,3.92-9.99,5.48-10.95,2.72-1.69,5.43-.69,8.21,0Z"/>
    <path class="cls-40" d="M88.91,57.36c-.12.48-.65.55-.64,1.13s1.76,4.33,1.93,5.8c.34,2.94.59,8.09.64,11.11.18,10.99-7.31,6.34-15.3,7.41,1-2.82,2.91-5.27,3.7-8.21.23-.87,1.1-7.28.97-7.89-.28-1.27-1.05-.2-1.29-.97l2.9-1.77-3.22-4.35c.51-1.56,1.53-2.75,2.26-4.19,1.7,1.03,1.28,3.89,3.22,4.35-4.15-6.32-1.89-7.94,3.06-12.4.46,3.15.83,6.29,2.74,8.86-.29.37-.84.65-.97,1.13Z"/>
    <path class="cls-17" d="M67.33,60.26c.57.11,1.01.25,1.61.32-.64,2.3,1.33,1.22,1.45,1.29,3.2,1.95,1.2,2,1.45,3.38.03.19.94.78.97.97.38,2.48-2.83,1.98-1.93,4.99,0-.07-.64-.85-.32-1.45l-14.5,5.8,9.02,3.38c-.11.11-.21.21-.32.32-1.51-1.38-10.74-2.99-10.95-4.19,1.83.29,3.13-1.27,4.83-1.93,1.49-.58,9.28-2.6,10.47-3.87.16-.17.33-.32.48-.48.04-.25-.63-.13-.64-.16-1.28-2.81-8.83-4.89-12.08-4.51-.4.05-1.53.68-2.09.64.58-3.71,5.39-6.03,8.86-5.8,1.2.08,2.74,1.11,3.7,1.29Z"/>
    <path class="cls-39" d="M68.94,68.63c-3.1.34-8.9,1.16-10.31,4.51-1.7.67-3,2.22-4.83,1.93,1.37-3.27.45-7,.97-10.31.56.03,1.7-.6,2.09-.64,3.25-.38,10.8,1.7,12.08,4.51Z"/>
    <path class="cls-23" d="M81.5,118.89c-2.45-3.78-2.18-6.87-5.8-10.95,2.38-.13,5.24,1.69,7.89,2.58.92.31,1.19-1.2.97.97l9.83,3.7c-2.62,2.76-6.24,1.38-8.86,2.09-1.68.46-2.58,3.13-4.03,1.61Z"/>
    <path class="cls-12" d="M103.41,123.08c-6.51,4.13-12.9.21-19.01-1.29.07-.61-.83-.98-1.29-1.29,2.94-1.52,6,1.36,8.54,1.61,3.5.34,9.55-2.76,11.76.97Z"/>
    <path class="cls-22" d="M92.13,76.69l-1.29-1.29c-.05-3.02-.31-8.18-.64-11.11-.17-1.47-1.92-5.2-1.93-5.8s.52-.64.64-1.13l1.61-.64c1.03,2.8,2.61,3.22,2.26,6.93-.08.86-1.24,2.93-1.29,3.54-.2,2.75.65,6.47.64,9.5Z"/>
    <path class="cls-28" d="M68.94,60.58c-.6-.08-1.04-.21-1.61-.32-.17-1.45-2.68-.84-3.54-1.93,1.65-.07,10.79-2.05,9.02,1.45-.81,1.61-2.61.96-3.87.81Z"/>
    <path class="cls-29" d="M71.19,34.81c-.09-.03-.23.03-.32,0-1.13-.4-3.59-1.38-4.51-1.61l.32-2.9c2.62.72,6.2,1.28,4.51,4.51Z"/>
    <path class="cls-32" d="M71.52,35.13c5.03,1.95,8.88,5.01,13.37,6.77.6.23,5.65.88,5.64,1.45l-9.34,8.54c-.34-.63-2.59-1.7-2.58-2.9,1.3-.12,3.96-1.75,4.19-3.06.7-4.08-10.15-6.38-13.53-3.38-1.88-.6.64-3.34.97-4.35.18-.56-.29-2.52.64-3.38.1.03.23-.03.32,0,.02,0-.12.15.32.32Z"/>
    <g>
      <path class="cls-14" d="M81.5,20.96s-.61.09-.32.81c.14.35,4.89,5.05,5.32,5.32,3.21,1.99,8.87,2.19,5.32-2.58.97.25,2.56.58,3.54.64-.03.81.33,1.54.64,2.26.38.87.56,1.56,1.29,2.26-.52-.14-.79-.07-1.13-.64.2,3.3,4.95,5.36,7.57,4.83v.32c-2.62.91-10.07,7.73-12.08,8.05s-6.12-1.59-7.41-1.61c-3.14-.8-7.28-4.78-9.99-5.8-.17-.06-2.71-.47-2.74.32-.44-.17-.3-.31-.32-.32,1.69-3.23-1.89-3.79-4.51-4.51s-5.13-.77-7.73-1.45c-.55-1.48,9.14-11.52,11.28-12.4,3.79-1.58,7.62-1.26,10.31,2.09.64.8.82,2.14.97,2.42Z"/>
      <path class="cls-22" d="M77.48,27.72c3.23-.19,8.29,2.77,8.54,6.28-3.01,5.46-15.5-5.87-8.54-6.28Z"/>
    </g>
    <path class="cls-5" d="M99.87,24.5c-.94.72-3.41.72-4.51.64-.98-.07-2.57-.39-3.54-.64-2.11-.55-2.27-1.08-3.87-1.93.72-.65,1.87-1.06,2.58-1.61,1.15.96,2.76.16,4.35.64,1.25.38,3.81,2.1,4.99,2.9Z"/>
    <path class="cls-5" d="M102.76,27.08c-1.76-.32-2.38.82-3.7.97-2.06.23-1.71-.88-3.06-.64-.31-.72-.67-1.45-.64-2.26,1.1.07,3.57.08,4.51-.64.84.57,2.54,1.63,2.9,2.58Z"/>
    <g>
      <path class="cls-9" d="M103.73,35.78v42.2c-.75.25-.51,1.68-.81,1.93-.71.61-10.62,2.72-11.28,2.26-.19-1.9.48-3.49.48-5.48,0-3.04-.84-6.75-.64-9.5.04-.61,1.21-2.69,1.29-3.54.36-3.7-1.23-4.13-2.26-6.93-1.31-3.56-3.42-6.61-1.29-10.47.58-1.06,8.94-7.8,9.5-7.57.14,2.68,1.17,4.69,1.13,7.25l1.13,2.42c.5-5.19-4.51-10.52,2.74-12.56Z"/>
      <path class="cls-44" d="M95.19,49.95c4.55-.32,5.62,12.19,2.58,12.56-2.42.3-7.56-12.22-2.58-12.56Z"/>
    </g>
    <path class="cls-32" d="M88.91,12.26l3.87,6.44c-.64.51-1.67,1.8-2.26,2.26-.7.55-1.86.96-2.58,1.61-.92-.49-2.87-1.3-3.54-1.93-2.02-1.89-1.89-4.99-4.83-6.28,3.55-2.64,5.71-1.87,9.34-2.09Z"/>
    <path class="cls-30" d="M98.58,9.04c.75.16,1.56-.5,2.74-.32.27.04.13.64.16.64l-1.93.81c.95,1.65.34,3.51.64,4.99-2.04-.52-1.54.5-2.09.64-.07.02-.95-.78-1.29-.64-.17.07-.28.93-.81,1.29-1.88-1.64-1.77-3.09-2.26-5.15-.19-.81.22-2.31,0-3.06-.08-.28-.63-.12-.64-.16.04-.17.24-.54.32-.64,1.8-.06,3.75,1.3,5.15,1.61Z"/>
    <path class="cls-25" d="M102.44,9.68c-1.29,3.13-.47,6.45,0,9.66-1.28-.91-1.96-2.76-2.26-4.19s.31-3.34-.64-4.99l1.93-.81c.17.03.67.23.97.32Z"/>
    <path class="cls-35" d="M98.25,6.46c-.05-.57-.05-1.36,0-1.93l4.83,3.7-4.83-1.77Z"/>
    <path class="cls-28" d="M78.6,48.98c-2.94.28-12.13-3.97-9.34-6.44,3.38-3,14.23-.69,13.53,3.38-.22,1.31-2.89,2.94-4.19,3.06Z"/>
    <path class="cls-32" d="M70.87,71.21c.28,3.37-3.88,5.81-5.8,7.73l-9.02-3.38,14.5-5.8c-.32.6.32,1.38.32,1.45Z"/>
    <path class="cls-17" d="M78.93,65.74c-.14-.45-.96-4.13-.97-4.35-.01-1.67.54-1.45.64-1.77l3.22,4.35-2.9,1.77Z"/>
    <path class="cls-23" d="M68.94,68.63s.68-.09.64.16c-.16.16-.33.32-.48.48-1.19,1.27-8.98,3.28-10.47,3.87,1.41-3.35,7.21-4.17,10.31-4.51Z"/>
    <g>
      <path class="cls-8" d="M93.42,170.11l-.16,1.93,10.47-.32v3.87c-2.57-.21-4.69.78-7.09-.48-.76,1.43,2.89,1.06,3.06,1.13.6.24,1.16,2.63,4.03,1.61v1.29c-1.73.27-8.82-2.3-7.25.32-.58-.39-1.36-.19-1.77-.32-.97-.3-2.83-2.38-4.19-1.29l-2.9-2.58c.44-.52,1.57-3.05,1.93-3.54,2.47-.06,1.8-1.53,1.93-1.61.19-.11,1.46.04,1.93,0Z"/>
      <path class="cls-8" d="M103.73,183.96v1.93c-1.17.37-2.77,1.68-3.87,1.93-2.3.52-2.78-.37-3.7-.32-.08,0-1.03.97-1.29.97-.48-.02-4.29-.55-4.51-.64-.47-.2-.54-1.06-.81-1.29,1.43-.6.86-2.53,2.26-2.26.2.4,1.59,2.87,1.77,2.9,2.04-.31-.28-4.13.32-4.51,3.74,2.58,10.05,5.4,3.7-1.29l6.12,2.58Z"/>
      <path class="cls-8" d="M103.73,164.63v5.15c-1.69.81-2.73-.32-2.9-.32l1.77-1.61c-1.05-.38-2.55,1.33-3.22,1.29-1.06-.06.05-.93-.32-.97-1.57-.16-3.45.32-4.99.64l-5.8-.97c.93-.38,1.35-1.13,2.26-1.29.57,2.09.54,1.22,2.9.97s8.78-1.08,7.73-4.19c.7.05,1.96.87,2.58,1.29Z"/>
      <path class="cls-15" d="M103.73,179.13v1.61l-4.19-.81,4.19,2.42v1.61l-6.12-2.58-2.9-2.26c.42.13,1.2-.07,1.77.32-1.58-2.63,5.52-.05,7.25-.32Z"/>
      <path class="cls-34" d="M100.83,169.47c.17,0,1.21,1.13,2.9.32v1.93l-10.47.32.16-1.93c1.98-.19,5.62-.64,7.41-.64Z"/>
      <path class="cls-34" d="M103.73,175.59v2.26c-2.87,1.02-3.43-1.37-4.03-1.61-.17-.07-3.82.3-3.06-1.13,2.39,1.26,4.52.28,7.09.48Z"/>
      <polygon class="cls-8" points="103.73 180.74 103.73 182.35 99.54 179.94 103.73 180.74"/>
      <path class="cls-8" d="M97.29,149.49v.32c-1.97.61-8.13,10-7.09,12.72.72,1.26,6.05-5.57,6.12-6.12.09-.65-2.74-2.59,2.26-3.22l-.32,3.38c-1.09,2.66-1.83,3.31-3.87,5.32.25,1.29,4.95.6,6.12,1.45-1.04.02-8.04,2.95-8.21,3.54l1.13.64c-2.36.26-2.33,1.12-2.9-.97-.1-.38,1.16-.7.16-1.29-1.11-.12-2.48.16-3.54,0-.27-.04-.13-.64-.16-.64,1.09-4.92-.95-2.02-1.93-3.87-.2-.38-.19-1.91-.32-2.26l.97-.32c.69,5.14,2.12-2.36,2.58-3.7.49-1.44,2.85-7.2,2.9-8.38.14-3.26-1.93-.68-2.58.97-.53,1.34-.37,3.01-.64,4.35l-1.29-.16.81-6.6c-.95-.69-2.43,4.54-3.06,4.83.44-2.74.76-5.92.97-8.7,3.48.22,3.02,2.05,4.67,3.22.2.14,1.42-.14,1.61,0,1.32.98,2.76,3.6,3.87,4.19.68.36,2.9-1.14,1.77,1.29Z"/>
      <path class="cls-24" d="M74.09,156.58c.14.45.68.88.97,1.29,1.52,2.19,4.13,3.62,4.99,6.44l2.09-2.26c.05.08.79-.17.97.16.09.16.03,2.71.16,2.74.3.06,2.63-.49,3.7-.32.03,0-.11.6.16.64,1.07.16,2.43-.12,3.54,0,1,.58-.27.91-.16,1.29-.91.16-1.32.91-2.26,1.29-.34.14-.61.31-.64.32-1.65.59-4.14.06-4.83,2.26-1.48-2.17-4.16-1.82-6.6-1.93-.15,0-.62,1.08-2.58.64-.27-.06.05-.48-.48-.64-.61-2.43,4.23-3.14,4.19-4.67-.02-.63-4.17-5.6-4.83-6.6v-.32l1.61-.32Z"/>
      <path class="cls-8" d="M63.14,151.43c-1.45,3.1,1.83,4.48,2.42,7.09-2.67-1.51-2.12-3.17-3.87-5.48v2.9c-2.4-2.55-7.59-5.49-2.09-.16-8.92-1.05-.52,1.12,2.26,2.26l-6.12.32,9.02,2.09s-.23.62-.48.64c-1.88.22-4.4-.73-6.44-.32-.38.77,2.31.9,2.74.97l-2.9,2.9c-4.1-1.52-7.04-1.48-4.83-7.25.05-.14,1.17-2.06,1.29-2.26.19-.31,2.52-3.62,2.74-3.7.76-.29,4.13.56,6.28,0Z"/>
      <path class="cls-8" d="M72.48,157.22c.66,1,4.81,5.97,4.83,6.6.05,1.53-4.8,2.24-4.19,4.67-2.68-.84-4.15-1.17-3.87-3.87,1.9-.26,1.53-2.73,1.61-2.9.03-.06.75-.99.81-.97.33.1,1.25,1.46,1.93,1.61,1.12-1.72-1.91-4.32-3.22-5.15-.4-.26-1.07.52-1.61.32-.33-.12-2.28-3.7-2.9-4.19-1.1,2.26,2.41,4.32,2.58,6.44-1.67-1.77-4.61-6.28-4.35-8.7.11-1.03,1.47-1.88,2.42-2.26.66,1.34,3.43,3.15,4.03,4.03.32.46.9,2.78,1.93,4.35Z"/>
      <path class="cls-15" d="M70.87,161.73c-.64-.23-1.65-1.89-1.77-1.93-.53-.18-1.52.96-1.61.97-.73.04-1.52-.98-1.61-.97-.31.06-.02.93-.32.97-.48.06-.53-.37-.81-.32l-9.02-2.09,6.12-.32c-2.77-1.13-11.18-3.31-2.26-2.26-5.49-5.33-.3-2.39,2.09.16v-2.9c1.75,2.31,1.2,3.97,3.87,5.48-.59-2.61-3.87-3.98-2.42-7.09.35-.09.6-.05.97-.32-.26,2.42,2.68,6.93,4.35,8.7-.17-2.12-3.68-4.19-2.58-6.44.62.49,2.57,4.07,2.9,4.19.54.2,1.21-.58,1.61-.32,1.31.84,4.35,3.43,3.22,5.15-.69-.15-1.61-1.51-1.93-1.61-.06-.02-.78.91-.81.97Z"/>
      <path class="cls-8" d="M79.57,143.37c-2,4.06-.55,10.09.64,14.17.73,2.5.44,2.38,1.93,4.51l-2.09,2.26c-.87-2.82-3.47-4.25-4.99-6.44.6-.19,2.14,1.86,2.58,1.13.77-1.3-2.9-3.63-.64-3.7.3.4.6.82.81,1.29,1.48-3.92-1.76-8.56,1.13-12.08-3.11,1.11-2.93,6.35-2.9,9.18-.6-1-1.28-1.8-1.29-3.06l-.64.32c-.63.95-.37,4.48,0,5.64l-1.61.32c-2.21-4.81,2-12.78,7.09-13.53Z"/>
      <path class="cls-31" d="M84.4,149.49c.63-.29,2.11-5.53,3.06-4.83l-.81,6.6,1.29.16c-.12.59-.49,2.93-.64,3.06-.2.17-2.35-1.84-1.61,3.7l-.97.32c-.02-.05-.49-.54-.48-.97l-.97,1.61-1.29-2.26c-.39.14.38,1.63.48,1.93l-1.29-1.93c1.27-1.06.16-4.87.32-6.93.22-2.83,2.06-6.3,0-8.54.09-.04,1.57-.27,1.93-.32-.25,4.21-1.72,8.43-1.29,12.72.02.22.25,3.08.97,2.58.83-2.25.91-4.61,1.29-6.93Z"/>
      <path class="cls-36" d="M81.18,156.9c-.06.05-.95-.02-.97.64-1.19-4.08-2.64-10.11-.64-14.17.46-.94.93-1.52,1.93-1.93,2.06,2.24.22,5.71,0,8.54-.16,2.05.95,5.87-.32,6.93Z"/>
      <path class="cls-10" d="M67.65,172.37c.18,1.57,2.11-.9,2.26,1.61-.34.12-1.76,1.01-2.26,1.29-2.17,1.24-3.64,3.39-6.12,3.87.95-1.69-1.04-.81-.97.32l-.32-.32c.46-2.18-.72-2.09.97-3.87,1.03-1.08,4.92-2.6,6.44-2.9Z"/>
      <path class="cls-15" d="M85.37,140.8c-.2,2.78-.52,5.96-.97,8.7-.37,2.32-.46,4.68-1.29,6.93-.72.51-.94-2.36-.97-2.58-.43-4.29,1.04-8.52,1.29-12.72.72-.11,1.07-.38,1.93-.32Z"/>
      <path class="cls-15" d="M61.85,171.08c-.14.96.86.63,1.45.64,2.78.06,5.72-.28,8.54-.32l-1.29.64c-1.06.05-1.86.11-2.9.32-1.52.3-5.42,1.82-6.44,2.9-.77-1.08-1.47-.45-2.26-.32l-1.29-1.77,1.93-.64c-.47-.69-.63-.21-1.29-.16-.03-.15-.6-.63-.64-.64,1.66-1.08,2.32-.47,4.19-.64Z"/>
      <path class="cls-8" d="M61.21,181.71c-.11.01-.22-.02-.32,0-.09.01.48-.81-1.29-.64-.77-.29.04-1.76.64-1.93l.32.32c.38-.26.57-.24.97-.32,2.48-.48,3.95-2.63,6.12-3.87-.45.84.66,1.68.64,1.77-.11.82-5.63,4.48-7.09,4.67Z"/>
      <path class="cls-15" d="M64.11,163.99c-2.33.11-3.47.12-4.51,1.93-.79-.55-.94-.92-1.93-1.29l2.9-2.9c2.01.3,3.57-1.23,3.54,2.26Z"/>
      <path class="cls-16" d="M54.44,172.04v1.29c-.1,0-.22,0-.32,0-.96.06-1.82-.07-2.58.81,0,.12.83.32.97.48.37.47.96.66.97,1.29-.09.02-.02.16-1.29.32.17-1.31-1.54-.29-.64.32-1.19.84-1.09-2.77-1.93-3.54.93-.38,3.64-.74,4.83-.97Z"/>
      <path class="cls-4" d="M57.66,171.72s.61.49.64.64c-3.48.27-.91,1.61-.97,1.77-.06.18-2.42-.37-1.29,1.13-.54.11-1.1.21-1.61.32l1.29-2.42c-.46-.4-.67.2-1.29.16v-1.29c1.67-.31.28-1.13,3.22-.32Z"/>
      <path class="cls-34" d="M58.95,174.94c-.69.11-2.49.24-2.9.32-1.13-1.49,1.23-.95,1.29-1.13.05-.17-2.51-1.5.97-1.77.66-.05.82-.53,1.29.16l-1.93.64,1.29,1.77Z"/>
      <path class="cls-42" d="M54.44,175.59s-.43.22-.97.32c0-.63-.59-.81-.97-1.29.14-.03.61-.29.64-.32.18.71.53-.17.64-.32.03-.04.52-.02.32-.64.1,0,.22,0,.32,0,.62.04.83-.56,1.29-.16l-1.29,2.42Z"/>
      <path class="cls-26" d="M53.48,167.21c-.45.72-.28,1.32-1.29,1.61.3-.97-.24-1.85,1.29-1.61Z"/>
      <path class="cls-42" d="M52.19,176.23s.13.39-.64.32c-.9-.61.82-1.63.64-.32Z"/>
      <path class="cls-34" d="M54.76,168.18c-.65,1.05-1.28.37-.64-.64.49.27.61.62.64.64Z"/>
      <path class="cls-6" d="M84.72,180.42c3.63.13,4.96.36,3.87,4.83-1.58-1.14-3.13-1.12-4.67-2.26-.66,1.6-2.17,5.21-1.77,6.77-5.36.7.56-9.63-4.19-9.02,0-.41-.2-1.21.32-1.29,2.38-.34,1.81-.41,3.38-1.93-.78,2.12.51,3.56,2.58,3.54.23,0,.44-.65.48-.64Z"/>
      <path class="cls-31" d="M82.15,189.76c.08.31,3.01,2.98,3.87,4.83-.37-.06-.31.31-.32.32-.58.53-2.48,1.5-2.58,1.61-2-.8.09-2.41,0-2.74-.11-.42-5.65-2.24-6.77-5.15-.81-2.12-.57-4.47,1.61-1.61.02-2.09-.02-4.19,0-6.28,4.74-.61-1.17,9.72,4.19,9.02Z"/>
      <path class="cls-34" d="M90.52,177.84c-1.84,1.47.64,3.46.97,4.35.18.48.25,1.94.32,2.09-1.4-.28-.83,1.65-2.26,2.26-.39-.33-.72-1.11-.97-1.29,1.09-4.47-.24-4.7-3.87-4.83-.45-4.13,1.32-3.26,2.9-5.15l2.9,2.58Z"/>
      <path class="cls-27" d="M87.62,168.18l-1.61,1.77c1.85.55,3.8-.53,5.15.97-.31.43-.74-.37-1.61.81-.36.49-1.5,3.02-1.93,3.54-1.58,1.89-3.35,1.02-2.9,5.15-.04,0-.25.64-.48.64-2.07.02-3.36-1.42-2.58-3.54-1.57,1.52-1,1.6-3.38,1.93-.1.01-.15-.23-1.45,0-.87.15-1.23-.35-1.29-.32-.57.28-.45.93-.48.97-.01.02-.12-.09-.32.32-2.02-1.04-.83-1.72-2.9-.97.3-.83-.34-1.99-.32-2.09.07-.38,1.27-.76,1.29-1.77,0-.12-.71-2.18-.81-2.26-.17-.13-1.76.52-2.09.64-.14-2.51-2.08-.04-2.26-1.61,1.04-.21,1.84-.27,2.9-.32,2.18-.11,6.02.29,8.21.64,1.54.25,3.29,2.71,4.35-.48.24-.73-.45-1.35-.32-1.77.69-2.2,3.19-1.67,4.83-2.26Z"/>
      <path class="cls-36" d="M94.71,179.13l2.9,2.26c6.34,6.69.03,3.87-3.7,1.29-.6.38,1.72,4.2-.32,4.51-.19-.03-1.57-2.5-1.77-2.9-.08-.15-.14-1.61-.32-2.09-.33-.89-2.81-2.88-.97-4.35,1.36-1.09,3.22.98,4.19,1.29Z"/>
      <path class="cls-15" d="M100.83,169.47c-1.79,0-5.43.46-7.41.64-.47.04-1.74-.11-1.93,0-2.17-1.06,1.48-1.06,2.58-1.29,1.54-.32,3.42-.81,4.99-.64.37.04-.73.91.32.97.67.04,2.17-1.67,3.22-1.29l-1.77,1.61Z"/>
      <path class="cls-34" d="M88.27,167.86l5.8.97c-1.1.23-4.75.22-2.58,1.29-.13.08.53,1.56-1.93,1.61.87-1.18,1.3-.37,1.61-.81-1.36-1.5-3.31-.42-5.15-.97l1.61-1.77s.3-.18.64-.32Z"/>
      <path class="cls-31" d="M98.25,156.58l.32-3.38c-5,.63-2.17,2.57-2.26,3.22-.07.55-5.4,7.38-6.12,6.12-1.04-2.72,5.12-12.12,7.09-12.72,3.64-1.12,1.65,5.1.97,6.77Z"/>
      <path class="cls-34" d="M101.15,163.35c1.05,3.11-5.28,3.92-7.73,4.19l-1.13-.64c.17-.6,7.17-3.53,8.21-3.54.21,0,.43-.01.64,0Z"/>
      <path class="cls-15" d="M85.69,158.19c-.74-5.54,1.41-3.53,1.61-3.7.16-.13.52-2.47.64-3.06.27-1.34.12-3.01.64-4.35.65-1.64,2.71-4.23,2.58-.97-.05,1.18-2.4,6.93-2.9,8.38-.46,1.34-1.89,8.84-2.58,3.7Z"/>
      <path class="cls-10" d="M81.18,156.9l1.29,1.93c.48,1.44,1.29,2.35,1.13,4.19l1.45-2.26c.99,1.85,3.02-1.05,1.93,3.87-1.07-.16-3.41.38-3.7.32-.13-.03-.07-2.58-.16-2.74-.18-.33-.91-.08-.97-.16-1.49-2.13-1.2-2.01-1.93-4.51.01-.66.91-.59.97-.64Z"/>
      <path class="cls-21" d="M84.72,158.51c.13.35.12,1.88.32,2.26l-1.45,2.26c.17-1.84-.65-2.75-1.13-4.19-.1-.3-.87-1.79-.48-1.93l1.29,2.26.97-1.61c0,.42.46.92.48.97Z"/>
      <path class="cls-34" d="M70.87,161.73c-.08.17.29,2.64-1.61,2.9-.95.13-3.68-.71-5.15-.64.03-3.49-1.53-1.95-3.54-2.26-.42-.06-3.12-.19-2.74-.97,2.04-.4,4.56.54,6.44.32.25-.03.44-.64.48-.64.27-.04.32.38.81.32.31-.04.01-.91.32-.97.09-.02.89,1,1.61.97.09,0,1.08-1.15,1.61-.97.12.04,1.13,1.7,1.77,1.93Z"/>
      <g>
        <path class="cls-8" d="M64.11,163.99c1.48-.07,4.2.77,5.15.64-.28,2.69,1.18,3.02,3.87,3.87.53.17.22.59.48.64,1.96.43,2.43-.65,2.58-.64,2.44.11,5.12-.23,6.6,1.93-.13.42.57,1.04.32,1.77-1.06,3.2-2.81.73-4.35.48-2.2-.36-6.04-.76-8.21-.64l1.29-.64c2.61-.04,5.31-.19,7.89.32l-.32-.97c-5.86-.75-11.7-.24-17.56.32-1.87.18-2.53-.44-4.19.64-2.95-.81-1.55.01-3.22.32-1.19.22-3.9.59-4.83.97-1.31.53-3.62,4.28-3.54,1.13.05-2.28,3.47-.7-.97-4.19,1.5-2.29,2.08-1.95,4.35-1.77.27.02.13.64.16.64-.3-.12-.99.95-.81,1.29,1.56.58.94-1.23.81-1.29.4.02,1.56.03,1.93,0l-.97,1.13c1.61,2.08,2.02,1.62,4.51.97-.99-2.35-2.54,1.29-3.22-.97-.03-.11,1.98-.82,2.09-.81,1.13.12,2.82,2.06,5.15,1.29l.64-1.93,1.61,1.61c2.79-5.08.64-1.4-2.09-2.58.06-.13-.06-.51,0-.64.36-.75.3-.92.32-.97,1.04-1.81,2.18-1.82,4.51-1.93Z"/>
        <g>
          <path class="cls-37" d="M54.12,167.53c-.64,1.02,0,1.69.64.64.35.22.53.25.64.32.34.2,1.66,1.59,2.09,1.61.85-.33,1.24-1.46,1.77-2.58,2.74,1.18,4.89-2.5,2.09,2.58l-1.61-1.61-.64,1.93c-2.33.77-4.03-1.17-5.15-1.29-.11-.01-2.13.7-2.09.81.68,2.26,2.23-1.38,3.22.97-2.49.66-2.9,1.11-4.51-.97l.97-1.13c.21-.02.48.05.64,0,1-.29.84-.89,1.29-1.61.23.04.44.21.64.32Z"/>
          <path class="cls-33" d="M71.84,171.4c-2.82.04-5.76.39-8.54.32-.59-.01-1.59.32-1.45-.64,5.85-.56,11.7-1.07,17.56-.32l.32.97c-2.58-.51-5.28-.36-7.89-.32Z"/>
          <path class="cls-4" d="M50.42,170.75c.59.1.68.64.81,1.13l-1.77.48-.48-.81c.08-.23,1.37-.82,1.45-.81Z"/>
          <path class="cls-16" d="M48.16,168.5c1.46.18-1.55,2.6-1.13.81.03-.14,1.06-.81,1.13-.81Z"/>
          <path class="cls-4" d="M49.61,168.82c.14.06.75,1.86-.81,1.29-.18-.34.51-1.41.81-1.29Z"/>
          <path class="cls-15" d="M62.66,164.96c.11-.08.71-.05.81.16.24.53-1.84.54-.81-.16Z"/>
          <path class="cls-1" d="M48.16,170.43c.49-.18.71.47.32.64-.47.21-.71-.5-.32-.64Z"/>
        </g>
      </g>
      <path class="cls-34" d="M76.03,153.68c.32.54.58,1.11.97,1.61-2.26.07,1.42,2.4.64,3.7-.44.74-1.98-1.32-2.58-1.13-.28-.41-.82-.84-.97-1.29-.37-1.16-.63-4.69,0-5.64l.64-.32c.01,1.26.69,2.06,1.29,3.06Z"/>
      <path class="cls-36" d="M76.99,155.29c-.39-.51-.64-1.07-.97-1.61-.03-2.83-.21-8.07,2.9-9.18-2.89,3.52.35,8.16-1.13,12.08-.2-.47-.5-.89-.81-1.29Z"/>
      <path class="cls-8" d="M72.81,175.59c-1.4.41-3.56,1.69-4.67,2.58-2.01,1.6-3.44,4.26-5.64,5.48-.27-1.3-1.11-.93-1.29-1.93,1.45-.19,6.98-3.85,7.09-4.67.01-.09-1.1-.93-.64-1.77.5-.28,1.91-1.16,2.26-1.29s1.92-.78,2.09-.64c.09.07.81,2.14.81,2.26Z"/>
      <path class="cls-35" d="M61.53,179.13c-.4.08-.59.06-.97.32-.07-1.13,1.91-2.02.97-.32Z"/>
      <path class="cls-15" d="M54.12,173.33c.2.62-.29.6-.32.64-.6-1.01-.6.28-.64.32-.03.04-.5.29-.64.32-.13-.17-.97-.36-.97-.48.76-.87,1.62-.75,2.58-.81Z"/>
      <g>
        <path class="cls-26" d="M59.27,166.89c-.06.13.06.51,0,.64-.53,1.11-.92,2.25-1.77,2.58-.43-.02-1.76-1.41-2.09-1.61,1.03-1.46,2.13-1.47,3.87-1.61Z"/>
        <path class="cls-16" d="M56.86,167.86c.76.09.2,1.44-.32.64-.21-.32.29-.65.32-.64Z"/>
      </g>
      <path class="cls-20" d="M53.8,173.98c-.11.15-.46,1.03-.64.32.04-.04.04-1.33.64-.32Z"/>
      <path class="cls-34" d="M72.81,175.59c-.02,1.01-1.21,1.39-1.29,1.77-.02.1.63,1.26.32,2.09-3.88,1.42-7.55,9.59-7.73,13.53-.76-.84-1.33-1.41-1.61-2.58-.08-.35-.27-.39-.32-.97-.13-1.56.7-3.97.32-5.8,2.2-1.22,3.63-3.87,5.64-5.48,1.11-.88,3.27-2.17,4.67-2.58Z"/>
      <path class="cls-43" d="M64.11,192.98c-.08,1.75.63,2.74.64,2.9.11,1.17.49,2.22.64,3.54-2.15-2.04-3.33-6.16-2.9-9.02.29,1.16.85,1.73,1.61,2.58Z"/>
      <path class="cls-15" d="M71.84,179.45c-.76,2.1-2.94,4.87-3.87,7.25-1.15,2.96-1.09,6.99-3.22,9.18-.02-.16-.73-1.15-.64-2.9.19-3.94,3.85-12.11,7.73-13.53Z"/>
      <g>
        <path class="cls-15" d="M72.16,202.97c0,.11-.01.22,0,.32l-.64.32c-.95.13-1.48-1.3-1.93-1.61.52-6.15-.69-13.5,2.42-19.01-.58,5.79.23,11.48.48,17.23.02.38-.97,1.42-.97,2.58,0,.26.64.13.64.16Z"/>
        <path class="cls-8" d="M74.74,180.42c-1.91,3.88-.06,17.24,5.64,18.68,1.39-.46-2.33-4.21-2.74-4.99-2.55-4.85-2.53-8.62-2.58-14.01.04-.04-.08-.68.48-.97.06-.03.42.47,1.29.32,1.3-.23,1.35.01,1.45,0-.53.08-.32.88-.32,1.29-.02,2.09.02,4.19,0,6.28-2.18-2.86-2.42-.51-1.61,1.61,1.11,2.91,6.65,4.74,6.77,5.15.09.33-2,1.94,0,2.74-.32.36-.74.86-.97,1.29-.09.18-.95,3.6-.97,3.87-1.26,1.87-3.38,1.05-5.15.97-.32-.01-.65.03-.97,0-1.1-.1-3.31-1.31-2.9.32,0-.03-.64.1-.64-.16,0-1.15.98-2.2.97-2.58-.26-5.76-1.07-11.44-.48-17.23-3.11,5.51-1.9,12.85-2.42,19.01-.09-.06-1.04-.28-1.29-.32-.56-1.24-1.38-1.5-2.58-.97-.03-.24-.04-.36-.32-.32-.04-.31.04-.65,0-.97-.15-1.32-.53-2.38-.64-3.54,2.13-2.19,2.07-6.22,3.22-9.18.92-2.38,3.1-5.15,3.87-7.25,2.07-.76.88-.07,2.9.97Z"/>
        <path class="cls-15" d="M74.74,180.42c.2-.41.31-.3.32-.32.04,5.4.03,9.16,2.58,14.01.41.78,4.13,4.54,2.74,4.99-5.7-1.44-7.55-14.81-5.64-18.68Z"/>
        <path class="cls-15" d="M72.97,184.29l3.22,16.75c-3.58-4.53-3.56-11.23-3.22-16.75Z"/>
        <path class="cls-15" d="M69.1,187.51c.08,3.4,1.16,7.94-1.61,10.63-.59-3.61.8-7.16,1.61-10.63Z"/>
      </g>
    </g>
  </g>
</svg>