<?xml version="1.0" encoding="UTF-8"?>
<svg id="Layer_1" data-name="Layer 1" xmlns="http://www.w3.org/2000/svg" viewBox="0 0 171.65 61.53">
  <defs>
    <style>
      .cls-1 {
        fill: #face34;
      }

      .cls-2 {
        fill: #e7df9d;
      }

      .cls-3 {
        fill: #660d1b;
      }

      .cls-4 {
        fill: #f9f1d2;
      }

      .cls-5 {
        fill: #c22d24;
      }

      .cls-6 {
        fill: #dfcd78;
      }

      .cls-7 {
        fill: #d83c2d;
      }

      .cls-8 {
        fill: #7e8b1c;
      }

      .cls-9 {
        fill: #aa1b19;
      }

      .cls-10 {
        fill: #f47c41;
      }

      .cls-11 {
        fill: #f1d695;
      }

      .cls-12 {
        fill: #78983f;
      }

      .cls-13 {
        fill: #bbc561;
      }

      .cls-14 {
        fill: #fbe285;
      }

      .cls-15 {
        fill: #405b1f;
      }

      .cls-16 {
        fill: #aead28;
      }

      .cls-17 {
        fill: #992127;
      }

      .cls-18 {
        fill: #8ca02b;
      }

      .cls-19 {
        fill: #faf8ef;
      }

      .cls-20 {
        fill: #67812b;
      }

      .cls-21 {
        fill: #da592a;
      }

      .cls-22 {
        fill: #f9934e;
      }

      .cls-23 {
        fill: #f26940;
      }

      .cls-24 {
        fill: #adc2b3;
      }

      .cls-25 {
        fill: #e4b734;
      }

      .cls-26 {
        fill: #f4786a;
      }

      .cls-27 {
        fill: #5c6f1c;
      }

      .cls-28 {
        fill: #f4a550;
      }

      .cls-29 {
        fill: #a1c4c2;
      }
    </style>
  </defs>
  <g>
    <path class="cls-20" d="M151.73,0c-.63,4.24,3.53,2.45,6.28,3.22,1.09.3,9.68,4.78,10.47,5.48.94.84,1.1,1.6,1.61,2.58-8.37,2.19-14.57-8.2-24.16-5.15-1.25-.18-3.48-4.7-3.87-6.12h9.66Z"/>
    <path class="cls-29" d="M137.23,0c1.63,4.03-1.82,4.24-3.54,6.12-.78.85-5.07,5.96-5.15,6.6-.12.91,1.58,4.08,1.93,5.64l-.64.64c-.9-5.67-10.73-12.33-2.58-19.01h9.99Z"/>
    <path class="cls-8" d="M125.31,0c-4.82,4.97-3.48,14.88-1.29,20.94-2.29-1.74-3.92-3.65-5.8-5.8.96-3.27-.79-9.13-5.15-7.09-.43-4.07,4.86-5.47,6.77-8.05h5.48Z"/>
    <path class="cls-12" d="M127.25,0c-8.15,6.67,1.68,13.34,2.58,19.01.25,1.56-.68,3.98-2.42,4.19-1.2.14-2.51-1.59-3.38-2.26-2.19-6.06-3.53-15.97,1.29-20.94h1.93Z"/>
    <path class="cls-20" d="M142.07,0c.38,1.42,2.61,5.94,3.87,6.12l.32,1.61c-3.31-2.41-7.35-.61-8.05,3.22-.08-.74-.93-.29-.97-.32-.91-.89-2.87-3.33-3.54-4.51,1.73-1.88,5.17-2.09,3.54-6.12h4.83Z"/>
    <path class="cls-18" d="M171.38,0c-.12,3.56,1.21,5.35-1.93,7.73-.54-.81-4.92-5.8-5.32-5.8-.18,0-1.38,1.57-1.61,1.61-.73.12-6.98-2.64-7.89-3.54h16.75Z"/>
    <path class="cls-29" d="M154.63,0c.91.9,7.17,3.67,7.89,3.54.23-.04,1.44-1.61,1.61-1.61.39,0,4.78,4.99,5.32,5.8-.35.27-.86.46-.97.97-.79-.7-9.38-5.17-10.47-5.48-2.75-.77-6.91,1.02-6.28-3.22h2.9Z"/>
    <path class="cls-16" d="M112.75,0c-.44,9.03-4.59,4.64-7.41,0h7.41Z"/>
    <path class="cls-16" d="M170.09,11.28c1.87,3.56,1.71,4.79,1.29,8.7-.98-.83-2.44-2.92-3.87-2.42l3.54,4.03c-.21.95.21,2.39-.81,3.22l-3.7-2.9c-2.02-2.08-12.25-7.23-14.82-6.12l-3.22-3.87c-.12-1.8-.85-3.17-2.26-4.19l-.32-1.61c9.59-3.05,15.79,7.34,24.16,5.15Z"/>
    <path class="cls-18" d="M138.2,10.95c-2.04,11.08,10.93,10.44,10.31.97l3.22,3.87c-3.5,1.52-3.66,14.75,0,17.4-1.55-.3-2.46-1.03-3.54-1.29-4.77-1.13-8.27-1.26-13.21-3.87l5.48,1.13c-1.45-1.41-6.08-10.22-5.8-11.6.36-1.79,1.86-.36,2.26-.97-2.1-1.93-1.08-4.02.32-5.96.04.04.89-.42.97.32Z"/>
    <path class="cls-15" d="M166.55,21.91c5.33,5.49,1.07,7.39.16,13.53-.79.55-17.6-.88-18.52-3.54,1.08.25,1.99.99,3.54,1.29,4.84.93,9.3,1.88,14.34,1.61-.25-.83-1.7-1.89-2.42-2.58.68-.05-.25-1.35-.32-1.45-3.28-4.13-6.54-7.69-9.66-12.08-.68-.95-1.17-2.02-1.93-2.9,2.56-1.11,12.8,4.04,14.82,6.12Z"/>
    <path class="cls-8" d="M137.23,10.63c-1.4,1.94-2.42,4.03-.32,5.96-.4.61-1.89-.82-2.26.97-.28,1.38,4.35,10.18,5.8,11.6l-5.48-1.13c-6.44-3.4-3.06-3.29-4.51-9.66-.35-1.55-2.05-4.72-1.93-5.64.09-.65,4.37-5.75,5.15-6.6.67,1.18,2.64,3.62,3.54,4.51Z"/>
    <path class="cls-12" d="M118.23,15.14c-1.33-1.53-4.94-5.05-5.15-7.09,4.36-2.04,6.12,3.82,5.15,7.09Z"/>
    <path class="cls-13" d="M171.38,19.97c-.07.65-.19,1.01-.32,1.61l-3.54-4.03c1.43-.5,2.88,1.58,3.87,2.42Z"/>
    <path class="cls-24" d="M146.25,7.73c1.4,1.02,2.14,2.39,2.26,4.19.62,9.47-12.35,10.11-10.31-.97.71-3.84,4.75-5.63,8.05-3.22Z"/>
    <path class="cls-27" d="M153.66,18.68c-1.64.38.75,2.79.97,3.38.2.55-.2,2.04,0,2.58s7.68,6.29,9.02,7.57c.72.69,2.17,1.75,2.42,2.58-5.04.27-9.5-.68-14.34-1.61-3.66-2.64-3.5-15.87,0-17.4.77.88,1.26,1.95,1.93,2.9Z"/>
    <path class="cls-12" d="M153.66,18.68c3.13,4.39,6.38,7.95,9.66,12.08.08.09,1,1.4.32,1.45-1.34-1.28-8.81-7.02-9.02-7.57s.2-2.03,0-2.58c-.22-.59-2.61-3-.97-3.38Z"/>
  </g>
  <g>
    <g>
      <path class="cls-4" d="M49.93,35.76c5.12,6.71-6.98,10.22-11.92,10.31-.47-.84-4.63-2.11-4.83-2.74-.54-1.68,2.51-1.65,2.26-2.9-.08-.39-.93-.5-.97-.64-.29-1.08-.13-3.1-1.61-3.87,3.97-.51.08-.92,1.77-3.06l6.6-1.29c2.77.41,6.92,1.85,8.7,4.19Z"/>
      <path class="cls-4" d="M29.64,32.54v.64c-6.7,3.24-3.64,2.66-.97,6.93.96,1.53,1.78,3.04,2.58,4.67.65,1.33.82,2.39,1.29,3.54l-.97-.16c1.33,2.3.23,5.04.32,7.41,0,.16,1.25,1.1.64,2.74-1.72,3.65-3.77,4.06-7.09,1.93,1.03-1.81-1.46-2.69-1.61-3.38-.27-1.19.81-1.35.64-2.26-.42-2.21-3.57-5.04-3.22-8.21.44-2.75,2.42-1.03,4.35-1.61,2.59-.78,1-4.16,3.7-2.42-1.83-2.61-4-5.05-5.48-7.89-.5-.97-.83-2.22-1.29-3.22l.32-.32c.17.56,2,4.15,2.42,4.19,1.28-.86,2.96-1.96,4.35-2.58Z"/>
      <path class="cls-1" d="M23.84,34.47c1.47,2.85,3.64,5.28,5.48,7.89-2.7-1.74-1.11,1.63-3.7,2.42-1.93.58-3.91-1.14-4.35,1.61-.18,1.12-.09,3.77,0,4.99.12,1.59,2.31,3.12,0,4.03-.89-1.15-1.33-2.48-2.26-3.54-2.19-2.52-1.52-1.46-4.19-.97,1.57-1.9,3.29-.45,1.93-3.87,2.4-2.24,5.1-6.28,6.77-9.18-2.46,2.27-4.28,4.97-6.77,7.25l-2.26-5.15c1.03-.72,3.54-2.79,3.22-4.19.3.06.66-.06.97,0,1.25.23,4.06,1.58,4.67.32l-3.54-.64.81-.97c1.45.53,1.72.56,3.22,0Z"/>
      <path class="cls-1" d="M41.23,31.57l-6.6,1.29c-1.69,2.14,2.19,2.55-1.77,3.06,1.48.76,1.32,2.79,1.61,3.87.04.15.89.26.97.64.25,1.25-2.8,1.22-2.26,2.9.2.63,4.36,1.9,4.83,2.74-.85.01-2.13.12-2.9,0s-2.67-2.22-3.87-1.29c-.8-1.63-1.62-3.14-2.58-4.67-2.67-4.27-5.74-3.68.97-6.93,4.04-1.95,7.15-2.27,11.6-1.61Z"/>
      <g>
        <path class="cls-19" d="M35.76,29.32c-1,.78-.47-.64-.81-.64-1.1,0-1.45.98-1.61.97-1.45-.1-5.34-1.36-7.09-1.61-1.11-.16-2.8,1.47-3.54-.97-.99.01,0,3.31.16,3.87l-.32.32c-.78-1.7-.98-3.38-1.61-4.83-.39-.9-.42-1.67-.97-2.58l2.58-6.6c1.65-3.9,9.69-7.75,12.56-4.19,1.78,2.2,2.62,9.77,2.26,12.56-.16,1.22-1.18,2.63-1.61,3.7Z"/>
        <path class="cls-1" d="M35.76,29.32c-.05.13.03.44,0,.64-1.18.15-4.78,1.98-6.12,2.58s-3.07,1.72-4.35,2.58c-.42-.04-2.25-3.63-2.42-4.19s-1.15-3.85-.16-3.87c.75,2.44,2.44.81,3.54.97,1.74.25,5.64,1.51,7.09,1.61.16.01.51-.97,1.61-.97.33,0-.2,1.42.81.64Z"/>
      </g>
      <path class="cls-2" d="M8.7,37.37c.26,1.06.16,2.15.32,3.22.11.71-.71,1.06.97,1.29-1.82.63-3.53.39-4.35.64s-3.5,3.89-5.64,2.74c.45-5.96,4.92-5.05,8.7-7.89Z"/>
      <path class="cls-11" d="M16.75,45.1c-3.62,3.31-9.72,7.97-14.34,5.48,1.58.66,10.47-3.27,11.11-4.03,1.03-1.22-1.03-3.69-1.29-4.99.38-.18,1.71-1.23,2.26-1.61l2.26,5.15Z"/>
      <path class="cls-6" d="M14.17,34.79c-1.69,1.48-1.13,4.04-3.06,5.15-.37.21-1.61.2-2.09.64-.17-1.07-.07-2.16-.32-3.22.44-.33,2.11-1.13,1.93-1.77-2.28-1.29-3.71-3.19-5.15-5.32,2.92,1.83,5.37,3.39,8.7,4.51Z"/>
      <path class="cls-14" d="M17.72,35.76c.32,1.4-2.19,3.47-3.22,4.19-.55.38-1.88,1.43-2.26,1.61-.11.05-.98-.12-2.26.32-1.67-.23-.86-.58-.97-1.29.48-.45,1.72-.43,2.09-.64,1.93-1.11,1.37-3.67,3.06-5.15,1.17.39,2.34.71,3.54.97Z"/>
      <path class="cls-19" d="M35.76,29.96c4.18-.55,12.37,1.58,14.17,5.8-1.78-2.33-5.93-3.78-8.7-4.19-4.45-.66-7.56-.34-11.6,1.61v-.64c1.34-.59,4.94-2.42,6.12-2.58Z"/>
      <path class="cls-6" d="M14.82,50.9c-1.38.26-2.74.91-4.19.97-.53,0-1.08,0-1.61,0,2.79-1.19,5.49-2.74,7.73-4.83,1.36,3.41-.36,1.96-1.93,3.87Z"/>
      <path class="cls-6" d="M35.11,46.07l-1.77,3.87c-.48-.41-.58-1.05-.81-1.61-.47-1.16-.64-2.21-1.29-3.54,1.2-.93,3.09,1.16,3.87,1.29Z"/>
      <path class="cls-11" d="M25.45,60.24c-1.71-1.1-2.95-2.95-4.19-4.51-.05-.07.05-.26,0-.32,2.31-.91.12-2.44,0-4.03-.09-1.22-.18-3.87,0-4.99-.35,3.17,2.8,6,3.22,8.21.17.9-.91,1.07-.64,2.26.16.69,2.64,1.57,1.61,3.38Z"/>
      <g>
        <path class="cls-19" d="M15.46,20.3c-2.43,1.35-.03,1.95,0,2.09.07.39,0,2.49,0,3.06-.64-.56-4.03-2.12-4.51-.81-.31.84,2.49,3.18,1.93,4.67-.31.84-1.61,1.23-1.61,2.26-4.29-2.68-4.66-3.2-7.41-7.25-.61-.89-.17-.74-1.29-.48-.93-12.31,6.69-7.73,12.89-3.54Z"/>
        <path class="cls-11" d="M15.46,20.3c1.68,1.14,3.33,1.58,4.51,3.54.55.9.58,1.68.97,2.58-1.47-.11-1.6.96-1.93,1.29-.07.07-.59-.15-.97.16-.17.14-.78,2.48-3.22,2.58-.16.62,2.13,1.77,2.58,2.09-.45.53-.61,1.03-.97,1.61-1.79-.81-3.48-1.53-5.15-2.58,0-1.03,1.3-1.41,1.61-2.26,2.83-.1,5.55-1.24,2.58-3.87,0-.57.07-2.67,0-3.06-.03-.14-2.43-.74,0-2.09Z"/>
        <path class="cls-19" d="M11.28,31.57c1.68,1.05,3.36,1.76,5.15,2.58.63.29,3.04.92,2.26,1.61-.3-.06-.67.06-.97,0-1.21-.26-2.38-.58-3.54-.97-3.33-1.12-5.78-2.68-8.7-4.51-1.66-2.44-2.64-2.99-2.9-6.44,1.12-.26.68-.41,1.29.48,2.75,4.05,3.12,4.57,7.41,7.25Z"/>
        <path class="cls-25" d="M20.94,26.42c.63,1.46.83,3.14,1.61,4.83.46,1,.78,2.25,1.29,3.22-1.5.56-1.78.53-3.22,0-1.06-.39-2.29-1.27-3.22-1.93,1.81-2.11,4.29-1.8,1.61-4.83.33-.32.46-1.4,1.93-1.29Z"/>
        <path class="cls-14" d="M20.62,34.47l-.81.97,3.54.64c-.61,1.26-3.42-.09-4.67-.32.79-.7-1.62-1.32-2.26-1.61.36-.58.52-1.08.97-1.61.93.66,2.16,1.55,3.22,1.93Z"/>
        <path class="cls-4" d="M15.46,25.45c2.97,2.62.25,3.76-2.58,3.87.56-1.5-2.24-3.84-1.93-4.67.48-1.31,3.87.24,4.51.81Z"/>
        <path class="cls-1" d="M19.01,27.7c2.68,3.03.2,2.72-1.61,4.83-.45-.32-2.74-1.48-2.58-2.09,2.44-.1,3.05-2.43,3.22-2.58.38-.31.9-.09.97-.16Z"/>
      </g>
    </g>
    <g>
      <path class="cls-10" d="M83.44,0c.38,1.41-2.89,5.76-1.77,6.12,2.89-1.01,3.36-3.43,3.7-6.12h2.58c-.54,3.29-2.14,6.35-5.48,7.41-1.95-1-2.86-2.82-3.06-2.9-.29-.11-1.65,1.42-2.9,1.29s-4.43-4.2-5.32-1.13c-.29.99.66,1.86-.16,2.74-.52.56-3.27.71-4.03.64-.21-.02-.44.03-.64,0l-.32-2.09h1.93c-.08-.59-.56-.47-.97-1.13.88-.59,3.4,1.98,3.87.48.21-.67-4.09-3.83-3.22-5.32h15.79Z"/>
      <path class="cls-7" d="M55.41,0l1.29,1.29s.26.68-.48.64c-.12,0-1.47-1.22-1.93-1.29-1.97-.28-2.75.52-3.87.64-.49.06-2.84-1.14-3.38.81-.5,1.79,2.45,2.07.97,3.38-2.84-.37-5.31-.32-1.29,1.61l-2.26.64c-.62.05-1.09.09-1.61.48-.26.87,7.87,2.62,9.02,3.06-.03,0,.11.61-.16.64-3.35.39-7.26-2.39-9.5.16,3.23,1.02,6.61,1.3,9.99,1.45v.64c-4.27.19-7.71.63-11.6,2.58-.29-1.6-.46-3.04-.32-4.67.07-.76,1.26-1.2,1.29-1.29.15-.56-1.07-1.73-.64-3.22.12-.42,1.12-.52,1.29-.97.03-.09-.68-.72,0-1.93s2.89-1.36,2.9-1.61c0-.18-2.13-1.61-1.61-3.06h11.92Z"/>
      <path class="cls-10" d="M59.6,0l3.7,3.22c1.45-.05-1.76-2.61-1.45-3.22h2.9c-.55,1.49,3.13,2.67,3.22,3.06-.96,1.62-1.9.26-.97,1.77.4.65.89.54.97,1.13h-1.93l.32,2.09c-.54-.09-4.7-1.66-5.15-1.93-.39-.24-1.63-1.27-1.93-1.61-1.28-1.44-1.31-3.45-2.58-3.22l-1.29-1.29h4.19Z"/>
      <path class="cls-10" d="M93.42,0c.23.97-.74,1.94-.97,2.58-2.45,1.66-3.39,5.39-6.77,5.8-1.37.17-1.57-.3-2.58-.64-.03-.01-.5-.25-.64-.32,3.34-1.06,4.93-4.12,5.48-7.41h5.48Z"/>
      <path class="cls-22" d="M96.97,0c-.24.58.33,1.03.32,1.29-.09,4.33-4.11,6.77-7.89,7.73-1.28-.34,2.21-3.35,2.74-4.35.1-.19.18-1.71.32-2.09.23-.63,1.2-1.61.97-2.58h3.54Z"/>
      <path class="cls-10" d="M67.65,0c-.87,1.48,3.43,4.64,3.22,5.32-.47,1.5-2.99-1.08-3.87-.48-.93-1.51,0-.15.97-1.77-.09-.39-3.77-1.57-3.22-3.06h2.9Z"/>
      <path class="cls-7" d="M85.37,0c-.35,2.69-.82,5.11-3.7,6.12-1.12-.37,2.15-4.71,1.77-6.12h1.93Z"/>
      <path class="cls-7" d="M61.85,0c-.31.61,2.9,3.17,1.45,3.22l-3.7-3.22h2.26Z"/>
      <path class="cls-7" d="M79.57,19.97c.44.96.34,1.58.32,2.58-.05,3.4-.25,1.29-1.93,2.58-.86.66-.67.74-.64,1.77.02.56,2.28,10.12,2.58,10.95.69,1.91,2.03,3.53,3.38,4.99,0-.39.48-1.07.48-1.13-.01-.47-2.76-7.43-3.22-8.86h.32c.22.85,4.69,8.94,5.15,9.18.7.37,1.27-.73,1.29-.97.1-1.36-4.92-9.81-6.44-11.11.12-.32-.29-1.07.48-.97.41.05,4.18,5.88,5.15,6.44l.32-1.93,2.74,1.77c-.28-.98-8.85-9.9-7.25-10.79,2.11,1.96,7.96,11.45,10.95,10.63l.16-1.13c-2.07-1.43-3.47-3.52-5.15-5.32l.32-.64c.92.59,3.7,2.34,4.19.48.21-.8-.67-1.21-.64-1.29.07-.24,1.53-.53,1.93-.81,2.61,3.47,2.94,8.95-.48,11.92-.74.64-6.48,4.91-7.09,5.15-3.37,1.36-6,.93-9.02-.97-3.97-2.49-3-3.31-4.03-7.41l1.93-1.45.16,5.32c.93-1.21,1.95-3.19,2.09-4.67s-.81-9.59-1.29-11.11c2.12-.42.48-2.37.97-3.7.42-1.16,1.66-.82,2.26.48Z"/>
      <path class="cls-7" d="M68.62,28.03h.64c-.2,1.45.26,2.92.32,4.35.66.34,1.19-2.08,1.29-2.42-.18.77.1,1.25.32,1.93,1.35,4.1.31-2.3,1.29-2.74-.72,2.34.62,4.16.97,5.64-1.61,1.41-2.57,4.59-4.99,5.15s-5.74-.38-7.73-.97c-.59-.17-.82.52-1.93,0-1.49-.7-.68-1.89-.81-2.09-.21-.35-1.02.3-1.45-.16-1.34-1.44-2.32-2.46-2.74-4.19,2.15.16,6.53-2.27,7.09-4.19.89-.3,1.36-.66,2.09-.97.05-.02.6.67.64.64.3-.13,2.52-3.3,2.42-1.77-.25.97-6.04,5.46-5.8,5.8.35.49,1.51-.33,1.61.64.03.28-2.7,2.83-2.42,3.7l5.15-5.48c.24-.08,1.35,4.11,2.9,3.87.23-2.31.82-4.47,1.13-6.77Z"/>
      <path class="cls-10" d="M62.82,21.91c-2.53,2.04-6.15,3.55-9.34,3.87.09-.45-.08-.81.32-1.29.89-.23,4.9-4.29,6.12-4.99-3.41,1.75-6.31,4.5-10.47,4.35l3.7-2.74c-.61-.93-4.87,2.04-4.83.32,0-.26,3.95-2.16,4.51-2.42,2.77-1.28,5.35-2.52,8.05-3.87,1.67-.83,3.53-1.32,4.99-2.58,1.09-.08-.79,1.14.32.97.56-.09,1.88-1.49,2.74-1.13l-5.15,4.51c.37,1,1.77-.62,1.93,0,.14.53-3.32,2.16-3.38,3.06l3.87-2.9c1.57.11-2.83,4.39-3.38,4.83Z"/>
      <path class="cls-7" d="M97.29,26.74c1.03-1.17-.54-1.31-1.61-2.26-1.71-1.51-3.39-3.06-5.15-4.51.05.02.36-.69,1.13-.32,1.32.62,7.35,4.86,8.38,4.51.37-.13.74-2.33,1.29-2.58,1.21-.55,4.24,1.78,3.7-1.13-3.3-.07-6.45-.88-9.66-1.45l10.15-1.29,4.35-2.9c1.12,5.97.06,2.67-1.61,5.96-.51,1.01-.01,2.09-.81,3.38-1.85,3.03-7.02,3.12-10.15,2.58Z"/>
      <path class="cls-10" d="M87.3,14.17c4.04.85,5.93,1.12,10.31.97,2.21-.08,4.38-.73,6.6-.64l-4.35,2.09c3.5.74,6.76-1.07,9.99-2.09.02.1-.02.22,0,.32l-4.35,2.9-10.15,1.29c-1.36-.24-2.28-1.27-2.42-1.29-.33-.05-5.57.26-6.6.32-.16-.12-2.95-2.55-2.9-2.74,2.19-.77,1.68-1.59,3.87-1.13Z"/>
      <path class="cls-7" d="M103.09,3.22c1.03,1.81.49,1.7-.32,2.9-1.87.81-.85-1.44-2.74-1.29-.93.08-3.97,2.65-4.99,3.22-3.78,2.1-6.14,4.68-10.95,2.26.41-.54,1.93-.21,1.61-1.93,3.37-.41,4.31-4.14,6.77-5.8-.14.39-.22,1.9-.32,2.09-.53,1-4.02,4.01-2.74,4.35,3.78-.97,7.8-3.4,7.89-7.73,2.48,1.26,3.44.29,5.8,1.93Z"/>
      <path class="cls-10" d="M76.03,22.87c.21.42.32.3.32.32.48,1.52,1.44,9.57,1.29,11.11s-1.16,3.46-2.09,4.67l-.16-5.32-1.93,1.45c-.03-.1.02-.22,0-.32-.35-1.48-1.68-3.29-.97-5.64-.98.43.06,6.84-1.29,2.74l.64-4.67.97.32.32-4.19,1.13,2.74,1.77-3.22Z"/>
      <path class="cls-7" d="M54.12,16.43c-3.82.82-7.77.61-10.63,3.7,3.13,1.89,6.41-1.41,9.34-1.13-.56.26-4.5,2.16-4.51,2.42-.03,1.72,4.22-1.25,4.83-.32l-3.7,2.74c4.16.15,7.06-2.6,10.47-4.35-1.22.7-5.23,4.77-6.12,4.99-4.48,1.15-11.91-2.17-13.21-6.77,2.76.19,5.61-1.37,8.21-1.61,1.75-.16,4.01.4,5.32.32Z"/>
      <path class="cls-7" d="M109.85,14.5c-3.23,1.03-6.48,2.83-9.99,2.09l4.35-2.09c-2.23-.08-4.4.57-6.6.64,3.31-2.14,7.74-4.24,8.7-8.38,2.67-.51,1.22,1.93,1.29,2.09.77,1.8,1.71,2.96,2.26,5.64Z"/>
      <path class="cls-10" d="M95.68,24.48c1.07.94,2.64,1.08,1.61,2.26-.92-.16-2.94-1.67-3.54-1.13-.03.03.61.61.32.81-.4.28-1.87.56-1.93.81-.02.08.85.49.64,1.29-.49,1.86-3.27.11-4.19-.48-.41-.27-4.45-4.04-4.51-4.35-.02-.13.68-2.42.81-2.42.14,0,1.21,1.31,2.42.81-.26-.34-.83-1.6-.97-1.77,1.53-.58,1.95,1.31,2.42,1.61.09.06.19-.95.64-.64,1.33.92,3.63,4.67,6.28,3.22Z"/>
      <path class="cls-7" d="M63.78,25.13c-1.7,1.3-3.6,2.54-5.48,3.54-1.64.88-3.86.98-4.51,2.58-.4-1.98-.74-3.4-.32-5.48,3.19-.32,6.82-1.83,9.34-3.87,2.84,1.76,2.51-2.82,4.51-1.77l-3.54,4.99Z"/>
      <path class="cls-10" d="M106.31,6.77c-.96,4.13-5.39,6.24-8.7,8.38-4.37.16-6.27-.11-10.31-.97-.23-.94,1.77-.71,2.58-.64.74.06,1.58.76,2.09.64.47-.11,2.03-1.67,2.26-1.61.28.08.12.63.16.64.08.03-.42.67.81.64.12,0,1.9-.8,2.26-.97,2.37-1.14,6.52-5.35,8.21-6.12.12-.06.45.04.64,0Z"/>
      <path class="cls-10" d="M52.19,14.17c.87-.04,7.35-.08,7.73,0-.75,2.13-4.25,2.16-5.8,2.26-1.3.08-3.57-.48-5.32-.32-2.6.24-5.45,1.8-8.21,1.61-.07-.26.05-.67,0-.97,3.89-1.95,7.33-2.38,11.6-2.58Z"/>
      <path class="cls-7" d="M105.66,6.77c-1.69.77-5.84,4.98-8.21,6.12-.35.17-2.13.96-2.26.97-1.23.03-.73-.61-.81-.64,2.53-2.41,6.5-4.31,8.38-7.09.81-1.2,1.35-1.09.32-2.9,2.14,1.49.73,2.26,2.58,3.54Z"/>
      <path class="cls-21" d="M53.8,32.54c-.09-.39.08-.89,0-1.29.65-1.59,2.87-1.7,4.51-2.58,1.08.82,1.67-.02,2.58-.32-.56,1.92-4.94,4.35-7.09,4.19Z"/>
      <path class="cls-3" d="M82.47,7.41c.14.07.61.31.64.32-.26.72-3.83,1.7-4.03,1.61-1.55-.69,1.09-4.37-4.67-.64-1.1.71-2.41.93-2.74,2.58-1.35-2.79-2.92.97-4.99-1.93.27-.47.47-.62.32-1.29.76.07,3.5-.09,4.03-.64.82-.88-.13-1.75.16-2.74.89-3.07,4.09,1,5.32,1.13s2.61-1.39,2.9-1.29c.2.07,1.11,1.9,3.06,2.9Z"/>
      <path class="cls-9" d="M66.36,8.05c.2.03.44-.02.64,0,.14.67-.05.82-.32,1.29-1.34,2.31-1.45.3-2.42.32-1.39.03-3.47.8-5.64.64-.11-2.09,3.35-.11,4.19-1.45,0-.68-4.46-.8-1.61-2.74.46.28,4.62,1.84,5.15,1.93Z"/>
      <path class="cls-21" d="M56.7,1.29c1.27-.23,1.29,1.79,2.58,3.22-1.38,1.12-1.04-.51-1.77-.64-3.4-.63-2.27,1.39,0,2.58l-.32.64-7.41-3.87-.48,2.26c-.36-.09-.88.05-1.29,0,1.49-1.32-1.46-1.59-.97-3.38.54-1.94,2.89-.75,3.38-.81,1.11-.13,1.9-.93,3.87-.64.46.07,1.82,1.28,1.93,1.29.74.04.44-.64.48-.64Z"/>
      <path class="cls-22" d="M51.87,11.28c2.31-.25,2.28.29,3.06.32.26.01.13-.65.16-.64,1.35.17,4.27.72,4.35,2.26-2.41.81-4.83.43-7.25.32-3.38-.15-6.75-.43-9.99-1.45,2.24-2.55,6.15.23,9.5-.16.27-.03.13-.64.16-.64Z"/>
      <path class="cls-10" d="M48,5.48c.4.05.93-.09,1.29,0,2.41.6,6.05,3.35,8.38,4.51-3.49-.41-7.75-1.36-10.95-2.9-4.02-1.94-1.55-1.98,1.29-1.61Z"/>
      <path class="cls-28" d="M44.46,7.73c2.57-.23,8.13,2.2,10.63,3.22-.03,0,.1.65-.16.64-.78-.03-.75-.57-3.06-.32-1.15-.44-9.28-2.19-9.02-3.06.52-.39.99-.43,1.61-.48Z"/>
      <path class="cls-7" d="M59.27,4.51c.3.34,1.54,1.37,1.93,1.61-2.84,1.94,1.62,2.06,1.61,2.74-.84,1.34-4.3-.64-4.19,1.45-.81-.06-.92-.32-.97-.32-2.33-1.16-5.97-3.91-8.38-4.51l.48-2.26,7.41,3.87.32-.64c-2.27-1.18-3.4-3.21,0-2.58.73.14.39,1.76,1.77.64Z"/>
      <path class="cls-5" d="M83.11,7.73c1.01.35,1.21.81,2.58.64.32,1.73-1.2,1.39-1.61,1.93-.04.05-.2.9-.32,1.13,2.1,1.1,4.14,1.13,6.44.81l-.32,1.29c-.8-.07-2.81-.3-2.58.64-2.18-.46-1.68.35-3.87,1.13-.05.19,2.74,2.62,2.9,2.74-.93.05-1.54-.8-2.26.16.52,1.06,1.4,1.02,2.26,2.09.14.17.71,1.43.97,1.77-1.21.5-2.27-.81-2.42-.81-.13,0-.83,2.29-.81,2.42.06.31,4.1,4.08,4.51,4.35l-.32.64c-.82-.88-6.14-6.66-6.6-6.77-.89-.21-.98.76-1.77.64.01-1,.12-1.61-.32-2.58,3.36,1.21,1.03-4.14-2.26-2.9l.48-1.61c-1.8,1.11-3.57-3.16-4.99-1.61-.17-.52-1.02-.74-.97-1.77.08-1.46,1.98-2.25,2.58-3.38,5.76-3.72,3.12-.04,4.67.64.2.09,3.76-.89,4.03-1.61Z"/>
      <path class="cls-22" d="M88.27,28.67c1.68,1.8,3.09,3.89,5.15,5.32l-.16,1.13c-3,.82-8.85-8.67-10.95-10.63-1.6.89,6.97,9.81,7.25,10.79l-2.74-1.77-.32,1.93c-.98-.57-4.75-6.39-5.15-6.44-.78-.1-.36.65-.48.97-.37.99-.24,1.94,0,2.9h-.32c-.63-1.95-.47-3.4-.64-4.03-.06-.2-2.11-2.66-1.93-3.7,1.69-1.29,1.88.83,1.93-2.58.79.11.88-.85,1.77-.64.46.11,5.78,5.89,6.6,6.77Z"/>
      <path class="cls-10" d="M80.54,32.86c.46,1.43,3.21,8.39,3.22,8.86,0,.06-.47.74-.48,1.13-1.36-1.46-2.7-3.08-3.38-4.99-.3-.84-2.56-10.39-2.58-10.95-.03-1.04-.22-1.11.64-1.77-.18,1.04,1.88,3.5,1.93,3.7.18.63.01,2.08.64,4.03Z"/>
      <path class="cls-10" d="M80.86,32.86c-.24-.96-.37-1.91,0-2.9,1.53,1.31,6.55,9.76,6.44,11.11-.02.23-.59,1.33-1.29.97-.47-.25-4.94-8.33-5.15-9.18Z"/>
      <path class="cls-17" d="M79.57,19.97c-.59-1.31-1.83-1.64-2.26-.48-.49,1.34,1.15,3.29-.97,3.7,0-.02-.11.1-.32-.32-.83-1.66-3.06.2-3.22-.16-.14-3.13,1.9-1.62,3.22-3.38,1.2-1.6-1-1.39,1.29-2.26,3.28-1.25,5.62,4.11,2.26,2.9Z"/>
      <path class="cls-22" d="M68.62,28.03c-.3,2.3-.9,4.46-1.13,6.77-1.55.24-2.66-3.95-2.9-3.87l-5.15,5.48c-.28-.87,2.45-3.43,2.42-3.7-.1-.97-1.26-.16-1.61-.64-.24-.33,5.55-4.83,5.8-5.8.1-1.53-2.12,1.64-2.42,1.77-.05.02-.6-.66-.64-.64-.73.3-1.2.67-2.09.97s-1.49,1.14-2.58.32c1.88-1,3.78-2.25,5.48-3.54,1.82-1.39,2.85-3.42,4.99-4.19-1.29,1.99.71,2.75.81,3.38.03.19-.87,2.96-.97,3.7Z"/>
      <path class="cls-10" d="M70.87,29.96c-.1.33-.62,2.76-1.29,2.42-.06-1.43-.53-2.9-.32-4.35.76-5.42,3.07-3.18,1.61,1.93Z"/>
      <path class="cls-10" d="M60.89,15.14c-2.7,1.34-5.28,2.58-8.05,3.87-2.93-.28-6.22,3.02-9.34,1.13,2.86-3.1,6.81-2.89,10.63-3.7,1.55-.09,5.04-.13,5.8-2.26.36.08.85.6.97.97Z"/>
      <path class="cls-10" d="M95.36,19.01c3.22.57,6.36,1.38,9.66,1.45.54,2.91-2.5.58-3.7,1.13-.55.25-.92,2.45-1.29,2.58-1.03.35-7.06-3.89-8.38-4.51-.77-.36-1.07.35-1.13.32-1.65-.72-2.58-.76-4.19-1.93,1.03-.06,6.27-.37,6.6-.32.14.02,1.05,1.05,2.42,1.29Z"/>
      <path class="cls-10" d="M86.34,18.04c1.61,1.17,2.53,1.21,4.19,1.93,1.76,1.45,3.44,3,5.15,4.51-2.65,1.45-4.95-2.3-6.28-3.22-.45-.31-.55.7-.64.64-.46-.3-.89-2.19-2.42-1.61-.86-1.08-1.73-1.03-2.26-2.09.71-.96,1.33-.11,2.26-.16Z"/>
      <path class="cls-23" d="M102.76,6.12c-1.88,2.77-5.85,4.68-8.38,7.09-.04-.02.12-.57-.16-.64-.23-.06-1.78,1.51-2.26,1.61-.51.11-1.36-.58-2.09-.64l.32-1.29c2.31-.32,5.76-1.1,4.83-4.19,1.02-.57,4.07-3.15,4.99-3.22,1.89-.15.87,2.09,2.74,1.29Z"/>
      <path class="cls-10" d="M90.2,12.24c-2.3.32-4.34.3-6.44-.81.13-.23.29-1.08.32-1.13,4.81,2.42,7.17-.15,10.95-2.26.93,3.08-2.52,3.86-4.83,4.19Z"/>
      <path class="cls-26" d="M77.32,17.07c-2.29.87-.09.65-1.29,2.26-1.01.23-3.28-2.27-3.22-2.74.15-1.24,1.12.7,0-2.74,1.42-1.55,3.19,2.72,4.99,1.61l-.48,1.61Z"/>
      <g>
        <path class="cls-7" d="M57.66,9.99c.05,0,.16.26.97.32,2.17.16,4.25-.61,5.64-.64.96-.02,1.08,1.98,2.42-.32,2.08,2.9,3.64-.86,4.99,1.93.33-1.65,1.64-1.87,2.74-2.58-.6,1.13-2.5,1.92-2.58,3.38-.05,1.03.8,1.25.97,1.77,1.12,3.44.15,1.49,0,2.74-.06.47,2.22,2.97,3.22,2.74-1.32,1.77-3.37.25-3.22,3.38.16.36,2.39-1.5,3.22.16l-1.77,3.22-1.13-2.74-.32,4.19-.97-.32-.64,4.67c-.22-.68-.5-1.16-.32-1.93,1.46-5.11-.85-7.35-1.61-1.93h-.64c.1-.74,1-3.52.97-3.7-.1-.63-2.1-1.39-.81-3.38-2.14.77-3.18,2.8-4.99,4.19l3.54-4.99c-2-1.05-1.67,3.53-4.51,1.77.55-.45,4.96-4.72,3.38-4.83l-3.87,2.9c.07-.9,3.52-2.53,3.38-3.06-.16-.62-1.56,1-1.93,0l5.15-4.51c-.85-.37-2.17,1.04-2.74,1.13-1.11.17.76-1.05-.32-.97-1.46,1.25-3.32,1.75-4.99,2.58-.12-.37-.61-.89-.97-.97-.38-.08-6.86-.04-7.73,0v-.64c2.42.11,4.83.49,7.25-.32-.08-1.54-2.99-2.08-4.35-2.26-2.5-1.02-8.06-3.45-10.63-3.22l2.26-.64c3.21,1.54,7.46,2.49,10.95,2.9Z"/>
        <path class="cls-7" d="M70.39,14.5c.44.63.33,1.51.32,2.26-.88.28-.63-1.84-.32-2.26Z"/>
      </g>
    </g>
  </g>
</svg>