<!--?xml version="1.0" encoding="UTF-8"?--><svg
						id="kalalogo"
						xmlns="http://www.w3.org/2000/svg"
						viewBox="0 0 144 52.76"
					>
						<rect x="115.32" y="52.31" width="4.49" height=".42"></rect>
						<path
							d="M30.56,49.82c-.16-.1-.32-.17-.48-.21-.16-.04-.28-.07-.37-.08v-.04c.09-.02,.21-.06,.36-.1,.15-.05,.29-.12,.43-.21,.14-.1,.26-.22,.36-.39,.1-.16,.15-.37,.15-.61,0-.23-.05-.43-.14-.6-.1-.18-.23-.32-.39-.44-.17-.12-.36-.2-.58-.26-.22-.06-.46-.09-.72-.09-.28,0-.55,0-.81,.03-.27,.02-.5,.03-.71,.03-.13,0-.26,0-.39,0-.13,0-.24-.02-.34-.04,.01,.13,.02,.27,.04,.43,.01,.16,.03,.37,.04,.64,.01,.41,.02,.81,.02,1.22,0,.41,0,.82,0,1.22,0,.37,0,.77-.01,1.19,0,.42-.03,.81-.06,1.16,.15-.01,.29-.02,.43-.03,.14-.01,.28-.02,.42-.02,.09,0,.2,0,.32,0,.12,0,.24,.01,.36,.02,.12,0,.23,.01,.34,.02,.1,0,.18,0,.24,0,.3,0,.59-.04,.84-.12,.26-.08,.48-.19,.66-.33s.33-.32,.44-.53c.1-.21,.16-.44,.16-.69,0-.3-.06-.55-.18-.74s-.26-.33-.42-.43Zm-2.15-1.78v-.14c0-.07,0-.14,0-.21,0-.07,0-.14,0-.21v-.14s.08,0,.11,0h.08c.33,0,.57,.08,.73,.23,.16,.15,.24,.4,.24,.73,0,.19-.03,.34-.08,.47-.06,.13-.13,.23-.22,.31-.09,.08-.2,.14-.32,.17s-.24,.05-.36,.05h-.08s-.06,0-.08,0v-1.25Zm1.19,3.33c-.04,.14-.09,.26-.17,.36-.08,.1-.18,.19-.3,.25-.12,.06-.27,.09-.44,.09-.05,0-.09,0-.13,0-.04,0-.08,0-.12-.01,0-.14,0-.26-.01-.38,0-.12,0-.26,0-.41v-1.42c.2,0,.37,.01,.53,.04,.16,.03,.29,.08,.39,.17,.1,.08,.18,.19,.24,.33,.06,.14,.08,.32,.08,.54,0,.16-.02,.31-.06,.44Z"
						></path>
						<path
							d="M38.52,52.46c-.05-.06-.11-.13-.17-.21-.06-.07-.11-.15-.17-.22s-.09-.14-.13-.19l-1.31-2.08c.12-.02,.26-.06,.41-.11,.16-.06,.3-.15,.44-.27,.14-.12,.25-.27,.35-.45,.09-.18,.14-.4,.14-.65s-.04-.46-.11-.63c-.08-.17-.18-.31-.3-.43-.12-.11-.25-.2-.4-.26s-.29-.1-.42-.13c-.14-.03-.26-.05-.37-.05-.11,0-.19,0-.24,0-.27,0-.53,0-.79,.03-.26,.02-.53,.03-.79,.03-.11,0-.24,0-.4-.01-.16,0-.33-.02-.52-.04,.03,.25,.05,.59,.06,1,0,.41,0,.94,0,1.61v1.12c0,.32,0,.61,0,.86,0,.25,0,.49-.02,.69-.01,.21-.03,.41-.04,.6,.11-.01,.23-.02,.38-.03,.15-.01,.28-.02,.39-.02,.12,0,.25,0,.38,.01,.13,0,.25,.02,.37,.04-.02-.12-.03-.25-.03-.37,0-.12,0-.25-.01-.38,0-.16,0-.31-.01-.45,0-.14,0-.29,0-.43,0-.15,0-.3,0-.47v-.54s0-.05,0-.05c.01,0,.02,0,.03,.02l1.15,1.79c.16,.24,.28,.43,.35,.59,.08,.16,.12,.26,.14,.3,.16-.02,.3-.03,.43-.04,.13,0,.28-.01,.46-.01,.15,0,.29,0,.44,0,.15,0,.29,.02,.44,.04l.03-.05s-.09-.08-.15-.15Zm-2.03-3.43c-.09,.15-.2,.26-.33,.33-.13,.07-.26,.11-.39,.12-.13,.01-.24,.02-.32,.02h-.14s-.08,0-.11,0l.02-2.12c.06-.01,.11-.02,.16-.02h.16c.12,0,.24,0,.37,.02,.13,.01,.25,.06,.36,.12,.11,.07,.2,.17,.27,.3,.07,.14,.11,.32,.11,.57,0,.28-.05,.5-.14,.65Z"
						></path>
						<path
							d="M44.61,50.1c-.21-.52-.42-1.07-.63-1.64-.21-.58-.42-1.16-.62-1.74-.14,.03-.27,.05-.42,.05-.15,0-.3-.02-.44-.05-.1,.28-.21,.59-.34,.94-.13,.35-.27,.72-.42,1.1-.15,.38-.3,.76-.46,1.15-.16,.39-.31,.75-.45,1.1-.14,.35-.28,.66-.4,.95-.12,.29-.23,.52-.31,.7,.1-.03,.19-.04,.28-.05,.09,0,.15,0,.2,0,.08,0,.16,0,.24,.02,.07,.01,.15,.02,.23,.03,.07-.32,.16-.62,.25-.91,.1-.29,.18-.54,.25-.75,.33-.02,.65-.03,.97-.03,.15,0,.3,0,.44,0,.14,0,.29,.01,.44,.02,.05,.13,.12,.33,.21,.6,.1,.27,.21,.63,.33,1.07,.13-.03,.28-.04,.44-.05,.16,0,.32,0,.46,0,.13,0,.26,0,.4,0s.27,.02,.4,.04c-.13-.31-.29-.68-.47-1.12-.18-.44-.37-.92-.58-1.44Zm-1.76,.26c-.12,0-.24,0-.36,0-.23,0-.46,0-.69-.03l.72-1.86,.68,1.86c-.12,0-.24,.01-.36,.02Z"
						></path>
						<path
							d="M52.65,46.82c-.09,0-.17-.02-.24-.04,.02,.11,.03,.26,.05,.47,.01,.21,.03,.41,.03,.62,0,.21,.02,.4,.02,.57,0,.17,0,.28,0,.32v1.92c-.12-.13-.27-.29-.44-.48-.18-.19-.36-.4-.56-.64-.2-.23-.41-.47-.63-.72-.22-.25-.43-.5-.64-.75-.21-.25-.41-.49-.6-.71-.19-.23-.35-.43-.49-.61-.08,.01-.16,.02-.25,.03-.08,.01-.17,.02-.25,.02-.1,0-.19,0-.28-.02-.09-.01-.19-.02-.28-.03,.02,.15,.03,.3,.03,.44,0,.14,.01,.3,.02,.49,0,.19,0,.41,0,.66v1.84c0,.24,0,.48-.01,.71,0,.23-.02,.48-.04,.75-.02,.27-.04,.59-.08,.98,.08-.01,.15-.02,.22-.03,.06-.01,.14-.02,.22-.02,.08,0,.16,0,.23,.02,.07,.01,.15,.02,.23,.03-.01-.09-.02-.22-.03-.39-.01-.17-.02-.35-.03-.54,0-.19-.02-.37-.03-.55,0-.17-.01-.31-.01-.41v-2.12l2.17,2.44c.23,.27,.41,.48,.54,.64,.14,.16,.25,.29,.33,.4,.09,.1,.16,.19,.22,.27,.06,.08,.12,.16,.19,.25,.15-.03,.32-.05,.49-.05,.08,0,.17,0,.25,.02,.08,.01,.16,.02,.25,.03-.03-.3-.05-.61-.06-.91,0-.3,0-.61,0-.91,0-.16,0-.35,0-.58,0-.23,0-.47,0-.73,0-.26,0-.53,.02-.8,0-.27,.02-.53,.03-.78,.01-.25,.02-.47,.04-.68,.01-.21,.03-.37,.06-.49-.15,.03-.3,.05-.46,.05-.07,0-.15,0-.24-.01Z"
						></path>
						<path
							d="M60.82,47.5c-.26-.24-.56-.42-.91-.53-.35-.12-.73-.18-1.14-.18-.33,0-.65,0-.97,.03-.32,.02-.65,.03-.97,.03-.27,0-.53-.02-.79-.05,.03,.27,.05,.54,.06,.82,.01,.27,.02,.55,.02,.82v2.57c0,.28,0,.56-.02,.84-.01,.28-.04,.56-.06,.84,.1-.01,.21-.02,.31-.03,.11,0,.21-.01,.3-.02,.1,0,.18,0,.26,0h.17c.06,0,.15,0,.27,0,.12,0,.26,.01,.4,.02,.14,0,.28,.01,.41,.02,.13,0,.24,0,.31,0,.54,0,1-.08,1.4-.25s.73-.38,.99-.66c.26-.28,.46-.6,.59-.97,.13-.37,.19-.76,.19-1.17,0-.47-.07-.88-.22-1.23-.15-.35-.35-.65-.61-.89Zm-.71,2.46c-.01,.16-.04,.33-.08,.51-.04,.19-.1,.37-.18,.56-.08,.19-.19,.36-.32,.5-.1,.11-.21,.19-.33,.26-.12,.07-.24,.12-.36,.16-.12,.04-.25,.06-.38,.08-.13,.01-.25,.02-.37,.02-.14,0-.26,0-.35-.01-.09,0-.16-.02-.21-.03,0-.11,0-.21-.01-.32,0-.11,0-.21,0-.32v-2.83c0-.07,0-.17,0-.28,0-.11,0-.22,0-.33,0-.11,0-.21,0-.31,0-.1,0-.17,0-.21,.05,0,.12,0,.22-.01,.09,0,.25,0,.46,0,.09,0,.19,0,.29,0s.2,.02,.31,.05c.1,.03,.21,.06,.32,.11,.11,.05,.22,.12,.33,.22,.14,.12,.25,.26,.33,.42,.08,.16,.15,.32,.2,.48,.05,.16,.08,.33,.09,.49,.01,.16,.02,.31,.02,.44,0,.08,0,.2-.02,.35Z"
						></path>
						<path
							d="M75.03,50.66l-.33-2.77c-.02-.15-.03-.33-.05-.54-.02-.21-.03-.4-.04-.56-.09,.02-.17,.03-.25,.04-.07,0-.17,.01-.28,.01-.1,0-.2,0-.3,0-.1,0-.2-.02-.3-.04-.02,.07-.04,.13-.06,.19-.02,.06-.04,.12-.06,.19-.03,.07-.06,.14-.09,.23-.03,.08-.08,.19-.13,.3-.21,.51-.43,1.02-.66,1.52-.23,.5-.46,1-.69,1.5-.06-.12-.14-.29-.23-.51-.09-.21-.19-.45-.3-.7s-.22-.52-.33-.8c-.11-.28-.22-.54-.32-.79-.1-.25-.19-.47-.26-.67-.08-.2-.13-.35-.16-.46-.08,.01-.17,.02-.27,.03-.1,.01-.2,.02-.29,.02-.08,0-.19,0-.31-.02-.12-.01-.22-.02-.31-.03,0,.16-.02,.33-.03,.49-.01,.16-.04,.33-.06,.49l-.58,3.9c-.03,.18-.06,.34-.09,.51-.03,.16-.07,.33-.11,.49,.08-.01,.16-.02,.24-.03,.08-.01,.16-.02,.23-.02,.15,0,.3,.02,.46,.05,0-.25,0-.49,.03-.72,.02-.23,.03-.45,.05-.67,.03-.42,.08-.83,.13-1.25s.11-.83,.17-1.25c.2,.43,.39,.87,.59,1.3,.19,.43,.39,.87,.58,1.31,.07,.18,.14,.33,.19,.46,.05,.13,.1,.24,.14,.34,.04,.1,.07,.19,.09,.26,.02,.08,.05,.15,.07,.22,.07-.02,.18-.03,.31-.03,.07,0,.13,0,.18,0,.05,0,.09,.01,.12,.02,.03-.08,.06-.16,.08-.23,.02-.07,.05-.14,.08-.23,.03-.08,.08-.19,.13-.3,.05-.12,.12-.28,.2-.47,.14-.33,.26-.6,.35-.81,.09-.21,.17-.4,.25-.58,.08-.18,.16-.36,.25-.55,.09-.19,.21-.44,.36-.74,0,.07,.02,.21,.04,.4,.02,.19,.04,.4,.06,.62,.02,.22,.04,.42,.06,.62,.02,.2,.04,.34,.05,.42,.03,.25,.05,.48,.07,.66,.02,.19,.03,.36,.04,.5,0,.14,.02,.27,.02,.38,0,.11,0,.21,0,.3,.12-.02,.24-.03,.36-.04,.12-.01,.27-.02,.45-.02,.14,0,.27,0,.39,.01,.12,0,.25,.02,.38,.05-.06-.33-.12-.67-.17-1-.05-.33-.1-.67-.14-1.01Z"
						></path>
						<path
							d="M82.51,46.83c-.08,0-.18,0-.28-.01-.1,0-.19-.02-.27-.04,.02,.15,.03,.29,.04,.4,.01,.11,.02,.22,.02,.33,0,.11,0,.22,0,.35,0,.12,0,.27,0,.45v1.02c0,.38,0,.7-.02,.97-.01,.27-.05,.51-.11,.72-.06,.2-.14,.37-.24,.5s-.22,.23-.34,.3c-.12,.08-.25,.13-.39,.16-.13,.03-.25,.04-.36,.04-.25,0-.49-.06-.7-.17-.21-.11-.37-.27-.47-.46-.04-.07-.07-.16-.1-.25-.03-.1-.05-.21-.07-.34-.02-.13-.04-.29-.05-.47-.01-.18-.02-.39-.02-.64,0-.18,0-.4,0-.66,0-.26,0-.53,.02-.8,0-.27,.02-.54,.03-.79,.01-.25,.03-.47,.06-.64-.11,.02-.24,.04-.38,.04-.14,0-.27,0-.4,0-.22,0-.49-.02-.82-.05,.01,.07,.02,.17,.03,.29,0,.12,.02,.25,.03,.38,0,.14,.01,.27,.02,.42,0,.14,0,.27,0,.39v2.21c0,.1,0,.2,0,.32,0,.12,.02,.25,.06,.39,.03,.14,.08,.28,.14,.43,.06,.15,.16,.3,.28,.45,.11,.14,.25,.25,.4,.34,.15,.09,.32,.16,.5,.22,.18,.05,.37,.09,.57,.11,.2,.02,.4,.03,.59,.03,.28,0,.54-.03,.78-.08,.24-.05,.46-.14,.66-.25,.27-.16,.47-.34,.62-.54,.15-.2,.26-.41,.33-.63,.07-.22,.12-.44,.13-.66,.01-.23,.02-.44,.02-.65s0-.45,0-.74c0-.29,.01-.58,.03-.88,.01-.3,.03-.58,.05-.86,.02-.28,.05-.51,.08-.69-.06,.01-.14,.02-.23,.03-.09,.01-.18,.02-.27,.02Z"
						></path>
						<path
							d="M89.16,49.88c-.11-.18-.25-.31-.4-.42-.15-.1-.29-.18-.42-.23-.32-.12-.58-.23-.79-.32-.21-.09-.38-.18-.5-.26-.12-.08-.21-.17-.27-.26-.05-.09-.08-.21-.08-.34,0-.18,.04-.32,.13-.42,.08-.1,.18-.17,.29-.22,.11-.05,.21-.08,.32-.08,.1,0,.18-.01,.22-.01,.11,0,.22,.01,.33,.04,.12,.03,.22,.07,.32,.14,.1,.07,.19,.15,.27,.26,.08,.11,.14,.24,.18,.4h.19c0-.05,.02-.12,.03-.2,.01-.08,.03-.17,.06-.27,.02-.09,.05-.19,.08-.28,.03-.09,.07-.18,.11-.25-.16-.09-.37-.18-.61-.27-.24-.09-.56-.14-.96-.14-.64,0-1.15,.16-1.51,.47-.36,.32-.55,.77-.55,1.36,0,.23,.03,.43,.09,.61,.06,.18,.15,.33,.27,.47,.12,.14,.25,.25,.41,.36,.16,.1,.33,.19,.53,.28,.26,.11,.47,.21,.64,.29,.17,.08,.3,.16,.41,.23s.17,.16,.22,.24,.06,.18,.06,.3c0,.11-.02,.21-.06,.31-.04,.1-.1,.19-.18,.27-.08,.08-.19,.14-.32,.19-.13,.05-.28,.07-.46,.07-.13,0-.26-.02-.4-.05-.14-.03-.26-.08-.39-.16-.12-.08-.23-.18-.32-.3-.09-.13-.15-.29-.19-.48h-.21c0,.07,0,.16-.01,.26,0,.1-.02,.2-.04,.31-.02,.11-.04,.21-.06,.32-.02,.1-.05,.2-.07,.28,.07,.04,.15,.08,.25,.13,.1,.05,.21,.09,.34,.14,.13,.04,.28,.08,.45,.11,.17,.03,.36,.04,.58,.04,.37,0,.69-.05,.97-.15s.52-.23,.71-.41c.19-.17,.34-.38,.43-.61,.1-.23,.14-.49,.14-.77,0-.16-.02-.33-.06-.49-.04-.16-.1-.32-.2-.47Z"
						></path>
						<path
							d="M93.5,48.32c.01-.54,.04-1.05,.06-1.53-.06,.01-.16,.02-.3,.03-.14,.01-.3,.02-.47,.02-.3,0-.57-.02-.8-.05,.02,.21,.03,.43,.04,.67,.01,.24,.02,.48,.02,.72,0,.25,0,.49,0,.73,0,.24,0,.47,0,.69v.32c0,.14,0,.31,0,.49,0,.18,0,.38,0,.59,0,.21,0,.42-.01,.62,0,.2-.01,.4-.03,.58-.01,.18-.02,.33-.03,.46,.26-.03,.53-.05,.8-.05,.14,0,.27,0,.39,.01,.12,0,.25,.02,.38,.04-.02-.19-.03-.4-.04-.64-.01-.24-.02-.49-.03-.74,0-.25,0-.51,0-.75v-.68c0-.49,0-1,.02-1.53Z"
						></path>
						<path
							d="M98.17,47.98c.16-.22,.36-.4,.6-.53,.24-.13,.53-.19,.85-.19,.16,0,.32,.02,.48,.06,.16,.04,.3,.09,.43,.17,.13,.07,.25,.16,.35,.26,.1,.1,.17,.22,.22,.34h.19s.01-.11,.03-.18c.01-.08,.03-.16,.05-.25,.02-.09,.04-.18,.07-.28,.03-.1,.06-.18,.1-.26-.32-.15-.65-.26-1-.33-.34-.07-.69-.1-1.05-.1-.51,0-.98,.08-1.39,.23-.41,.15-.76,.36-1.05,.64s-.51,.59-.66,.97c-.16,.38-.23,.79-.23,1.23s.07,.82,.22,1.18c.14,.36,.35,.68,.63,.95,.27,.27,.61,.48,1.02,.64,.4,.16,.87,.23,1.38,.23,.31,0,.62-.03,.92-.09,.3-.06,.6-.16,.89-.29,.05-.19,.09-.34,.13-.47,.04-.13,.08-.24,.12-.33l-.14-.08c-.23,.19-.46,.35-.71,.47-.25,.12-.54,.19-.88,.19s-.62-.06-.87-.18c-.25-.12-.46-.29-.64-.5s-.3-.47-.39-.77c-.09-.3-.13-.62-.13-.98,0-.33,.04-.65,.12-.95,.08-.3,.2-.56,.36-.78Z"
						></path>
						<path
							d="M110.13,47.98c.16-.22,.36-.4,.6-.53,.24-.13,.53-.19,.85-.19,.16,0,.32,.02,.48,.06,.16,.04,.3,.09,.43,.17,.13,.07,.25,.16,.35,.26,.1,.1,.17,.22,.22,.34h.19s.01-.11,.03-.18c.01-.08,.03-.16,.05-.25,.02-.09,.04-.18,.07-.28,.03-.1,.06-.18,.1-.26-.32-.15-.65-.26-1-.33-.34-.07-.69-.1-1.05-.1-.51,0-.98,.08-1.39,.23-.41,.15-.76,.36-1.05,.64s-.51,.59-.66,.97c-.16,.38-.23,.79-.23,1.23s.07,.82,.22,1.18c.14,.36,.35,.68,.63,.95,.27,.27,.61,.48,1.02,.64,.4,.16,.87,.23,1.38,.23,.31,0,.62-.03,.92-.09,.3-.06,.6-.16,.89-.29,.05-.19,.09-.34,.13-.47,.04-.13,.08-.24,.12-.33l-.14-.08c-.23,.19-.46,.35-.71,.47-.25,.12-.54,.19-.88,.19s-.62-.06-.87-.18c-.25-.12-.46-.29-.64-.5s-.3-.47-.39-.77c-.09-.3-.13-.62-.13-.98,0-.33,.04-.65,.12-.95,.08-.3,.2-.56,.36-.78Z"
						></path>
						<path
							d="M115.88,50.86c.19,.19,.42,.34,.7,.45,.28,.11,.6,.16,.96,.16s.71-.06,.99-.17c.28-.12,.52-.28,.71-.48,.19-.2,.33-.44,.42-.72,.09-.27,.14-.57,.14-.88s-.05-.6-.14-.86c-.09-.26-.23-.48-.42-.67-.19-.19-.42-.33-.71-.44-.29-.1-.62-.16-1-.16-.41,0-.75,.06-1.03,.18-.28,.12-.51,.28-.69,.48s-.31,.44-.39,.7c-.08,.26-.12,.54-.12,.83,0,.32,.05,.61,.14,.88,.1,.27,.24,.5,.43,.69Zm.86-2.08c.01-.2,.04-.39,.09-.58,.05-.19,.13-.35,.25-.48,.11-.13,.27-.2,.47-.2s.36,.06,.47,.19c.11,.12,.2,.27,.25,.45,.05,.18,.09,.36,.1,.56,.01,.2,.02,.37,.02,.51,0,.21-.01,.43-.03,.65-.02,.22-.07,.41-.13,.59-.06,.18-.15,.32-.26,.43s-.25,.17-.43,.17c-.2,0-.35-.07-.46-.2s-.19-.3-.25-.48c-.05-.19-.09-.38-.1-.58-.01-.2-.02-.37-.02-.5s0-.3,.02-.5Z"
						></path>
						<path
							d="M122.45,50.17c-.18,0-.33,.06-.46,.19s-.19,.28-.19,.46,.06,.33,.19,.46c.13,.13,.28,.19,.46,.19s.34-.06,.46-.19c.12-.13,.19-.28,.19-.46s-.06-.33-.19-.46c-.13-.13-.28-.19-.46-.19Z"
						></path>
						<path
							d="M18.84,49.85c-.02,.16-.08,.3-.17,.41-.15,.19-.44,.19-.82,.06-.19-.06-.39-.13-.61-.21-.21-.07-.41-.14-.62-.21-.43-.13-.8-.14-1.08,.01-.14,.07-.25,.17-.34,.29-.09,.12-.16,.25-.21,.4-.05,.15-.08,.3-.09,.45v.11h.59v-.09c.02-.1,.04-.19,.08-.26,.04-.07,.08-.13,.13-.17,.05-.04,.1-.07,.15-.09,.06-.02,.11-.03,.16-.03,.14,0,.3,.03,.48,.09,.19,.06,.39,.13,.6,.21,.21,.08,.42,.15,.63,.21,.43,.13,.8,.13,1.07-.01,.14-.07,.25-.17,.34-.29,.09-.12,.16-.25,.21-.4,.05-.15,.08-.3,.09-.45v-.11h-.58v.09Z"
						></path>
						<path
							d="M134.51,49.85c-.02,.16-.08,.3-.17,.41-.15,.19-.44,.19-.82,.06-.19-.06-.39-.13-.61-.21-.21-.07-.41-.14-.62-.21-.43-.13-.8-.14-1.08,.01-.14,.07-.25,.17-.34,.29-.09,.12-.16,.25-.21,.4-.05,.15-.08,.3-.09,.45v.11h.59v-.09c.02-.1,.04-.19,.08-.26,.04-.07,.08-.13,.13-.17,.05-.04,.1-.07,.15-.09,.06-.02,.11-.03,.16-.03,.14,0,.3,.03,.48,.09,.19,.06,.39,.13,.6,.21,.21,.08,.42,.15,.63,.21,.43,.13,.8,.13,1.07-.01,.14-.07,.25-.17,.34-.29,.09-.12,.16-.25,.21-.4,.05-.15,.08-.3,.09-.45v-.11h-.58v.09Z"
						></path>
						<path
							d="M144,24.75h-.1l-.06-.09s-.25-.22-.45-.43c-.2-.21-.26-.21-.26-.21,0,0-.22-.13-.3-.17,.12,.07-.15-.13-.32-.18-.06-.02-.27-.09-.39-.18-.12-.09-.29-.17-.29-.17,0,0-.12-.05-.25-.13-.12-.08-.33-.09-.33-.09,0,0-.33-.03-.6-.16s-.42-.15-.48-.17c-.06-.02-.46-.09-.46-.09,0,0-1.26-.39-1.37-.42-.11-.03-.15,.03-.15,.03,0,0-.46,.46-.57,.57-.11,.11-.17-.02-.17-.02,0,0-.63-.61-.68-.67-.05-.06-.1-.04-.1-.04,0,0-.06,0-.48-.02-.42-.01-2.05-.09-2.15-.09s-.1,.05-.1,.05c0,0,.01,.09-.01,.13-.02,.04-.14,.46-.16,.61-.02,.15-.09,.12-.11,.1-.02-.02-.11-.13-.18-.18-.07-.05-.25-.33-.35-.46-.1-.12-.18-.11-.18-.11,0,0-.13-.01-.39,0-.27,.01-.37,.21-.37,.21,0,0-.35,.66-.4,.77-.05,.1-.1,0-.1,0,0,0-.43-.42-.57-.56s-.34-.02-.34-.02l-.11,.05c-.11,.05-.31,.11-.57,.2-.25,.09-.36,.11-.53,.14-.17,.02-.23,.11-.25,.13-.02,.02-.13,.03-.25,.03-.12,0-.06-.09-.06-.09,0,0,0-.05,.14-.1,.14-.05,.21-.08,.27-.18,.06-.1,.2-.21,.35-.21,.15,0,.28-.14,.28-.14l.18-.12c.22-.17,.55-.37,.97-.57,.37-.18,.79-.41,.94-.43,.15-.02,.39-.04,.47-.1s.4-.18,.4-.18c0,0,.39-.22,.63-.28,.24-.06,.43-.11,.74-.14,.31-.03,.42-.1,.42-.1,0,0,.12-.07,.34-.2,.22-.13-.01-.1-.01-.1h-.52c-.19,0-.28,.04-.28,.04,0,0-.18,.09-.39,.09s-.43,.03-.43,.03l-.6,.14s-.33,.07-1.05,.18c-.73,.11-1.66,.51-1.66,.51,0,0-.42,.19-.63,.26-.21,.07-.38,.1-.81,.29-.43,.19-1.9,1.05-2.04,1.12s-.05-.11,.02-.14c.06-.03,.22-.15,.27-.23,.05-.07,.17-.27,.17-.27,0,0,.54-.52,.89-.87,.34-.35,.5-.47,.72-.6,.22-.13,.65-.49,.65-.49,0,0,.41-.38,.62-.54,.21-.17,.5-.41,.5-.41,0,0,.15-.1,.42-.26,.27-.16,.91-.61,1.08-.75s.28-.17,.28-.17l.76-.33c.4-.18,1.39-.62,1.79-.82,.4-.19,.68-.24,.99-.34,.26-.08,.75-.21,.75-.21,.92-.23,1.09-.22,1.23-.24,.14-.02,.1-.06,.1-.08,0-.02,0-.12-.06-.17-.06-.05-.12-.09-.46,0-.34,.09-.63,.07-.86,.07s-.63,.01-.79,.06c-.16,.05-.34,.06-.53,.07-.19,0-.8,0-1.09,.05s-.87,.1-1.23,.19c-.35,.09-.4,.34-.39,.49,0,.15-.03,.17-.03,.17,0,0-.09,.16-.16,.24-.07,.08-.09,.02-.15-.05-.06-.07-.12-.07-.25-.09-.13-.02-.26-.18-.3-.25-.04-.06-.12-.01-.12-.01,0,0-.69,.26-.78,.29-.09,.03-.08,.14-.08,.14,0,0-.06,.45-.07,.62-.02,.17-.11,.03-.11,.03,0,0-.47-.24-.64-.36-.17-.11-.34,.02-.34,.02,0,0-.25,.17-.51,.2-.26,.03-.38,.14-.46,.18s-.23,.14-.33,.16c-.1,.02-.41,.15-.51,.21-.1,.06-.12,.14-.12,.21,0,.07,.01,.28-.03,.34-.04,.06-.1,.29-.1,.29,0,0,0,.14,.01,.32,0,.18-.09,.04-.09,.04,0,0-.05-.11-.35-.31-.3-.2-.58-.03-.8,.11-.22,.15-.63,.35-.78,.4-.15,.05-.39,.25-.39,.25-.18,.21-.57,.37-.62,.39-.06,.02-.25,.12-.36,.19s-.05-.06-.05-.06c.27-.67,1.24-1.95,1.24-1.95,1.38-1.68,1.74-1.87,2.1-2.24,.35-.37,.9-.69,.9-.69,0,0,.21-.18,.56-.36,.35-.18,.42-.33,.51-.5,.09-.17-.03-.17-.03-.17,0,0-.09-.05-.17-.07-.09-.02-.13,0-.15,.04-.02,.03-.07,.05-.13,.1-.06,.05-.35,.13-.49,.15-.14,.02-.22,.12-.22,.12-.1,.07-.44,.27-.44,.27,0,0-.31,.22-.7,.36s-.49,.27-.65,.42c-.16,.15-.49,.34-.49,.34-.42,.21-.36,.24-.7,.45-.34,.21-.51,.43-.68,.6-.17,.16-.43,.39-.78,.68-.35,.29-.81,.82-.86,.89-.04,.04-.05,.09-.08,.04l-.08-.33-.04-.16c0-.17,.05-.31,.05-.31,0,0,.17-.48,.27-.58s.3-.38,.42-.51c.11-.13,.71-.75,.86-.89,.14-.14,.47-.59,.47-.59l.66-.57h0s.07-.07,.64-.53c.71-.57,1.38-.96,1.56-1.06,.18-.1,.37-.27,.37-.27,0,0,.13-.14,.26-.29,.12-.15-.01-.15-.09-.12-.07,.03-.21,.07-.21,.07,0,0-.19,.12-.45,.21-.26,.09-.64,.28-.64,.28,0,0-.81,.41-1.21,.62s-1.05,.57-1.81,1.14c-.76,.57-1.34,1.2-1.47,1.34-.12,.13-.18,.01-.19,0-.03-.12-.06-.25-.09-.37l-.04-.16-.02-.08-.02-.1v-.07s-.06-.23-.07-.26c.13,0,.23-.03,.32-.1,.1-.07,.16-.18,.2-.29,.02-.05,.03-.11,.03-.16l.05-.52s.1-1.46,.1-2.45v-.41c0-.05-.01-.11-.04-.15-.02-.02-.03-.04-.06-.06-.37-.25-.76-.47-1.16-.67-.28-.14-.57-.28-.87-.41-.43-.2-.87-.39-1.3-.58-.5-.22-1.01-.44-1.51-.65-.45-.19-.9-.37-1.35-.55-.83-.33-1.67-.65-2.51-.96-.41-.15-.82-.3-1.23-.44-1.23-.44-2.46-.85-3.71-1.25l-.82-.26c-.1-.03-.2-.02-.29,.01-.12,.05-.22,.15-.25,.29,0,.03-.01,.07-.01,.1v.67l-.08,3.35c0,.06,.02,.12,.07,.16,0,0,.02,.02,.03,.03,.2,.13,.65,.43,.72,.47,.02,.01,.03,.03,.04,.04,.01,.02,.02,.04,.01,.07,0,.04-.01,.07-.02,.11-.05,.28-.14,.57-.22,.84-.02,.06-.04,.11-.05,.17-.04,.12-.08,.24-.12,.36-.08,.25-.17,.5-.26,.75v.03l-3.81,11.77s-1.28,4.2-3.98,8l-.02,.03c-.62,.94-2.68,3.51-4.75,4.11-.58,.17-1.07,.25-1.49,.25-.4,0-.72-.08-.95-.22-.34-.22-.32-1.17-.3-1.7l.14-11.31,.16-12.55c.02-1.37,.12-3.8,.29-4.52,.02-.1,.06-.2,.08-.29v-.04s.02-.06,.04-.08c.04-.05,.15-.04,.27-.02,.05,0,.1,.02,.15,.03,.06,.01,.11,.02,.14,.03h0l.86,.17c.1,.02,.19,0,.27-.04,.14-.07,.24-.21,.25-.39,0-.1,0-.21,0-.31,0-.05,0-.11,0-.16,0-.18,0-.31,0-.33h0l-.06-3.34c0-.18-.11-.34-.27-.42-.03-.01-.05-.02-.08-.03l-.43-.12c-.15-.04-3.89-1.01-14.73-1.48l-.5-.02c-.28-.01-.52,.18-.59,.43-.01,.05-.02,.1-.02,.15l-.02,3.48v.65s0,.08,.01,.11c.04,.15,.15,.27,.29,.33,.05,.02,.1,.03,.16,.03h.87c.06,0,.12,0,.17,0h.14s.03,0,.04,0h.02s.02,0,.02,0c.02,0,.04,.02,.06,.04h0c.04,.1,.08,.2,.11,.31,.16,.51,.26,1.15,.29,1.48,.02,.22,.15,2.27,.1,6.21l-.08,14.92c-.1,8.08-.1,8.3-.1,8.3,0,.45-.04,.93-.11,1.43-.01,.1-.03,.2-.04,.29-.04,.23-.07,.45-.12,.65,0,.02-.03,.02-.04,0-.01-.03-.02-.07-.04-.11-.09-.24-.23-.67-.44-1.35v-.05l-.04-.08-.03-.11v-.03c-.32-1.07-.75-2.68-1.29-5.01l-.03-.13c-.72-2.91-4.35-17.58-5.01-20.88-.09-.47-.19-.97-.28-1.5-.08-.44-.15-.91-.23-1.41-.06-.41-.12-.83-.18-1.25-.06-.43-.12-.86-.17-1.29h0l-.02-.2c-.02-.13-.04-.3-.05-.4,0,0,0,0,0,0l.37-.05c.13-.02,.25-.08,.34-.18,.08-.09,.13-.21,.14-.34h0v-.44l.12-3.22c0-.25-.11-.47-.3-.6-.12-.09-.27-.14-.43-.14h-.37c-.07,0-6.71,.16-13.78,1.29l-.53,.08c-.21,.03-.37,.22-.37,.44l.02,3.34v.56c0,.31,.27,.55,.57,.53h.16l.18-.02c-.03,.18-.07,.37-.12,.57-.02,.08-.04,.15-.06,.23l-.03,.11c-.02,.1-.05,.2-.07,.3l-.33,1.43-5.01,20.64v.04c-.04,.15-.07,.3-.1,.45l-.02,.08c-.1,.46-.2,.92-.3,1.37-.15,.66-.29,1.29-.44,1.88-.19,.77-.36,1.44-.52,2.04-.2,.74-.37,1.31-.55,1.84-.1,.29-.21,.58-.33,.86-.01,.02-.02,.05-.03,.07-.05,.11-.1,.22-.15,.32,0,.02-.04,.08-.08,.15-.05,.1-.12,.2-.15,.2,0,0,0,0-.01,0h0s-.07-.13-.1-.19v-.02c-.05-.09-.08-.19-.13-.28-.1-.22-.18-.42-.26-.62-.28-.74-.51-1.53-.71-2.23l-.02-.07c-.18-.64-1.11-3.98-2.1-6.51-.27-.71-1.64-4.33-2.56-5.92-.13-.23-.26-.46-.39-.7-.3-.53-.62-1.09-.99-1.7-.39-.63-.86-1.32-1.44-2.09-.29-.38-.61-.79-.97-1.21,0,0,0-.01,0-.02,0,0,0-.02,0-.02l.09-.12c.23-.31,.41-.56,.42-.57l1.57-2.14,.02-.03c.11-.16,2.82-4.06,5.75-5.56,.17-.09,.37-.17,.43-.19l.13-.04h0l.11-.04c.31-.09,.52-.38,.52-.7h0v-3.59h0c0-.07-.01-.14-.04-.21h0c-.09-.25-.33-.41-.59-.41-.04,0-.08,0-.12,.01l-.56,.13c-.61,.14-6.18,1.48-13.2,4.2l-.68,.27v.02l-.9,.33c-.61,.23-6.15,2.34-13.59,6.46l-.24,.13c-.15,.08-.25,.23-.29,.39,0,.04-.01,.07-.01,.11l-.03,1.99-.03,1.81c0,.1,.02,.19,.07,.27,.07,.14,.2,.24,.34,.28,.14,.04,.29,.03,.43-.05l1.18-.65v.12s.11,1.2,.11,1.88c0,.06,0,.19,0,.37-.11,.13-.16,.27-.2,.35-.06,.11-.1,.09-.1,.09,0,0-.31,0-.37,0-.12,0-.15-.08-.15-.08-.09-.18-.34-.22-.34-.22-.09-.28-.33-.53-.51-.81-.21-.32-.16-.32-.35-.49-.2-.19-.49-.48-.61-.63-.18-.21-.42-.36-.42-.36l-.63-.44s-1.13-.71-1.27-.81c-.13-.09-.14-.12-.14-.12l-.9-.36s-.97-.32-1.21-.37c-.23-.05-.18,0-.18,0,0,0,.06,.02,.42,.27,.31,.22,.39,.25,.39,.25l.77,.38,.35,.25s.21,.19,.52,.41c.31,.22,1.01,.97,1.15,1.16,.15,.19,.36,.44,.36,.44,0,0,.28,.28,.51,.53,.23,.25,.47,.6,.47,.6,0,0,.25,.51,.39,.73,.14,.22,.14,.23,.14,.23h-.55s-.15-.02-.31-.1c-.16-.08-.29-.13-.39-.25s-.16-.12-.16-.12l-.29-.12s-.3-.21-.39-.25c-.09-.03-.21-.11-.29-.11s-.11-.02-.26-.11c-.07-.04-.08-.05-.11-.06-.02,0-.04,0-.06,0-.05,.02-.18,.07-.23,.12-.07,.06-.38,.2-.38,.2-.42,.11-.48-.14-.54-.23-.06-.09-.13-.33-.12-.6,.01-.23-.03-.2-.18-.22-.11,0-.29-.11-.38-.21-.1-.1-.25-.1-.25-.1,0,0-.32-.06-.48-.2-.16-.14-.46-.14-.46-.14,0,0-.12-.02-.32-.12-.18-.09-.19-.02-.19-.02l-.26,.2s-.03-.04-.34,.24c-.3,.27-.4,.09-.4,.09,0,0-.13-.15-.17-.17-.04-.01-.21-.37-.21-.59s0-.16-.07-.14-.35,.2-.58,.35c-.18,.13-.3-.04-.3-.04,0,0-.35-.52-.47-.72-.1-.15-.1-.13-.28-.13,0,0-.5-.02-.67-.01-.15,0-.49,.01-.49,.01-.29-.15-1.49-.15-1.98-.08-.18,.03-.49,.07-.49,.07,0,0-.44-.04-.69,.04-.3,.1-.09,.12-.09,.12,0,0,.58,.08,.83,.13,.54,.1,.3,.07,.74,.14,.33,.05,.56,.12,.82,.14,.26,.02,.62,.14,.84,.24,.22,.11,.65,.27,.65,.27,0,0,.92,.38,1.2,.44,.28,.06,.85,.43,1.03,.52,.18,.09,.77,.44,.95,.53,.18,.09,.47,.28,.47,.28l.22,.17,.39,.31s.82,.59,.98,.68c.15,.09,.56,.44,.56,.44,0,0,.58,.5,.73,.63,.1,.09,.09,.22,.09,.22,0,0-.03,.02-.1,.15-.1,.16-.21,.1-.21,.1,0,0-.27-.08-.33-.08s-.42-.15-.53-.23c-.11-.07-.31-.13-.31-.13,0,0-.16-.01-.29-.1-.13-.09-.36-.13-.45-.14-.1-.01-.46-.11-.59-.16-.13-.05-.7-.24-.87-.3-.21-.08-.51-.12-.66-.14-.13-.02-.53-.16-.72-.21-.19-.05-.45-.1-.65-.13-.19-.02-.41-.07-.74-.11-.26-.03-.52,0-.84,0-.33,0-.05,.05-.05,.05l.37,.11c.29,.09,.94,.22,.94,.22,0,0,.74,.14,1.09,.22,.36,.08,.79,.25,.79,.25,0,0,.34,.1,.71,.19,.25,.06,.65,.24,.65,.24,0,0,.16,.11,.55,.25,.39,.14,.51,.27,.51,.27,0,0,.34,.27,.58,.36,.19,.06,.15,.24,.15,.4,0,.14-.17,.15-.17,.15,0,0-.17,.07-.46-.03-.26-.1-1.3-.33-1.56-.4s-.63-.09-.81-.09-.21,.09-.21,.09c0,0-.21,.19-.38,.39-.17,.2-.56,.1-.71-.49-.08-.29-.35-.24-.55-.29-.22-.05-.25,.06-.76,.59-.23,.24-.41,0-.41,0,0,0-.23-.41-.29-.53-.06-.11-.13-.09-.13-.09l-2.06,.11c-.09,.06-.19,.07-.3,.09-.06,0-.05,.26-.19,.46-.09,.14-.11,.27-.16,.37-.06,.1-.08,.1-.19,.05-.11-.05-.71-.59-.71-.59-.1-.13-.19-.03-.19-.03l-.14,.08c-.2-.02-.33,.02-.53,.08-.2,.06-.21,.12-.56,.18-.36,.06-.45,.19-.56,.22-.03,0-.08,.05-.36,.11-.27,.06-.49,.23-.61,.27-.12,.04-.4,.2-.61,.29-.21,.09-.44,.26-.64,.43-.08,.07-.26,.15-.42,.27-.18,.14-.36,.36-.38,.39-.02,.03,.41-.03,.48-.05,.07-.02,.22-.16,.27-.18,.06-.01,.51-.1,.7-.16,.19-.06,.26,.01,.49-.1,.26-.12,.8-.22,1.03-.28,.23-.06,1.72-.22,1.72-.22,0,0,3.31-.07,4.69,.1,.95,.12,1.77,.24,2.04,.3,.26,.06,.2,.16,.22,.27,.02,.11-.01,.12-.21,.14-.19,.02-.53,.03-.89,.13-.3,.08-.61,.13-.93,.14-.41,.01-.46,.07-.53,.12-.07,.04-.27,.1-.39,.13-.12,.02-.51,.1-.66,.11-.15,.01-.83,.15-1.09,.19s-.2,.02-.26,.05c-.14,.05-.63,.19-.63,.19,0,0-.39,.19-.6,.24-.3,.07-.53,.1-.53,.1l-.82,.49c.06,.09,.41,.03,.41,.03,0,0-.06-.01,.41-.13,.47-.11,.69-.16,.69-.16,0,0,.67-.25,.97-.29,.3-.04,.46-.11,.46-.11,.49-.02,.67-.13,.67-.13,0,0,.61-.19,1.03-.22,.42-.03,.65-.07,.65-.07,0,0,.77-.09,1.35-.1,.59,0,.85-.09,.85-.09,.43-.03,.64-.03,1.46-.03s1.37,.1,1.71,.14c.35,.04,.81,.05,.74,.11-.08,.07-.5,.27-.79,.41-.15,.07-.18-.01-.54,.04-.36,.05-1.29,.18-1.77,.25-.49,.07-1.19,.31-1.37,.34-.18,.02-.36,.05-.41,.05-.06,0-.08,.04-.08,.04l-.03,.16-.12,.23s-.16,.33-.25,.51c-.09,.18-.27,.05-.27,.05,0,0-.61-.61-.63-.63-.02-.02-.03-.09-.09-.02-.06,.07-.23,.15-.38,.24-.15,.09-.28,.07-.28,.07-.14-.01-.09,.05-.09,.05,.06,.14,.04,.24,.04,.24,0,0-.06,.22-.12,.39s-.1,.19-.26,.21c-.15,.02-.27-.07-.27-.07,0,0-.15-.19-.3-.34-.15-.15-.27,0-.44,.07-.17,.08-.47,.31-.66,.44s-.54,.34-.54,.34c-.42,.13-.42,.25-.56,.32-.14,.07-.4,.31-.58,.4-.18,.09-.42,.27-.42,.27,0,0-.2,.21-.34,.29-.14,.09-.33,.21-.33,.21-.23,.09-.45,.33-.45,.33l-.17,.12s-.49,.38-.62,.54c-.13,.16-.22,.25-.37,.34-.15,.09-.33,.3-.33,.3l-.58,.73s-.41,.66-.48,.87-.05,.18,0,.16c.05-.02,.13-.06,.13-.06,0,0,.44-.44,.65-.62,.22-.19,.3-.2,.46-.33,.16-.12,.44-.31,.67-.45s.77-.43,1.24-.77c.47-.34,1.39-.77,1.59-.84,.2-.06,.71-.31,.71-.31l.96-.41,1.69-.55s.73-.25,1.05-.29c.32-.03,.63-.13,.63-.13,.3-.02,.79-.16,1.08-.22,.29-.05,.26-.01,.26-.01,0,0,.06,.06,.13,.18,.07,.12,.02,.13-.05,.21s-.13,.11-.25,.18c-.12,.07-.29,.21-.47,.32-.24,.15-.74,.37-1.07,.55-.35,.2-.7,.45-.7,.45l-.19,.17s-.34,.26-.59,.46-.34,.29-.66,.42c-.32,.13-.4,.26-.4,.26,0,0-.14,.18-.36,.41-.22,.22-.54,.53-.73,.66-.19,.14-.27,.24-.27,.24l-.44,.55-.56,.74c-.1,.26,.12,.23,.18,.14,.19-.27,.55-.62,.64-.72,.09-.1,.43-.41,.43-.41,0,0,.42-.26,.58-.4,.17-.14,.63-.5,.84-.6,.2-.1,.44-.37,.44-.37l.47-.36,.18-.1,.78-.43,.73-.45s1.02-.46,1.25-.58c.22-.13,.49-.25,.49-.25,0,0,1.07-.39,1.43-.5s.63-.16,.63-.16c0,0,.41-.11,.61-.14,.21-.03,.21,.01,.21,.01,0,0,.09,.12,.13,.19s0,.13,0,.13l-.11,.12s-1,.7-1.45,1.07c-.45,.36-.57,.45-.71,.51s-.11,.12-.11,.12c0,0,0,.23-.03,.52-.03,.29-.37,.13-.57,.06-.19-.07-.48-.05-.54,0-.06,.05-.18,.15-.35,.31-.17,.16-.51,.44-.51,.44,0,0-.14,.08-.26,.21-.11,.11-.38,.31-.48,.39-.1,.08-.07,.24-.07,.24,0,0,.2,.39,.29,.57,.09,.17-.02,.2-.12,.29-.1,.09-.21,.05-.21,.05,0,0-.51-.06-.66-.08-.14-.02-.13,.03-.13,.03l-.17,.33c-.05,.07,0,.1,0,.1,.19,.1,.36,.29,.5,.43,.14,.14-.02,.12-.02,.12l-1.38,.36c-.16,.03-.05,.07-.05,.07,.12,.03,.09,.09,.09,.09-.43,.77-.62,1.66-.62,1.66,0,0-.26,.77-.27,1-.02,.23-.08,.64-.13,.99-.05,.32-.02,.34,.04,.7,.04,.2,.2,.12,.22,.05,.02-.07,.04-.16,.04-.16l.05-.17,.08-.29c.05-.23,.31-.6,.43-.73,.09-.09,.1-.1,.1-.1,.25-.54,.7-1.17,.7-1.17,0,0,.3-.58,1.38-1.69,1.08-1.11,1.47-1.43,1.47-1.43,0,0,.56-.48,.86-.64,.3-.16,.91-.6,.91-.6l.64-.42c1.56-.87,3.03-1.29,3.27-1.37,.16-.05,.29-.08,.36-.09,.03,0,.05,.02,.05,.05v.38c-.22,.24-.67,.69-1.18,1.25-.5,.55-.78,.82-.96,1.01-.18,.18-.31,.33-.31,.33,0,0-.33,.43-.73,1.04-.4,.6-.47,.91-.47,.91-.1,.34,.05,.11,.05,.11,0,0,.06-.05,.24-.29,.06-.09,.14-.19,.24-.33,.06-.08,.12-.16,.21-.27,.13-.16,.23-.22,.38-.39,.08-.09,.27-.37,.37-.47,.29-.31,.45-.44,.45-.44,.02-.02,.12-.12,.16-.15,.39-.39,1.46-1.38,2.07-1.69,.7-.35,1.46-.49,1.52-.41,.06,.09,.14,.33,.17,.45,.03,.12,.05,.14-.03,.18-.07,.04-.23,.08-.42,.1-.19,.02-.1,.09-.1,.09,0,0,.13,.13,.29,.28,.17,.15,.39,.27,.54,.33,.15,.06,.08,.05,.09,.13,0,.09,0,.16,0,.16,0,0-.15,.2-.24,.31-.07,.09-.2,.06-.2,.06l-.48,.03c-.22,0,.08,.21,.08,.21,0,0,.22,.24,.42,.42,.21,.18,.17,.26,.18,.52q0,.21-.09,.24c-.13,.05-.31,.1-.45,.1-.27,.01-.12,.1-.05,.19,.05,.07,.4,.55,.53,.75s.03,.36,0,.42c-.05,.07-.24,.27-.24,.3,0,.03,.16,.12,.55,.12s.42,.09,.5,.13c.08,.04,.29,.14,.29,.14h0s-.08,.03-.12,.03h-1.27c-.21,.02-.39,.16-.44,.36-.01,.04-.02,.09-.02,.14h0v1.32s0,.04,0,.06l-.02,.59c0,.07,0,.14-.01,.21,0,.2-.01,.42-.01,.61,0,.18,.09,.33,.22,.43,.08,.06,.19,.09,.3,.09,.56,0,1.37,0,1.37,0h12.98c.29,0,.52-.23,.52-.52h0v-2.89c0-.1,0-.21,0-.31,0-.08-.03-.16-.06-.23-.06-.14-.17-.26-.32-.33-.12-.06-.25-.06-.38-.09-.02,0-.03,0-.05-.01-.08-.02-.14-.07-.18-.14,0,0-.01-.02-.02-.02-.12-.23-.16-.53-.19-.78-.02-.16-.03-.31-.05-.47v-.02c-.02-.27-.04-.54-.06-.81v-.04c-.03-.44-.04-.88-.06-1.32-.02-.62-.03-1.23-.04-1.85l-.08-5.31s.02-.03,.04-.03c0,0,.01,0,.01,.01,.04,.07,.09,.14,.14,.22,.26,.41,.54,.87,.81,1.32,.25,.43,.47,.85,.65,1.23,.79,1.72,1.33,3.47,1.65,4.51l.03,.11c.06,.2,.11,.37,.16,.5,.08,.24,.15,.49,.21,.74v.02c.03,.11,.06,.22,.08,.33,.01,.05,.02,.1,.03,.15v.05c.08,.35,.15,.7,.21,1.06,0,.05,.02,.1,.03,.16,0,.06,.02,.12,.02,.18v.07s.02,.07,.02,.1c0,.04,0,.08,0,.13h0v.02h-.01s-.04,.03-.07,.03c-.45,.06-1.04,.08-1.3,.52-.01,.02-.02,.04-.03,.06-.06,.14-.03,.29-.03,.45,0,.28,0,.56-.01,.84v.61l-.02,.57v.55c0,.16,.05,.3,.15,.4,.1,.1,.24,.16,.39,.16l14.1-.04,9.64-.03c.06,0,.11-.01,.16-.03,.01,0,.03,0,.04-.01,.1-.04,.19-.12,.24-.22,.05-.08,.07-.17,.07-.27l-.03-2.85v-.16s0-.03,0-.05c-.02-.33-.24-.61-.54-.71-.05-.01-.09-.03-.14-.03-.06,0-.11-.01-.17-.02-.2-.02-.41-.02-.6-.07-.08-.02-.15-.04-.22-.08-.13-.06-.18-.18-.2-.3,0-.05-.02-.11-.02-.17-.01-.13-.02-.26-.02-.39,0-.25,.03-.5,.05-.75,.02-.15,.04-.3,.06-.45,.08-.68,.19-1.35,.3-2.02,0-.03,.11-.48,.26-1.14,.33-1.46,.88-3.92,1.11-5.03h.02c.2,.02,.39,.07,.57,.12,.32,.09,.63,.21,.93,.36,.74,.37,1.56,1.06,1.66,1.15h.01s1.42,1.23,2.38,3.23l.02,.03v.02c.09,.17,.53,1.07,.83,2.42,.28,1.27-.1,2.31-.11,2.35h0v.04c-.06,.14-.27,.49-.46,.5l-1,.03c-.07,0-.14,.02-.21,.05h0s-.05,.03-.08,.05h-.01c-.15,.11-.24,.28-.24,.47v3.38s.02,.08,.03,.12c.05,.19,.2,.33,.39,.36,.03,0,.06,0,.09,0l20.93,.07,22.71,.08s.07,0,.1-.01c.15-.03,.27-.12,.35-.25,.04-.07,.07-.15,.07-.24l.08-2.94s0-.1-.01-.15c-.05-.25-.23-.45-.48-.52-.4-.11-.81-.16-1.22-.24,0,0-.01,0-.02,0-.02-.01-.04-.03-.05-.05,0,0,0-.01,0-.02h0c-.02-.33-.05-.39-.02-.95v-.09s.13-1.51,1.54-6.07h0l.22-.75c.06-.19,.11-.36,.12-.41h0c.57,.17,1.16,.44,1.77,.82,.7,.43,1.31,.92,1.82,1.44,.32,.32,.56,.6,.77,.89l.02,.03,.02,.03s1.31,1.56,1.79,3.34c.04,.15,.07,.31,.1,.46,0,.02,0,.03,0,.05,.03,.22,.03,.44,0,.65v.02c-.01,.07-.03,.15-.04,.22-.02,.1-.06,.22-.12,.32-.03,.05-.06,.1-.11,.14-.01,.01-.03,.03-.05,.03h0s-.06,.03-.09,.04h-.03s-.05,.03-.07,.03h-.02s-.06,.01-.09,.02h-.04s-.04,0-.06,0h-.04s-.06,0-.09,0h-.09c-.27,0-.54,0-.81,0h0s-.06,0-.08,0h-.02s-.06,.02-.08,.03h-.02s-.05,.03-.07,.05h-.01s-.05,.05-.07,.07h0s-.04,.05-.06,.07h0s-.03,.06-.04,.09v.02s-.03,.05-.03,.08v.02s-.01,.06-.01,.09h0v3.27h0c0,.21,.17,.38,.38,.39l16.72,.21c.23,0,.41-.18,.41-.41h0v-2.79h0c0-.34-.26-.63-.6-.66l-.36-.04c-.15-.02-.31-.05-.38-.06h-.05c-.2-.04-.36-.1-.44-.17-.24-.21-.45-.5-.62-.83-.03-.07-.06-.13-.09-.2,0-.01-.42-1.01-1.08-3.28,.06-.06,.25,.13,.35,.23,.13,.12,.82,.83,.82,.83,0,0,.12,.14,.27,.39,.18,.29,.14,.26,.25,.38,.12,.15,.2,.36,.21,.48,0,.04,.07,.09,.17,.13,.05,.02,.06,.06,.16,.05,.11-.02,.21-.12,.1-.15-.06-.02-.1-.11-.12-.36-.03-.32-.23-.44-.3-.56-.07-.12-.45-.65-.61-.95-.16-.28-.55-.78-.55-.78-.51-.69-1.04-1.2-1.23-1.38l-.04-.14-.1-.35-.07-.26c.37,.15,.86,.22,1.11,.32,.24,.1,.63,.26,1.11,.54,.7,.41,1.07,.57,1.37,.71,.26,.12,1.22,.73,1.48,.97,.1,.09,1.14,.91,1.36,1.13,.18,.18,.75,.6,.94,.83,.29,.34,1.03,1.35,1.03,1.35,.29,.44,1.35,2.14,1.43,2.25,.09,.11,.06,.16,.13,.16s.14-.01,.16-.06c.02-.05,0-.25-.07-.41-.06-.14-.02-.58-.03-.75-.02-.17-.08-.46-.15-.65-.07-.19-.37-1.38-.53-1.76-.15-.39-.55-1.44-.59-1.56-.04-.12-.14-.17-.14-.17,0,0-.16-.11-.35-.2-.19-.09-.41-.17-.52-.17-.14,0-.03-.2-.03-.2,0,0,.1-.3,.15-.42,.04-.12-.09-.21-.09-.21,0,0-.18-.19-.26-.26-.08-.07-.12-.09-.12-.09,0,0-.77,.02-.84,.01-.08,0-.03-.11,0-.2,.02-.08,.13-.38,.15-.45,.02-.08-.03-.12-.03-.12,0,0-1.59-1.45-1.71-1.56s-.2-.09-.2-.09c0,0-.9,.12-1.01,.13s-.05-.09-.05-.15,.04-.36,.07-.51c.04-.15-.07-.21-.07-.21,0,0-2.25-1.29-2.4-1.36-.15-.08,.03-.08,.09-.03s.15,.03,.27,.03,.25,.02,.41,.13c.16,.11,.48,.16,.48,.16,0,0,.27,.06,.52,.14,.25,.08,.66,.21,.66,.21,.26,.1,1.21,.34,1.47,.44,.2,.07,.95,.42,.95,.42l.88,.45s.62,.23,.72,.3c.43,.29,.86,.54,1.18,.77,.47,.33,.96,.65,1.24,.89,.55,.46,1.41,1.11,1.5,1.26,.14,.22,.13,0,.13,0,0,0,.1-.17,.08-.38-.04-.28-.13-.27-.23-.39-.1-.12-.33-.39-.33-.39,0,0-.14-.23-.32-.49-.18-.26-.57-.53-.64-.59-.08-.06-.32-.25-.32-.25-.43-.28-.51-.43-.81-.7-.3-.27-1.1-.84-1.48-1.12-.39-.28-.7-.39-.8-.44-.09-.05-.38-.11-.69-.34-.31-.23-.57-.33-.57-.33l-.69-.24s-.56-.24-.78-.33c-.22-.09,.05-.09,.05-.09,0,0,.16,0,.41,0,.25,0,.34,.05,.61,.14,.27,.09,.49,.14,.65,.15,.16,0,.52,.09,.52,.09,.21,0,.86,.16,1.16,.25,.3,.09,.73,.19,.94,.23,.21,.04,.34,.09,.34,.09l.39,.15s.41,.22,.77,.25c.36,.03,.87,.25,1.09,.39,.22,.15,.46,.23,.71,.31,.25,.08,.6,.22,.85,.33,.25,.12,.94,.47,.94,.47l.73,.36c.53,.32,1.13,.85,1.35,1.04,.22,.19,.24,.21,.24,.21,.23,.09,.25,.12,.4,.07,.2-.06,.12-.18,.12-.18,0,0-.14-.13-.13-.24,.01-.11-.02-.22-.05-.26-.03-.04-.11-.18-.13-.32-.02-.13-.1-.22-.19-.32s-.13-.18-.13-.18c-.08-.17-.36-.53-.48-.68-.11-.15-.27-.25-.39-.31-.11-.06-.28-.28-.28-.28l-.12-.16c-.24-.29-.35-.37-.35-.37-.22-.22-1.22-.86-1.22-.86,0,0-1.23-.71-1.85-.95-.61-.24-1.85-.85-1.91-.89-.07-.04-.09-.02-.09-.02,0,0-.6,.43-.73,.53s-.09-.08-.09-.08c0,0-.16-.61-.18-.73-.02-.11-.11-.1-.11-.1,0,0-1.01-.26-1.1-.29-.09-.03-.08,.01-.07,.04,0,.03-.01,.05-.01,.05,0,0-.31,.32-.36,.4-.06,.08-.15,.08-.15,.08,0,0-.08,.03-.08-.08s-.08-.15-.08-.15c-.17-.12-.13-.2-.18-.25-.05-.05-.05-.17-.08-.27-.02-.1-.11-.08-.11-.08,0,0-.19,0-.29-.05-.1-.05-.23-.05-.23-.05,0,0-.14,0-.32,0s-.23-.03-.23-.03c0,0-.41-.1-.6-.16-.19-.05-.34-.03-.34-.03,0,0-.35,0-.38,0-.04,0-.06-.06-.17-.09-.1-.03-.06-.05,.13-.05s.28-.05,.38-.1,.15-.03,.15-.03c0,0,.33,0,.65,0s.39-.03,.52-.09c.12-.05,.42-.05,.42-.05h1.11s.53,0,.74,0c.21,0,.65,.15,1.17,.12,.52-.03,1.18,.07,1.56,.16,.47,.1,.84,.2,1.04,.21,.2,0,.74,.15,.74,.15,0,0,.13,.02,.41,.13,.28,.11,.17,.1,.33,.14,.16,.05,.67,.05,.66,0-.01-.04,.11,.02-.13-.29-.22-.28-.39-.34-.39-.34-.56-.27-1.23-.39-1.23-.39-.35-.11-1.06-.24-1.32-.28-.26-.04-.53-.15-.53-.15-.58-.24-1.57-.25-1.76-.23-.19,.02-.5,0-.5,0,0,0-.29-.06-.67-.1-.38-.04-1.92,0-1.92,0h-.88c-.16,0-.01-.06-.01-.06,0,0-.03-.02,.45-.16s.94-.21,1.44-.29c.49-.08,.69-.13,.98-.23,.29-.1,1.01-.21,1.01-.21l2.15-.24c1.86-.18,4.78,.2,5.13,.29,.5,.13,1.49,.3,1.86,.41,.11,.03,.2,.06,.28,.06s.12-.19,.11-.22Zm-16.6,14.9c.04,.09,.08,.18,.12,.26,.21,.42,.5,.83,.85,1.15,.27,.25,.62,.37,.98,.43,.03,0,.28,.05,.5,.08v1.76l-15.38-.19v-2.04s.08,0,.59,0c.64,0,1.1-.42,1.1-.42,0,0,.99-.9,.45-2.92s-2.01-3.75-2.01-3.75c-.26-.36-.56-.69-.87-1-.6-.61-1.29-1.14-2.01-1.6-.75-.47-1.57-.85-2.44-1.05-.22-.05-.49-.06-.66,.11-.14,.14-.17,.36-.22,.54-.13,.45-.26,.9-.39,1.35-1.49,4.82-1.57,6.3-1.57,6.3-.22,1.51,.3,1.98,.69,2.15,.29,.13,1.1,.26,1.1,.26l-.06,2.06-42.54-.15v-2.33l.51-.02c1.01-.03,1.41-1.21,1.41-1.21,0,0,.53-1.32,.16-2.98s-.93-2.7-.93-2.7c-1.07-2.25-2.65-3.58-2.65-3.58,0,0-.96-.84-1.89-1.3-.93-.46-1.74-.59-2.31-.65-.57-.06-.64,.49-.64,.49-.14,.8-1.45,6.6-1.45,6.6-.55,3.14-.41,3.96-.41,3.96,.11,1.04,.71,1.31,1.01,1.38,.34,.08,.89,.15,.89,.15l.03,2.23-22.67,.07,.03-2.02c.39,0,.62-.04,.92-.13,.68-.22,.54-1.25,.51-1.44s-.28-1.78-.63-2.86c-.27-.81-.88-3.04-1.89-5.23-.81-1.76-2.57-4.25-2.57-4.25l-1.12,1.25,.09,6.02c.05,4.07,.25,4.94,.25,4.94,.37,1.38,.93,1.53,1.14,1.51v2.29h-9.13c-1.11,0-4.08,.01-4.08,.01v-1.68c1.39-.05,1.76-.18,2.02-1.3,.26-1.12,.2-5.01,.2-5.83s-.09-12.21-.09-12.94-.11-1.98-.11-1.98v-.06c-.01-.14-.07-.87-.09-.97-.07-.33-.46-.52-.79-.33l-1.13,.62,.05-2.66c7.66-4.25,13.44-6.39,13.44-6.39l.1,2.73-.43,.15c-1.44,.65-1.61,2.9-1.65,4.31-.05,1.42,.09,4.66,.09,4.66,1.01-1.55,3.88-6.08,3.88-6.08,.52-.86,1.53-2.61,1.53-3.33s-.62-.68-1.02-.61-.9,.27-.9,.27v-2.73c7.34-2.85,13.05-4.16,13.05-4.16v2.78c-.2,.06-.59,.26-.59,.26-3.26,1.66-6.15,5.91-6.15,5.91l-1.57,2.14s-.33,.45-.69,.93-.1,.76-.1,.76l.18,.2c2.1,2.47,2.92,4.13,3.83,5.71,.95,1.64,2.49,5.78,2.49,5.78,1.05,2.67,2.07,6.41,2.07,6.41l.02,.07c.22,.78,.45,1.57,.74,2.32,.09,.23,.18,.45,.28,.67,.18,.41,.34,.84,.57,1.23,.14,.23,.36,.47,.66,.41,.07-.01,.14-.04,.2-.08,.21-.13,.35-.35,.49-.55,.15-.23,.29-.47,.41-.71,.25-.48,.45-.99,.62-1.5,.21-.63,.39-1.26,.57-1.9,.19-.69,.36-1.38,.53-2.07,.15-.63,.3-1.26,.44-1.89,.1-.46,.2-.92,.3-1.38,.04-.18,.08-.36,.11-.54l5.01-20.63c.11-.48,.22-.96,.33-1.44,.15-.65,.36-1.32,.34-1.99-.01-.35-.24-.47-.42-.51-.19-.05-.53-.03-.53-.03l-.02-2.8c7.11-1.13,13.63-1.27,13.63-1.27l-.09,2.85c-.15,.02-.32,.05-.47,.09-.13,.04-.25,.12-.33,.24-.04,.06-.07,.14-.08,.21-.04,.21-.01,.42,.01,.62,.03,.21,.05,.42,.08,.63,.06,.43,.11,.87,.17,1.3,.06,.42,.12,.84,.19,1.27,.07,.48,.15,.95,.24,1.43,.09,.51,.18,1.02,.29,1.53,.74,3.69,5.05,21.04,5.05,21.04,1.27,5.51,1.95,7.04,1.95,7.04,.22,.41,.73,1.35,1.33,1.02,.33-.18,.48-.67,.59-1.01,.14-.45,.21-.91,.28-1.37,.07-.52,.12-1.04,.12-1.56l.1-8.3,.09-14.93c.05-4.25-.1-6.31-.1-6.31,0,0-.14-1.35-.51-2.18s-1.66-.67-1.66-.67l.02-2.98c10.85,.46,14.5,1.44,14.5,1.44l.05,2.92s-.12-.05-.69-.11c-.77-.09-1.1,.15-1.35,1.25s-.32,4.74-.32,4.74l-.16,12.55-.14,11.31c-.02,.87-.04,2.07,.79,2.61,.96,.62,2.28,.4,3.31,.1,2.9-.83,5.35-4.54,5.35-4.54,2.81-3.96,4.13-8.3,4.13-8.3l3.78-11.71c.22-.6,.43-1.2,.59-1.81,.08-.29,.17-.6,.17-.9,0-.32-.11-.64-.38-.83-.14-.09-.49-.29-.49-.29l.05-2.71c8.13,2.6,12.99,5.1,12.99,5.1,0,.95-.1,2.37-.1,2.37-.35-.03-.48,0-.67,.22-.02,.03-.04,.07-.05,.1-.05,.16-.01,.35,.02,.52,.04,.2,.09,.4,.13,.6,.04,.21,.09,.41,.14,.61,.06,.26,.12,.51,.18,.77,.07,.29,.14,.59,.21,.88,.08,.32,.16,.64,.24,.96,.08,.34,.17,.67,.25,1.01,.08,.34,.17,.68,.25,1.01,.08,.33,.16,.66,.25,.98,.08,.31,.15,.61,.23,.92,.07,.27,.14,.54,.2,.81,.06,.22,.11,.45,.17,.67,.04,.17,.08,.33,.12,.5,.39,1.55,2.15,7.94,2.96,10.79,.81,2.85,1.31,4.02,1.31,4.02Z"
						></path>
						<path
							d="M110.28,24.26s1.84,.35,3.99,2.1c0,0-1.51-6.53-2.03-8.62l-1.96,6.53Z"
						></path>
						<path
							d="M64.93,23.41s-1.79-8.34-2.31-10.43l-1.82,8.81s2.51,.07,4.13,1.62Z"
						></path>
						<path
							d="M47.32,39.98c-.5-.94-.83-2.14-1.01-2.77s-1.27-4.29-1.27-4.29c0,0-1.46-5.06-3.65-9.12s-4.46-6.13-4.46-6.13c.2-.31,.41-.62,.62-.93,.75-1.12,1.51-2.24,2.32-3.33,.44-.59,.88-1.18,1.36-1.73,1.08-1.22,2.22-2.39,3.46-3.46,.3-.26,.48-.43,1.09-.89,.31-.24,.63-.46,.63-.46-4.64,1.27-9.25,2.98-9.25,2.98,0,0,.37,0,.54,.11s.48,.27,.74,.88c.26,.61,.35,1.04-.07,2.41-.42,1.37-2.33,4.26-2.57,4.62s-5.83,8.23-5.83,8.23l-.14-8.01c-.15-4.35,.93-5.64,.93-5.64-3.84,1.56-8.19,3.94-8.19,3.94,.83,.45,1.12,1.88,1.16,2.75,.04,.98,.06,2.18,.06,2.18,0,0,.02,9.14,.05,12.62,.02,3.47,.04,3.57,.04,3.57,.01,1.31-.04,2.75-.68,3.92-.08,.15-.18,.3-.29,.43-.03,.04-.08,.1-.08,.1,0,0,4.66-.02,5.14-.02,.46,0,.92,0,1.38-.01,.39,0,.78,0,1.16-.01h1.1c-1.71-1.6-1.43-4.71-1.52-8.07-.09-3.36-.08-5.45-.08-5.45,1.45-1.7,3.05-3.83,3.05-3.83,1.61,1.83,3.14,4.49,3.14,4.49,1.25,2.38,1.41,3.09,2.19,5.31s1.08,4.15,1.08,4.15c.53,2.47-.77,3.26-.77,3.26l10.11-.06c-.46-.36-.94-.71-1.5-1.76Z"
						></path>
						<path
							d="M78.09,40.46s-.93-1.45-1.38-3.52c-.46-2.07-.89-3.99-1.11-4.75,0,0-.66-2.74-1.39-5.66-.73-2.91-1.98-7.65-2.27-8.98-.3-1.34-1.27-5.26-1.82-8.69,0,0-.37-2.37-.49-3.37-.13-1.01-.16-1.98,.88-2.74-1.87,.07-3.36,.18-5.16,.35-1.63,.15-5.12,.64-5.12,.64,.3,.2,.75,.56,.93,1.3,0,0,.16,.54,.03,1.31-.13,.77-.39,1.99-.39,1.99l-.74,3.13s-.17,.74-.82,3.39c-.65,2.65-.52,2.14-.87,3.58-.35,1.44-1.59,6.62-1.59,6.62l-1.41,5.87-.9,3.74s-.34,1.32-.72,2.57c-.35,1.16-1.27,3.56-2.91,4.52l6.68-.02s-.88-.28-1.4-1.48c-.32-.74-.34-1.6-.28-2.39,.06-.9,.21-1.79,.37-2.68,.24-1.32,.53-2.63,.83-3.93,.07-.28,.13-.55,.2-.83l.85-3.81s1.73-.36,3.18-.05c1.45,.31,2.43,.95,2.83,1.2,.39,.25,2.45,1.63,3.95,4.41,.85,1.56,1.43,3.05,1.56,5.02,.03,.38,0,.81-.05,1.22-.05,.39-.13,.8-.26,1.18-.19,.54-.48,1.04-.87,1.46-.24,.26-.54,.46-.84,.64-.03,.02-.06,.03-.09,.05h11.91s-.69-.32-1.31-1.27Zm-13.92-15.74c-2.14-1.77-4.18-1.44-5.28-1.34l3.7-17.65c2.16,9.51,5.01,22.29,5.01,22.29-.2-.19-2.08-2.2-3.43-3.3Z"
						></path>
						<path
							d="M123.07,30.66c-.67-2.52-1.83-6.87-2.52-9.62,0,0-1.13-4.66-1.44-6.33,0,0-.37-1.31,.49-2.06,0,0-4.38-2.05-9.31-3.73,0,0,.26,.23,.38,.87,0,0,.23,.94-.12,2.05s-1.45,4.64-1.45,4.64c0,0-1.97,6.33-2.28,7.33-.83,2.66-1.86,6.61-4.62,10.68-2.3,3.39-3.7,4.07-5.87,4.87,0,0-4.41,1.39-6.08-1.3,0,0-.57-.73-.57-2.61,0-1.17,.14-7.66,.14-7.66l.16-17.05s-.02-3.86,.69-5.62c0,0,.43-1.06,1.27-1.36,0,0-3.93-.58-6.05-.74-1.51-.11-3.5-.27-4.38-.27h-.02s.51,.08,.87,.62,.51,.91,.74,1.75c.24,.9,.38,2.98,.33,4.18l-.03,3.57s-.02,4.39-.03,4.88-.03,7.35-.03,7.35c0,0-.01,4.29-.03,6.21-.02,1.92-.01,4.74-.06,5.41-.05,.66-.03,1.74-.53,3.49,0,0-.34,1.14-.91,1.55h12.71l11.58-.03s-.87-.42-1.17-1.61c-.3-1.19,.15-3.13,.26-3.65s.71-2.8,1.87-6.69l.45-1.54s1.37,.05,2.21,.25c.98,.24,2.25,.66,3.94,1.98,0,0,1.61,1.21,2.91,3.06s1.59,3.01,1.66,3.24,.42,1.43,.31,2.37c-.04,.32-.08,.63-.19,.94-.17,.5-.46,.97-.85,1.33-.13,.12-.27,.22-.4,.33h10.2s-1.15-.83-1.9-3.15c0,0-1.65-5.4-2.31-7.92Zm-9.57-3.01c-1.23-.93-2.54-1.72-4.06-2.07-.1-.02-.74-.18-1.13-.16l4.12-13.75c.25,1.03,.55,2.44,.73,3.29,.18,.85,.76,3.36,1.02,4.36s1.26,5.13,1.26,5.13c1.06,4.55,1.29,6.17,1.29,6.17-1-1.07-2.06-2.09-3.23-2.98Z"
						></path>
					</svg>